<svg width="180" height="33" viewBox="0 0 180 33" fill="none" xmlns="http://www.w3.org/2000/svg">
<rect x="0.928741" y="1.04788" width="31" height="31" rx="15.5" fill="#FFD493"/>
<rect x="0.928741" y="1.04788" width="31" height="31" rx="15.5" stroke="white"/>
<path d="M15.2412 15.2581C15.2109 14.9892 15.0859 14.7808 14.8662 14.6331C14.6465 14.4835 14.37 14.4087 14.0367 14.4087C13.7981 14.4087 13.5916 14.4466 13.4174 14.5223C13.2431 14.5962 13.1077 14.6985 13.0111 14.8291C12.9164 14.9579 12.8691 15.1047 12.8691 15.2695C12.8691 15.4077 12.9013 15.527 12.9657 15.6274C13.032 15.7278 13.1181 15.8121 13.2242 15.8803C13.3322 15.9466 13.4477 16.0024 13.5708 16.0479C13.6939 16.0914 13.8123 16.1274 13.9259 16.1558L14.4941 16.3036C14.6797 16.349 14.87 16.4106 15.0651 16.4882C15.2602 16.5659 15.4411 16.6681 15.6077 16.795C15.7744 16.9219 15.9089 17.0791 16.0111 17.2666C16.1153 17.4541 16.1674 17.6786 16.1674 17.9399C16.1674 18.2695 16.0822 18.5621 15.9117 18.8178C15.7431 19.0735 15.4979 19.2752 15.1759 19.4229C14.8558 19.5706 14.4685 19.6445 14.014 19.6445C13.5784 19.6445 13.2015 19.5753 12.8833 19.4371C12.5651 19.2988 12.3161 19.1028 12.1361 18.849C11.9562 18.5933 11.8568 18.2903 11.8378 17.9399H12.7185C12.7356 18.1502 12.8037 18.3253 12.9231 18.4655C13.0443 18.6038 13.1986 18.707 13.3861 18.7752C13.5755 18.8414 13.7829 18.8746 14.0083 18.8746C14.2564 18.8746 14.477 18.8358 14.6702 18.7581C14.8653 18.6786 15.0187 18.5687 15.1304 18.4286C15.2422 18.2865 15.2981 18.1208 15.2981 17.9314C15.2981 17.7591 15.2488 17.618 15.1503 17.5081C15.0537 17.3983 14.9221 17.3074 14.7554 17.2354C14.5907 17.1634 14.4041 17.1 14.1958 17.045L13.5083 16.8575C13.0424 16.7306 12.6731 16.5441 12.4003 16.2979C12.1295 16.0517 11.9941 15.7259 11.9941 15.3206C11.9941 14.9854 12.085 14.6928 12.2668 14.4428C12.4486 14.1928 12.6948 13.9986 13.0054 13.8604C13.3161 13.7202 13.6664 13.6502 14.0566 13.6502C14.4505 13.6502 14.7981 13.7193 15.0992 13.8575C15.4022 13.9958 15.6409 14.1861 15.8151 14.4286C15.9893 14.6691 16.0803 14.9456 16.0878 15.2581H15.2412ZM19.4777 13.7297H20.3527V17.8547C20.3527 18.2278 20.2789 18.5469 20.1312 18.8121C19.9853 19.0772 19.7798 19.2799 19.5147 19.42C19.2495 19.5583 18.9389 19.6274 18.5829 19.6274C18.2552 19.6274 17.9607 19.5678 17.6993 19.4485C17.4399 19.3291 17.2344 19.1558 17.0829 18.9286C16.9332 18.6994 16.8584 18.421 16.8584 18.0933H17.7306C17.7306 18.2543 17.7675 18.3935 17.8414 18.511C17.9171 18.6284 18.0204 18.7202 18.151 18.7865C18.2836 18.8509 18.4351 18.8831 18.6056 18.8831C18.7912 18.8831 18.9484 18.8443 19.0772 18.7666C19.2079 18.6871 19.3073 18.5706 19.3755 18.4172C19.4437 18.2638 19.4777 18.0763 19.4777 17.8547V13.7297Z" fill="#333333"/>
<rect x="21.9287" y="1.04788" width="31" height="31" rx="15.5" fill="#FFCAC6"/>
<rect x="21.9287" y="1.04788" width="31" height="31" rx="15.5" stroke="white"/>
<path d="M35.3293 13.7297H36.2043V17.8547C36.2043 18.2278 36.1304 18.5469 35.9827 18.8121C35.8369 19.0772 35.6314 19.2799 35.3662 19.42C35.1011 19.5583 34.7905 19.6274 34.4344 19.6274C34.1068 19.6274 33.8123 19.5678 33.5509 19.4485C33.2914 19.3291 33.0859 19.1558 32.9344 18.9286C32.7848 18.6994 32.71 18.421 32.71 18.0933H33.5822C33.5822 18.2543 33.6191 18.3935 33.6929 18.511C33.7687 18.6284 33.8719 18.7202 34.0026 18.7865C34.1352 18.8509 34.2867 18.8831 34.4572 18.8831C34.6428 18.8831 34.8 18.8443 34.9287 18.7666C35.0594 18.6871 35.1589 18.5706 35.227 18.4172C35.2952 18.2638 35.3293 18.0763 35.3293 17.8547V13.7297ZM37.482 19.5479V13.7297H38.3598V16.5081H38.4309L40.8712 13.7297H41.9763L39.6297 16.349L41.9848 19.5479H40.928L39.0473 16.9485L38.3598 17.7382V19.5479H37.482Z" fill="#333333"/>
<rect x="42.9287" y="1.04788" width="31" height="31" rx="15.5" fill="#FFF3B3"/>
<rect x="42.9287" y="1.04788" width="31" height="31" rx="15.5" stroke="white"/>
<path d="M55.4515 19.5479H53.5679V13.7297H55.5111C56.0812 13.7297 56.5708 13.8462 56.9799 14.0791C57.389 14.3102 57.7024 14.6426 57.9202 15.0763C58.1399 15.5081 58.2498 16.0261 58.2498 16.6303C58.2498 17.2363 58.139 17.7572 57.9174 18.1928C57.6977 18.6284 57.3795 18.9636 56.9628 19.1985C56.5462 19.4314 56.0424 19.5479 55.4515 19.5479ZM54.4458 18.7808H55.4032C55.8464 18.7808 56.2147 18.6975 56.5083 18.5308C56.8018 18.3623 57.0215 18.1189 57.1674 17.8007C57.3132 17.4806 57.3861 17.0905 57.3861 16.6303C57.3861 16.1738 57.3132 15.7865 57.1674 15.4683C57.0234 15.1502 56.8085 14.9087 56.5225 14.7439C56.2365 14.5791 55.8814 14.4967 55.4572 14.4967H54.4458V18.7808ZM59.3414 19.5479V13.7297H62.9493V14.4854H60.2192V16.2581H62.6908V17.011H60.2192V19.5479H59.3414Z" fill="#333333"/>
<rect x="63.9287" y="1.04788" width="31" height="31" rx="15.5" fill="#CAFFC9"/>
<rect x="63.9287" y="1.04788" width="31" height="31" rx="15.5" stroke="white"/>
<path d="M77.7412 15.2581C77.7109 14.9892 77.5859 14.7808 77.3662 14.6331C77.1465 14.4835 76.87 14.4087 76.5367 14.4087C76.2981 14.4087 76.0916 14.4466 75.9174 14.5223C75.7431 14.5962 75.6077 14.6985 75.5111 14.8291C75.4164 14.9579 75.3691 15.1047 75.3691 15.2695C75.3691 15.4077 75.4013 15.527 75.4657 15.6274C75.532 15.7278 75.6181 15.8121 75.7242 15.8803C75.8322 15.9466 75.9477 16.0024 76.0708 16.0479C76.1939 16.0914 76.3123 16.1274 76.4259 16.1558L76.9941 16.3036C77.1797 16.349 77.37 16.4106 77.5651 16.4882C77.7602 16.5659 77.9411 16.6681 78.1077 16.795C78.2744 16.9219 78.4089 17.0791 78.5111 17.2666C78.6153 17.4541 78.6674 17.6786 78.6674 17.9399C78.6674 18.2695 78.5822 18.5621 78.4117 18.8178C78.2431 19.0735 77.9979 19.2752 77.6759 19.4229C77.3558 19.5706 76.9685 19.6445 76.514 19.6445C76.0784 19.6445 75.7015 19.5753 75.3833 19.4371C75.0651 19.2988 74.8161 19.1028 74.6361 18.849C74.4562 18.5933 74.3568 18.2903 74.3378 17.9399H75.2185C75.2356 18.1502 75.3037 18.3253 75.4231 18.4655C75.5443 18.6038 75.6986 18.707 75.8861 18.7752C76.0755 18.8414 76.2829 18.8746 76.5083 18.8746C76.7564 18.8746 76.977 18.8358 77.1702 18.7581C77.3653 18.6786 77.5187 18.5687 77.6304 18.4286C77.7422 18.2865 77.7981 18.1208 77.7981 17.9314C77.7981 17.7591 77.7488 17.618 77.6503 17.5081C77.5537 17.3983 77.4221 17.3074 77.2554 17.2354C77.0907 17.1634 76.9041 17.1 76.6958 17.045L76.0083 16.8575C75.5424 16.7306 75.1731 16.5441 74.9003 16.2979C74.6295 16.0517 74.4941 15.7259 74.4941 15.3206C74.4941 14.9854 74.585 14.6928 74.7668 14.4428C74.9486 14.1928 75.1948 13.9986 75.5054 13.8604C75.8161 13.7202 76.1664 13.6502 76.5566 13.6502C76.9505 13.6502 77.2981 13.7193 77.5992 13.8575C77.9022 13.9958 78.1409 14.1861 78.3151 14.4286C78.4893 14.6691 78.5803 14.9456 78.5878 15.2581H77.7412ZM79.7164 19.5479V13.7297H81.7902C82.241 13.7297 82.6151 13.8074 82.9124 13.9627C83.2116 14.118 83.4351 14.3329 83.5829 14.6075C83.7306 14.8803 83.8045 15.1956 83.8045 15.5536C83.8045 15.9096 83.7296 16.2231 83.58 16.4939C83.4323 16.7628 83.2088 16.9721 82.9096 17.1217C82.6122 17.2714 82.2382 17.3462 81.7874 17.3462H80.2164V16.5905H81.7079C81.992 16.5905 82.223 16.5498 82.401 16.4683C82.581 16.3869 82.7126 16.2685 82.7959 16.1132C82.8793 15.9579 82.9209 15.7714 82.9209 15.5536C82.9209 15.3339 82.8783 15.1435 82.7931 14.9825C82.7098 14.8216 82.5781 14.6985 82.3982 14.6132C82.2202 14.5261 81.9863 14.4825 81.6965 14.4825H80.5942V19.5479H79.7164ZM82.5885 16.9229L84.026 19.5479H83.026L81.617 16.9229H82.5885Z" fill="#333333"/>
<rect x="84.9287" y="1.04788" width="31" height="31" rx="15.5" fill="#FED0FF"/>
<rect x="84.9287" y="1.04788" width="31" height="31" rx="15.5" stroke="white"/>
<path d="M95.1191 13.7297H96.1162L97.6361 16.3746H97.6986L99.2185 13.7297H100.216L98.1049 17.2638V19.5479H97.2299V17.2638L95.1191 13.7297ZM101.045 19.5479V13.7297H103.118C103.569 13.7297 103.943 13.8074 104.241 13.9627C104.54 14.118 104.763 14.3329 104.911 14.6075C105.059 14.8803 105.133 15.1956 105.133 15.5536C105.133 15.9096 105.058 16.2231 104.908 16.4939C104.76 16.7628 104.537 16.9721 104.238 17.1217C103.94 17.2714 103.566 17.3462 103.116 17.3462H101.545V16.5905H103.036C103.32 16.5905 103.551 16.5498 103.729 16.4683C103.909 16.3869 104.041 16.2685 104.124 16.1132C104.207 15.9579 104.249 15.7714 104.249 15.5536C104.249 15.3339 104.206 15.1435 104.121 14.9825C104.038 14.8216 103.906 14.6985 103.726 14.6132C103.548 14.5261 103.314 14.4825 103.025 14.4825H101.922V19.5479H101.045ZM103.917 16.9229L105.354 19.5479H104.354L102.945 16.9229H103.917Z" fill="#333333"/>
<rect x="105.929" y="1.04788" width="31" height="31" rx="15.5" fill="#FFB3A3"/>
<rect x="105.929" y="1.04788" width="31" height="31" rx="15.5" stroke="white"/>
<path d="M119.9 15.6217H119.014C118.98 15.4324 118.916 15.2657 118.824 15.1217C118.731 14.9778 118.617 14.8556 118.483 14.7553C118.348 14.6549 118.198 14.5791 118.031 14.528C117.866 14.4769 117.691 14.4513 117.505 14.4513C117.17 14.4513 116.87 14.5356 116.605 14.7041C116.342 14.8727 116.133 15.1199 115.98 15.4456C115.828 15.7714 115.753 16.1691 115.753 16.6388C115.753 17.1123 115.828 17.5119 115.98 17.8377C116.133 18.1634 116.343 18.4096 116.608 18.5763C116.873 18.743 117.171 18.8263 117.503 18.8263C117.686 18.8263 117.861 18.8017 118.025 18.7524C118.192 18.7013 118.343 18.6265 118.477 18.528C118.612 18.4295 118.725 18.3092 118.818 18.1672C118.913 18.0233 118.978 17.8585 119.014 17.6729L119.9 17.6757C119.853 17.9617 119.761 18.225 119.625 18.4655C119.49 18.7041 119.317 18.9106 119.105 19.0848C118.895 19.2572 118.654 19.3907 118.383 19.4854C118.112 19.5801 117.817 19.6274 117.497 19.6274C116.993 19.6274 116.544 19.5081 116.15 19.2695C115.756 19.0289 115.446 18.6852 115.219 18.2382C114.993 17.7913 114.88 17.2581 114.88 16.6388C114.88 16.0176 114.994 15.4844 115.221 15.0394C115.449 14.5924 115.759 14.2496 116.153 14.011C116.547 13.7704 116.995 13.6502 117.497 13.6502C117.806 13.6502 118.094 13.6947 118.361 13.7837C118.629 13.8708 118.871 13.9996 119.085 14.17C119.299 14.3386 119.476 14.545 119.616 14.7894C119.756 15.0318 119.851 15.3092 119.9 15.6217ZM120.951 13.7297H122.016L123.868 18.2524H123.937L125.789 13.7297H126.854V19.5479H126.019V15.3377H125.965L124.249 19.5394H123.556L121.84 15.3348H121.786V19.5479H120.951V13.7297Z" fill="#333333"/>
<rect x="126.929" y="1.04788" width="31" height="31" rx="15.5" fill="#C8CBFF"/>
<rect x="126.929" y="1.04788" width="31" height="31" rx="15.5" stroke="white"/>
<path d="M141.764 13.7297V19.5479H140.957L138 15.2808H137.946V19.5479H137.068V13.7297H137.88L140.841 18.0024H140.895V13.7297H141.764ZM146.218 15.2581C146.187 14.9892 146.062 14.7808 145.843 14.6331C145.623 14.4835 145.347 14.4087 145.013 14.4087C144.775 14.4087 144.568 14.4466 144.394 14.5223C144.22 14.5962 144.084 14.6985 143.988 14.8291C143.893 14.9579 143.846 15.1047 143.846 15.2695C143.846 15.4077 143.878 15.527 143.942 15.6274C144.008 15.7278 144.095 15.8121 144.201 15.8803C144.309 15.9466 144.424 16.0024 144.547 16.0479C144.67 16.0914 144.789 16.1274 144.902 16.1558L145.471 16.3036C145.656 16.349 145.847 16.4106 146.042 16.4882C146.237 16.5659 146.418 16.6681 146.584 16.795C146.751 16.9219 146.885 17.0791 146.988 17.2666C147.092 17.4541 147.144 17.6786 147.144 17.9399C147.144 18.2695 147.059 18.5621 146.888 18.8178C146.72 19.0735 146.474 19.2752 146.152 19.4229C145.832 19.5706 145.445 19.6445 144.991 19.6445C144.555 19.6445 144.178 19.5753 143.86 19.4371C143.542 19.2988 143.293 19.1028 143.113 18.849C142.933 18.5933 142.833 18.2903 142.814 17.9399H143.695C143.712 18.1502 143.78 18.3253 143.9 18.4655C144.021 18.6038 144.175 18.707 144.363 18.7752C144.552 18.8414 144.759 18.8746 144.985 18.8746C145.233 18.8746 145.454 18.8358 145.647 18.7581C145.842 18.6786 145.995 18.5687 146.107 18.4286C146.219 18.2865 146.275 18.1208 146.275 17.9314C146.275 17.7591 146.225 17.618 146.127 17.5081C146.03 17.3983 145.899 17.3074 145.732 17.2354C145.567 17.1634 145.381 17.1 145.172 17.045L144.485 16.8575C144.019 16.7306 143.65 16.5441 143.377 16.2979C143.106 16.0517 142.971 15.7259 142.971 15.3206C142.971 14.9854 143.062 14.6928 143.243 14.4428C143.425 14.1928 143.671 13.9986 143.982 13.8604C144.293 13.7202 144.643 13.6502 145.033 13.6502C145.427 13.6502 145.775 13.7193 146.076 13.8575C146.379 13.9958 146.617 14.1861 146.792 14.4286C146.966 14.6691 147.057 14.9456 147.064 15.2581H146.218Z" fill="#333333"/>
<rect x="147.929" y="1.04788" width="31" height="31" rx="15.5" fill="#212355"/>
<rect x="147.929" y="1.04788" width="31" height="31" rx="15.5" stroke="white"/>
<path d="M154.71 18.5706V14.7297H155.474V18.5706H154.71ZM153.173 17.0308V16.2695H157.014V17.0308H153.173ZM160.524 13.7297V19.5479H159.643V14.6104H159.609L158.217 15.5195V14.6786L159.669 13.7297H160.524ZM162.333 19.6019C162.178 19.6019 162.044 19.5469 161.932 19.4371C161.821 19.3253 161.765 19.1909 161.765 19.0337C161.765 18.8784 161.821 18.7458 161.932 18.636C162.044 18.5242 162.178 18.4683 162.333 18.4683C162.488 18.4683 162.622 18.5242 162.733 18.636C162.845 18.7458 162.901 18.8784 162.901 19.0337C162.901 19.1378 162.874 19.2335 162.821 19.3206C162.77 19.4058 162.702 19.474 162.617 19.5252C162.532 19.5763 162.437 19.6019 162.333 19.6019ZM165.842 19.6274C165.452 19.6274 165.103 19.5602 164.797 19.4257C164.492 19.2913 164.25 19.1047 164.072 18.8661C163.896 18.6255 163.801 18.3471 163.788 18.0308H164.68C164.691 18.2032 164.749 18.3528 164.853 18.4797C164.959 18.6047 165.098 18.7013 165.268 18.7695C165.439 18.8377 165.628 18.8717 165.836 18.8717C166.066 18.8717 166.268 18.832 166.444 18.7524C166.622 18.6729 166.762 18.5621 166.862 18.42C166.962 18.2761 167.013 18.1104 167.013 17.9229C167.013 17.7278 166.962 17.5564 166.862 17.4087C166.763 17.2591 166.619 17.1416 166.427 17.0564C166.238 16.9712 166.009 16.9286 165.74 16.9286H165.248V16.2127H165.74C165.956 16.2127 166.145 16.1738 166.308 16.0962C166.473 16.0185 166.602 15.9106 166.694 15.7723C166.787 15.6322 166.834 15.4683 166.834 15.2808C166.834 15.1009 166.793 14.9447 166.711 14.8121C166.632 14.6776 166.518 14.5725 166.37 14.4967C166.225 14.421 166.052 14.3831 165.853 14.3831C165.664 14.3831 165.487 14.4181 165.322 14.4882C165.159 14.5564 165.027 14.6549 164.924 14.7837C164.822 14.9106 164.767 15.063 164.76 15.2411H163.91C163.92 14.9267 164.013 14.6502 164.189 14.4115C164.367 14.1729 164.602 13.9863 164.893 13.8519C165.185 13.7174 165.509 13.6502 165.865 13.6502C166.238 13.6502 166.56 13.7231 166.831 13.8689C167.103 14.0128 167.314 14.2051 167.461 14.4456C167.611 14.6861 167.685 14.9494 167.683 15.2354C167.685 15.5611 167.594 15.8377 167.41 16.0649C167.228 16.2922 166.986 16.4447 166.683 16.5223V16.5678C167.069 16.6265 167.369 16.7799 167.581 17.028C167.795 17.2761 167.901 17.5839 167.899 17.9513C167.901 18.2714 167.812 18.5583 167.632 18.8121C167.454 19.0659 167.21 19.2657 166.902 19.4115C166.593 19.5555 166.24 19.6274 165.842 19.6274ZM169.052 19.5479V13.7297H169.93V16.5081H170.001L172.441 13.7297H173.547L171.2 16.349L173.555 19.5479H172.498L170.618 16.9485L169.93 17.7382V19.5479H169.052Z" fill="white"/>
</svg>
