<svg width="213" height="187" viewBox="0 0 213 187" fill="none" xmlns="http://www.w3.org/2000/svg">
<circle cx="79.9996" cy="107" r="69.9996" stroke="#FE8B8B" stroke-width="18.5635"/>
<path d="M80.0001 37C118.66 37 150 68.3399 150 107C150 145.659 118.66 176.999 80.0001 176.999C48.8232 176.999 22.4067 156.617 13.3486 128.451" stroke="#5EE2AB" stroke-width="18.5635"/>
<path d="M80 37C118.66 37 150 68.3399 150 107C150 129.901 139.002 150.234 122 163.004" stroke="#CB77FF" stroke-opacity="0.4" stroke-width="27.8453"/>
<path d="M80 37C118.66 37 150 68.3399 150 107C150 129.901 139.002 150.234 122 163.004" stroke="#89B8FF" stroke-width="18.5635"/>
<path d="M104 4.18062C104 1.87173 105.872 0 108.181 0L208.819 0C211.128 0 213 1.87173 213 4.18063V76.0122C213 78.3211 211.128 80.1928 208.819 80.1928L143.387 80.1928L140.123 83.9544C139.706 84.4347 138.961 84.4347 138.544 83.9544L135.28 80.1928H108.181C105.872 80.1928 104 78.3211 104 76.0122V4.18062Z" fill="#CBC0F0"/>
<path opacity="0.5" d="M120.713 36.7957V37.3643H117.503V36.7957H118.786V32.7112C118.786 32.5886 118.79 32.4646 118.799 32.3391L117.733 33.2547C117.696 33.2854 117.66 33.3049 117.624 33.3132C117.588 33.3188 117.554 33.3188 117.524 33.3132C117.493 33.3077 117.464 33.2965 117.436 33.2798C117.411 33.2631 117.391 33.2449 117.377 33.2254L117.143 32.9035L118.928 31.3609H119.534V36.7957H120.713ZM122.855 36.3442C122.991 36.5281 123.14 36.6577 123.302 36.733C123.464 36.8082 123.645 36.8459 123.845 36.8459C124.241 36.8459 124.545 36.7051 124.757 36.4236C124.969 36.1421 125.074 35.7408 125.074 35.2196C125.074 34.9437 125.049 34.7068 124.999 34.5089C124.952 34.311 124.882 34.1494 124.79 34.0239C124.698 33.8957 124.585 33.8024 124.452 33.7438C124.318 33.6853 124.166 33.656 123.996 33.656C123.753 33.656 123.54 33.7118 123.356 33.8233C123.175 33.9347 123.008 34.0922 122.855 34.2957V36.3442ZM122.817 33.7856C122.995 33.5655 123.202 33.3885 123.436 33.2547C123.67 33.1209 123.937 33.054 124.238 33.054C124.484 33.054 124.705 33.1014 124.903 33.1962C125.101 33.2881 125.27 33.4261 125.409 33.6101C125.548 33.7912 125.656 34.017 125.731 34.2873C125.806 34.5577 125.844 34.8684 125.844 35.2196C125.844 35.5317 125.802 35.823 125.718 36.0933C125.635 36.3609 125.513 36.5936 125.355 36.7915C125.198 36.9866 125.006 37.1413 124.778 37.2556C124.552 37.367 124.297 37.4228 124.013 37.4228C123.753 37.4228 123.53 37.3796 123.344 37.2932C123.16 37.204 122.997 37.0814 122.855 36.9253V38.7982H122.106V33.1293H122.554C122.659 33.1293 122.725 33.1808 122.75 33.284L122.817 33.7856ZM127.002 37.3643V33.1293H127.449C127.555 33.1293 127.621 33.1808 127.646 33.284L127.7 33.7188C127.856 33.5264 128.032 33.369 128.227 33.2463C128.422 33.1237 128.648 33.0624 128.904 33.0624C129.189 33.0624 129.419 33.1418 129.594 33.3007C129.772 33.4596 129.901 33.6742 129.979 33.9445C130.04 33.7912 130.118 33.6588 130.213 33.5473C130.31 33.4359 130.419 33.3439 130.539 33.2714C130.659 33.199 130.786 33.146 130.919 33.1126C131.056 33.0791 131.194 33.0624 131.333 33.0624C131.556 33.0624 131.754 33.0986 131.927 33.1711C132.102 33.2408 132.25 33.3439 132.37 33.4805C132.493 33.617 132.586 33.7856 132.65 33.9863C132.714 34.1842 132.746 34.4113 132.746 34.6678V37.3643H131.998V34.6678C131.998 34.3361 131.925 34.0853 131.781 33.9152C131.636 33.7424 131.427 33.656 131.153 33.656C131.031 33.656 130.914 33.6783 130.802 33.7229C130.694 33.7647 130.597 33.8274 130.514 33.9111C130.43 33.9947 130.363 34.1006 130.313 34.2288C130.266 34.3542 130.242 34.5005 130.242 34.6678V37.3643H129.494V34.6678C129.494 34.3277 129.425 34.0741 129.289 33.9069C129.152 33.7397 128.953 33.656 128.691 33.656C128.507 33.656 128.337 33.7062 128.181 33.8065C128.025 33.9041 127.881 34.0379 127.75 34.2079V37.3643H127.002ZM136.368 34.5423H138.433V35.1736H136.368V34.5423ZM144.557 35.2029V32.7321C144.557 32.6597 144.56 32.5802 144.566 32.4938C144.571 32.4074 144.58 32.3196 144.591 32.2304L142.408 35.2029H144.557ZM146.117 35.2029V35.6293C146.117 35.6739 146.103 35.7115 146.075 35.7422C146.05 35.7728 146.009 35.7882 145.954 35.7882H145.209V37.3643H144.557V35.7882L141.898 35.7882C141.843 35.7882 141.794 35.7728 141.752 35.7422C141.713 35.7087 141.688 35.6683 141.677 35.6209L141.602 35.2405L144.515 31.3734H145.209V35.2029H146.117ZM147.902 36.3442C148.039 36.5281 148.188 36.6577 148.35 36.733C148.511 36.8082 148.693 36.8459 148.893 36.8459C149.289 36.8459 149.593 36.7051 149.805 36.4236C150.016 36.1421 150.122 35.7408 150.122 35.2196C150.122 34.9437 150.097 34.7068 150.047 34.5089C150 34.311 149.93 34.1494 149.838 34.0239C149.746 33.8957 149.633 33.8024 149.499 33.7438C149.366 33.6853 149.214 33.656 149.044 33.656C148.801 33.656 148.588 33.7118 148.404 33.8233C148.223 33.9347 148.056 34.0922 147.902 34.2957V36.3442ZM147.865 33.7856C148.043 33.5655 148.249 33.3885 148.483 33.2547C148.718 33.1209 148.985 33.054 149.286 33.054C149.531 33.054 149.753 33.1014 149.951 33.1962C150.149 33.2881 150.317 33.4261 150.457 33.6101C150.596 33.7912 150.703 34.017 150.779 34.2873C150.854 34.5577 150.892 34.8684 150.892 35.2196C150.892 35.5317 150.85 35.823 150.766 36.0933C150.682 36.3609 150.561 36.5936 150.402 36.7915C150.246 36.9866 150.054 37.1413 149.825 37.2556C149.6 37.367 149.345 37.4228 149.06 37.4228C148.801 37.4228 148.578 37.3796 148.392 37.2932C148.208 37.204 148.045 37.0814 147.902 36.9253V38.7982H147.154V33.1293H147.601C147.707 33.1293 147.773 33.1808 147.798 33.284L147.865 33.7856ZM152.05 37.3643V33.1293H152.497C152.603 33.1293 152.669 33.1808 152.694 33.284L152.748 33.7188C152.904 33.5264 153.08 33.369 153.275 33.2463C153.47 33.1237 153.696 33.0624 153.952 33.0624C154.236 33.0624 154.466 33.1418 154.642 33.3007C154.82 33.4596 154.949 33.6742 155.027 33.9445C155.088 33.7912 155.166 33.6588 155.261 33.5473C155.358 33.4359 155.467 33.3439 155.587 33.2714C155.707 33.199 155.833 33.146 155.967 33.1126C156.104 33.0791 156.242 33.0624 156.381 33.0624C156.604 33.0624 156.802 33.0986 156.975 33.1711C157.15 33.2408 157.298 33.3439 157.418 33.4805C157.541 33.617 157.634 33.7856 157.698 33.9863C157.762 34.1842 157.794 34.4113 157.794 34.6678V37.3643H157.046V34.6678C157.046 34.3361 156.973 34.0853 156.828 33.9152C156.683 33.7424 156.474 33.656 156.201 33.656C156.079 33.656 155.962 33.6783 155.85 33.7229C155.741 33.7647 155.645 33.8274 155.562 33.9111C155.478 33.9947 155.411 34.1006 155.361 34.2288C155.314 34.3542 155.29 34.5005 155.29 34.6678V37.3643H154.542V34.6678C154.542 34.3277 154.473 34.0741 154.337 33.9069C154.2 33.7397 154.001 33.656 153.739 33.656C153.555 33.656 153.385 33.7062 153.229 33.8065C153.073 33.9041 152.929 34.0379 152.798 34.2079V37.3643H152.05Z" fill="white"/>
<path d="M120.387 18.2209L119.497 15.8923C119.433 15.7334 119.369 15.5327 119.305 15.2903C119.274 15.4101 119.242 15.5216 119.208 15.6247C119.178 15.7278 119.147 15.8198 119.116 15.9006L118.23 18.2209H120.387ZM122.147 20.4575H121.462C121.384 20.4575 121.32 20.438 121.269 20.399C121.219 20.36 121.183 20.3098 121.161 20.2485L120.63 18.8563H117.983L117.453 20.2485C117.433 20.3014 117.397 20.3502 117.344 20.3948C117.291 20.4366 117.227 20.4575 117.152 20.4575H116.466L118.857 14.4541H119.756L122.147 20.4575ZM126.572 16.8705V19.358C126.572 19.5252 126.612 19.6507 126.693 19.7343C126.774 19.8151 126.88 19.8555 127.011 19.8555C127.086 19.8555 127.15 19.8458 127.203 19.8262C127.259 19.8067 127.306 19.7858 127.345 19.7635C127.384 19.7385 127.418 19.7162 127.446 19.6966C127.474 19.6771 127.499 19.6674 127.521 19.6674C127.546 19.6674 127.567 19.6743 127.584 19.6883C127.6 19.6994 127.617 19.7189 127.634 19.7468L127.876 20.1398C127.743 20.2624 127.582 20.3572 127.396 20.4241C127.212 20.491 127.021 20.5244 126.823 20.5244C126.48 20.5244 126.215 20.4283 126.028 20.2359C125.845 20.0436 125.753 19.7691 125.753 19.4124V16.8705H123.85V20.4575H123.031V16.8789L122.588 16.8246C122.524 16.8106 122.471 16.7883 122.429 16.7577C122.39 16.7242 122.37 16.6768 122.37 16.6155V16.2769H123.031V15.8923C123.031 15.6498 123.066 15.4338 123.135 15.2443C123.205 15.0548 123.304 14.8945 123.432 14.7635C123.563 14.6297 123.719 14.5294 123.901 14.4625C124.084 14.3928 124.291 14.358 124.519 14.358C124.712 14.358 124.889 14.3859 125.05 14.4416L125.033 14.8513C125.031 14.8875 125.02 14.9154 125 14.9349C124.981 14.9516 124.954 14.9642 124.921 14.9725C124.89 14.9809 124.851 14.9865 124.804 14.9893C124.759 14.9893 124.71 14.9893 124.657 14.9893C124.532 14.9893 124.418 15.0046 124.314 15.0352C124.211 15.0659 124.124 15.1175 124.051 15.1899C123.979 15.2624 123.923 15.3585 123.884 15.4784C123.845 15.5954 123.825 15.7418 123.825 15.9174V16.2769H125.782L125.97 15.0018C125.978 14.9544 125.998 14.9182 126.028 14.8931C126.062 14.8652 126.104 14.8513 126.154 14.8513H126.572V16.2769H127.776V16.8705H126.572ZM131.522 17.8613C131.522 17.6997 131.498 17.5506 131.451 17.414C131.406 17.2775 131.339 17.159 131.25 17.0587C131.161 16.9583 131.052 16.8803 130.924 16.8246C130.796 16.7688 130.648 16.7409 130.481 16.7409C130.138 16.7409 129.868 16.8399 129.67 17.0378C129.475 17.2356 129.351 17.5102 129.298 17.8613L131.522 17.8613ZM132.195 19.8513C132.095 19.9684 131.979 20.0701 131.848 20.1565C131.717 20.2401 131.578 20.3084 131.43 20.3614C131.282 20.4143 131.129 20.4533 130.97 20.4784C130.814 20.5035 130.659 20.516 130.506 20.516C130.213 20.516 129.942 20.4673 129.691 20.3697C129.443 20.2694 129.227 20.1245 129.043 19.9349C128.862 19.7426 128.719 19.5057 128.616 19.2242C128.516 18.94 128.466 18.6139 128.466 18.246C128.466 17.9505 128.512 17.676 128.604 17.4224C128.696 17.166 128.827 16.943 128.997 16.7535C129.17 16.564 129.38 16.4149 129.628 16.3062C129.876 16.1975 130.155 16.1431 130.464 16.1431C130.723 16.1431 130.962 16.1863 131.179 16.2727C131.399 16.3563 131.589 16.479 131.748 16.6406C131.906 16.8023 132.03 17.0015 132.12 17.2384C132.212 17.4753 132.258 17.7457 132.258 18.0495C132.258 18.1749 132.244 18.2599 132.216 18.3045C132.188 18.3463 132.136 18.3672 132.061 18.3672L129.277 18.3672C129.285 18.6208 129.321 18.8424 129.386 19.0319C129.45 19.2187 129.537 19.3747 129.649 19.5002C129.763 19.6256 129.898 19.7189 130.054 19.7803C130.21 19.8416 130.385 19.8722 130.577 19.8722C130.758 19.8722 130.914 19.8513 131.045 19.8095C131.179 19.7677 131.293 19.7231 131.388 19.6757C131.486 19.6256 131.566 19.5796 131.631 19.5378C131.697 19.496 131.756 19.4751 131.806 19.4751C131.873 19.4751 131.925 19.5002 131.961 19.5503L132.195 19.8513ZM134.112 17.0252C134.249 16.7465 134.413 16.5277 134.605 16.3689C134.798 16.21 135.029 16.1306 135.299 16.1306C135.391 16.1306 135.478 16.1417 135.559 16.164C135.642 16.1835 135.715 16.2142 135.776 16.256L135.722 16.8705C135.702 16.9458 135.656 16.9834 135.584 16.9834C135.545 16.9834 135.486 16.9765 135.408 16.9625C135.33 16.9458 135.246 16.9374 135.157 16.9374C135.026 16.9374 134.911 16.9569 134.81 16.996C134.71 17.0322 134.619 17.0879 134.539 17.1632C134.46 17.2356 134.391 17.3262 134.33 17.4349C134.268 17.5408 134.211 17.6621 134.158 17.7986V20.4575L133.343 20.4575V16.21H133.811C133.9 16.21 133.96 16.2267 133.991 16.2602C134.024 16.2908 134.048 16.3466 134.062 16.4274L134.112 17.0252ZM137.379 16.7995C137.471 16.7019 137.567 16.6127 137.667 16.5319C137.768 16.4511 137.874 16.3828 137.985 16.3271C138.099 16.2685 138.221 16.2239 138.349 16.1933C138.48 16.1598 138.619 16.1431 138.767 16.1431C139.001 16.1431 139.206 16.1821 139.381 16.2602C139.56 16.3382 139.709 16.4483 139.829 16.5904C139.949 16.7298 140.039 16.8984 140.101 17.0963C140.162 17.2942 140.193 17.513 140.193 17.7527V20.4575H139.373V17.7527C139.373 17.4489 139.303 17.2134 139.164 17.0461C139.025 16.8761 138.812 16.7911 138.524 16.7911C138.315 16.7911 138.119 16.8413 137.935 16.9416C137.754 17.0392 137.585 17.1729 137.429 17.343V20.4575H136.614V16.21H137.103C137.217 16.21 137.288 16.2644 137.316 16.373L137.379 16.7995ZM143.312 16.1431C143.624 16.1431 143.905 16.1947 144.156 16.2978C144.41 16.3981 144.625 16.5445 144.8 16.7368C144.979 16.9263 145.115 17.1562 145.21 17.4266C145.305 17.6941 145.352 17.9951 145.352 18.3296C145.352 18.664 145.305 18.9664 145.21 19.2368C145.115 19.5071 144.979 19.7371 144.8 19.9266C144.625 20.1161 144.41 20.2624 144.156 20.3655C143.905 20.4659 143.624 20.516 143.312 20.516C142.997 20.516 142.713 20.4659 142.459 20.3655C142.208 20.2624 141.994 20.1161 141.815 19.9266C141.637 19.7371 141.499 19.5071 141.401 19.2368C141.307 18.9664 141.259 18.664 141.259 18.3296C141.259 17.9951 141.307 17.6941 141.401 17.4266C141.499 17.1562 141.637 16.9263 141.815 16.7368C141.994 16.5445 142.208 16.3981 142.459 16.2978C142.713 16.1947 142.997 16.1431 143.312 16.1431ZM143.312 19.8806C143.713 19.8806 144.013 19.7454 144.211 19.4751C144.409 19.2047 144.508 18.8243 144.508 18.3338C144.508 17.8432 144.409 17.4628 144.211 17.1924C144.013 16.9193 143.713 16.7827 143.312 16.7827C142.905 16.7827 142.601 16.9193 142.4 17.1924C142.203 17.4628 142.104 17.8432 142.104 18.3338C142.104 18.8243 142.203 19.2047 142.4 19.4751C142.601 19.7454 142.905 19.8806 143.312 19.8806ZM148.281 16.1431C148.593 16.1431 148.875 16.1947 149.126 16.2978C149.379 16.3981 149.594 16.5445 149.77 16.7368C149.948 16.9263 150.084 17.1562 150.179 17.4266C150.274 17.6941 150.321 17.9951 150.321 18.3296C150.321 18.664 150.274 18.9664 150.179 19.2368C150.084 19.5071 149.948 19.7371 149.77 19.9266C149.594 20.1161 149.379 20.2624 149.126 20.3655C148.875 20.4659 148.593 20.516 148.281 20.516C147.966 20.516 147.682 20.4659 147.428 20.3655C147.178 20.2624 146.963 20.1161 146.785 19.9266C146.606 19.7371 146.468 19.5071 146.371 19.2368C146.276 18.9664 146.229 18.664 146.229 18.3296C146.229 17.9951 146.276 17.6941 146.371 17.4266C146.468 17.1562 146.606 16.9263 146.785 16.7368C146.963 16.5445 147.178 16.3981 147.428 16.2978C147.682 16.1947 147.966 16.1431 148.281 16.1431ZM148.281 19.8806C148.683 19.8806 148.982 19.7454 149.18 19.4751C149.378 19.2047 149.477 18.8243 149.477 18.3338C149.477 17.8432 149.378 17.4628 149.18 17.1924C148.982 16.9193 148.683 16.7827 148.281 16.7827C147.874 16.7827 147.571 16.9193 147.37 17.1924C147.172 17.4628 147.073 17.8432 147.073 18.3338C147.073 18.8243 147.172 19.2047 147.37 19.4751C147.571 19.7454 147.874 19.8806 148.281 19.8806ZM152.205 16.7995C152.297 16.7019 152.394 16.6127 152.494 16.5319C152.594 16.4511 152.7 16.3828 152.812 16.3271C152.926 16.2685 153.047 16.2239 153.175 16.1933C153.306 16.1598 153.446 16.1431 153.593 16.1431C153.828 16.1431 154.032 16.1821 154.208 16.2602C154.386 16.3382 154.535 16.4483 154.655 16.5904C154.775 16.7298 154.866 16.8984 154.927 17.0963C154.988 17.2942 155.019 17.513 155.019 17.7527V20.4575H154.2V17.7527C154.2 17.4489 154.13 17.2134 153.991 17.0461C153.851 16.8761 153.638 16.7911 153.351 16.7911C153.142 16.7911 152.945 16.8413 152.762 16.9416C152.58 17.0392 152.412 17.1729 152.256 17.343V20.4575H151.44V16.21H151.93C152.044 16.21 152.115 16.2644 152.143 16.373L152.205 16.7995Z" fill="white"/>
<path d="M122.154 61.3335V62.1641H117.829V61.3335H119.523V56.0882C119.523 55.921 119.529 55.7482 119.54 55.5698L118.18 56.7237C118.128 56.7645 118.076 56.7906 118.024 56.8017C117.972 56.8129 117.922 56.8147 117.873 56.8073C117.829 56.7999 117.788 56.785 117.751 56.7627C117.717 56.7367 117.689 56.7107 117.667 56.6847L117.327 56.2108L119.724 54.1428H120.61V61.3335H122.154ZM123.719 61.5119C123.719 61.4115 123.737 61.3168 123.774 61.2276C123.812 61.1384 123.862 61.0604 123.925 60.9935C123.992 60.9266 124.07 60.8746 124.159 60.8374C124.248 60.7965 124.345 60.7761 124.449 60.7761C124.549 60.7761 124.644 60.7965 124.733 60.8374C124.822 60.8746 124.9 60.9266 124.967 60.9935C125.034 61.0604 125.086 61.1384 125.123 61.2276C125.164 61.3168 125.185 61.4115 125.185 61.5119C125.185 61.6159 125.164 61.7126 125.123 61.8017C125.086 61.8909 125.034 61.969 124.967 62.0359C124.9 62.1027 124.822 62.1548 124.733 62.1919C124.644 62.2291 124.549 62.2477 124.449 62.2477C124.345 62.2477 124.248 62.2291 124.159 62.1919C124.07 62.1548 123.992 62.1027 123.925 62.0359C123.862 61.969 123.812 61.8909 123.774 61.8017C123.737 61.7126 123.719 61.6159 123.719 61.5119ZM129.21 61.3893C129.463 61.3893 129.688 61.3539 129.885 61.2833C130.082 61.2127 130.249 61.1143 130.386 60.9879C130.524 60.8578 130.628 60.7036 130.698 60.5253C130.769 60.3469 130.804 60.1518 130.804 59.94C130.804 59.6798 130.762 59.4569 130.676 59.2711C130.591 59.0815 130.476 58.9273 130.331 58.8084C130.186 58.6858 130.017 58.5966 129.823 58.5409C129.63 58.4814 129.426 58.4517 129.21 58.4517C128.991 58.4517 128.785 58.4814 128.591 58.5409C128.398 58.5966 128.229 58.6858 128.084 58.8084C127.939 58.9273 127.824 59.0815 127.739 59.2711C127.657 59.4569 127.616 59.6798 127.616 59.94C127.616 60.1518 127.651 60.3469 127.722 60.5253C127.792 60.7036 127.897 60.8578 128.034 60.9879C128.172 61.1143 128.339 61.2127 128.536 61.2833C128.733 61.3539 128.957 61.3893 129.21 61.3893ZM129.21 54.9065C128.98 54.9065 128.777 54.9418 128.603 55.0124C128.432 55.0793 128.289 55.1722 128.173 55.2911C128.058 55.41 127.971 55.5475 127.911 55.7036C127.856 55.8597 127.828 56.0269 127.828 56.2053C127.828 56.3799 127.852 56.5509 127.9 56.7181C127.952 56.8816 128.032 57.0284 128.14 57.1585C128.251 57.2848 128.394 57.387 128.569 57.465C128.744 57.5431 128.957 57.5821 129.21 57.5821C129.459 57.5821 129.671 57.5431 129.846 57.465C130.024 57.387 130.167 57.2848 130.275 57.1585C130.386 57.0284 130.466 56.8816 130.515 56.7181C130.567 56.5509 130.593 56.3799 130.593 56.2053C130.593 56.0269 130.563 55.8597 130.503 55.7036C130.448 55.5475 130.362 55.41 130.247 55.2911C130.132 55.1722 129.987 55.0793 129.812 55.0124C129.641 54.9418 129.441 54.9065 129.21 54.9065ZM130.409 57.989C130.907 58.1377 131.284 58.3773 131.54 58.7081C131.8 59.0388 131.93 59.4569 131.93 59.9623C131.93 60.3116 131.863 60.6274 131.73 60.9099C131.6 61.1923 131.414 61.4338 131.172 61.6345C130.934 61.8315 130.648 61.9838 130.314 62.0916C129.979 62.1994 129.612 62.2532 129.21 62.2532C128.809 62.2532 128.441 62.1994 128.106 62.0916C127.772 61.9838 127.484 61.8315 127.242 61.6345C127.005 61.4338 126.819 61.1923 126.685 60.9099C126.555 60.6274 126.49 60.3116 126.49 59.9623C126.49 59.4569 126.618 59.0388 126.875 58.7081C127.135 58.3773 127.514 58.1377 128.012 57.989C127.599 57.8329 127.289 57.6007 127.081 57.2922C126.873 56.9801 126.769 56.6103 126.769 56.183C126.769 55.8857 126.826 55.6088 126.941 55.3524C127.06 55.0923 127.226 54.8675 127.438 54.678C127.653 54.4884 127.911 54.3398 128.212 54.232C128.513 54.1243 128.846 54.0704 129.21 54.0704C129.574 54.0704 129.907 54.1243 130.208 54.232C130.509 54.3398 130.765 54.4884 130.977 54.678C131.193 54.8675 131.358 55.0923 131.473 55.3524C131.592 55.6088 131.652 55.8857 131.652 56.183C131.652 56.6103 131.548 56.9801 131.34 57.2922C131.131 57.6007 130.821 57.8329 130.409 57.989ZM134.297 56.523C134.297 57.0172 134.431 57.3981 134.699 57.6657C134.966 57.9333 135.338 58.067 135.814 58.067C136.07 58.067 136.297 58.0262 136.494 57.9444C136.691 57.8589 136.856 57.7475 136.99 57.61C137.127 57.4688 137.231 57.3071 137.302 57.125C137.373 56.9392 137.408 56.746 137.408 56.5453C137.408 56.3038 137.369 56.0864 137.291 55.8931C137.216 55.6962 137.111 55.5308 136.973 55.397C136.836 55.2595 136.672 55.1555 136.483 55.0849C136.297 55.0105 136.091 54.9734 135.864 54.9734C135.63 54.9734 135.416 55.0124 135.223 55.0904C135.03 55.1648 134.864 55.2707 134.727 55.4082C134.589 55.5457 134.483 55.7092 134.409 55.8987C134.335 56.0882 134.297 56.2963 134.297 56.523ZM136.494 58.9979C136.639 58.8084 136.774 58.6226 136.901 58.4405C136.7 58.5929 136.475 58.7081 136.226 58.7861C135.981 58.8642 135.719 58.9032 135.44 58.9032C135.147 58.9032 134.864 58.853 134.593 58.7527C134.325 58.6523 134.088 58.5055 133.879 58.3123C133.675 58.1154 133.512 57.8738 133.389 57.5877C133.266 57.3015 133.205 56.9727 133.205 56.601C133.205 56.2517 133.27 55.9229 133.4 55.6144C133.53 55.306 133.712 55.0384 133.946 54.8117C134.184 54.5813 134.467 54.4011 134.794 54.271C135.124 54.1373 135.487 54.0704 135.881 54.0704C136.271 54.0704 136.624 54.1335 136.94 54.2599C137.259 54.3862 137.53 54.5646 137.753 54.795C137.976 55.0217 138.149 55.2948 138.272 55.6144C138.394 55.934 138.456 56.2852 138.456 56.6679C138.456 56.902 138.434 57.125 138.389 57.3368C138.348 57.5486 138.287 57.7549 138.205 57.9556C138.127 58.1562 138.03 58.355 137.915 58.552C137.804 58.7452 137.675 58.9441 137.53 59.1484L135.607 61.9077C135.555 61.982 135.479 62.0433 135.379 62.0916C135.282 62.1399 135.171 62.1641 135.044 62.1641H134.047L136.494 58.9979ZM145.472 58.1618C145.472 58.8604 145.396 59.4662 145.243 59.979C145.095 60.4918 144.888 60.9173 144.624 61.2555C144.364 61.5899 144.056 61.8389 143.699 62.0024C143.346 62.1659 142.965 62.2477 142.556 62.2477C142.148 62.2477 141.765 62.1659 141.408 62.0024C141.055 61.8389 140.749 61.5899 140.488 61.2555C140.228 60.9173 140.024 60.4918 139.875 59.979C139.727 59.4662 139.652 58.8604 139.652 58.1618C139.652 57.4632 139.727 56.8575 139.875 56.3446C140.024 55.8281 140.228 55.4026 140.488 55.0681C140.749 54.73 141.055 54.4791 141.408 54.3156C141.765 54.1521 142.148 54.0704 142.556 54.0704C142.965 54.0704 143.346 54.1521 143.699 54.3156C144.056 54.4791 144.364 54.73 144.624 55.0681C144.888 55.4026 145.095 55.8281 145.243 56.3446C145.396 56.8575 145.472 57.4632 145.472 58.1618ZM144.346 58.1618C144.346 57.5598 144.296 57.0563 144.195 56.6512C144.099 56.2462 143.967 55.921 143.8 55.6757C143.636 55.4267 143.446 55.2502 143.231 55.1462C143.015 55.0421 142.791 54.9901 142.556 54.9901C142.322 54.9901 142.098 55.0421 141.882 55.1462C141.666 55.2502 141.475 55.4267 141.308 55.6757C141.144 55.921 141.014 56.2462 140.918 56.6512C140.821 57.0563 140.773 57.5598 140.773 58.1618C140.773 58.7638 140.821 59.2674 140.918 59.6724C141.014 60.0775 141.144 60.4026 141.308 60.6479C141.475 60.8932 141.666 61.0678 141.882 61.1719C142.098 61.2759 142.322 61.3279 142.556 61.3279C142.791 61.3279 143.015 61.2759 143.231 61.1719C143.446 61.0678 143.636 60.8932 143.8 60.6479C143.967 60.4026 144.099 60.0775 144.195 59.6724C144.296 59.2674 144.346 58.7638 144.346 58.1618ZM152.211 56.4115C152.627 56.4115 153.003 56.4803 153.337 56.6178C153.675 56.7515 153.961 56.9466 154.195 57.2031C154.433 57.4557 154.615 57.7623 154.742 58.1228C154.868 58.4795 154.931 58.8809 154.931 59.3268C154.931 59.7727 154.868 60.1759 154.742 60.5364C154.615 60.8969 154.433 61.2034 154.195 61.4561C153.961 61.7088 153.675 61.9039 153.337 62.0414C153.003 62.1752 152.627 62.2421 152.211 62.2421C151.791 62.2421 151.412 62.1752 151.074 62.0414C150.739 61.9039 150.453 61.7088 150.215 61.4561C149.978 61.2034 149.794 60.8969 149.664 60.5364C149.537 60.1759 149.474 59.7727 149.474 59.3268C149.474 58.8809 149.537 58.4795 149.664 58.1228C149.794 57.7623 149.978 57.4557 150.215 57.2031C150.453 56.9466 150.739 56.7515 151.074 56.6178C151.412 56.4803 151.791 56.4115 152.211 56.4115ZM152.211 61.3948C152.746 61.3948 153.146 61.2146 153.409 60.8541C153.673 60.4937 153.805 59.9864 153.805 59.3324C153.805 58.6783 153.673 58.1711 153.409 57.8106C153.146 57.4465 152.746 57.2644 152.211 57.2644C151.668 57.2644 151.263 57.4465 150.996 57.8106C150.732 58.1711 150.6 58.6783 150.6 59.3324C150.6 59.9864 150.732 60.4937 150.996 60.8541C151.263 61.2146 151.668 61.3948 152.211 61.3948ZM157.379 57.5877C157.561 57.2161 157.781 56.9243 158.037 56.7125C158.293 56.5007 158.602 56.3948 158.962 56.3948C159.085 56.3948 159.2 56.4097 159.308 56.4394C159.419 56.4654 159.516 56.5063 159.598 56.562L159.525 57.3814C159.499 57.4818 159.438 57.5319 159.341 57.5319C159.289 57.5319 159.211 57.5226 159.107 57.5041C159.003 57.4818 158.892 57.4706 158.773 57.4706C158.598 57.4706 158.444 57.4966 158.31 57.5486C158.176 57.597 158.056 57.6713 157.948 57.7716C157.844 57.8682 157.751 57.989 157.669 58.1339C157.587 58.2751 157.511 58.4368 157.441 58.6189V62.1641H156.354V56.5007H156.978C157.097 56.5007 157.177 56.523 157.218 56.5676C157.262 56.6085 157.294 56.6828 157.312 56.7906L157.379 57.5877ZM164.1 57.872C163.922 57.6378 163.729 57.4743 163.521 57.3814C163.316 57.2885 163.086 57.2421 162.829 57.2421C162.332 57.2421 161.945 57.4223 161.67 57.7828C161.399 58.1395 161.263 58.6616 161.263 59.3491C161.263 59.7096 161.293 60.018 161.352 60.2744C161.415 60.5271 161.505 60.7352 161.62 60.8987C161.739 61.0585 161.884 61.1774 162.055 61.2555C162.226 61.3298 162.419 61.367 162.634 61.367C162.95 61.367 163.223 61.2964 163.454 61.1551C163.684 61.0139 163.9 60.8151 164.1 60.5587V57.872ZM165.193 53.9366V62.1641H164.535C164.383 62.1641 164.288 62.0916 164.251 61.9467L164.156 61.2945C163.915 61.5806 163.64 61.811 163.331 61.9857C163.026 62.1566 162.673 62.2421 162.272 62.2421C161.949 62.2421 161.655 62.1789 161.391 62.0526C161.131 61.9262 160.908 61.7423 160.722 61.5007C160.537 61.2555 160.394 60.9526 160.293 60.5921C160.193 60.2317 160.143 59.8173 160.143 59.3491C160.143 58.9292 160.198 58.539 160.31 58.1785C160.421 57.8181 160.583 57.5059 160.795 57.2421C161.007 56.9782 161.263 56.772 161.564 56.6233C161.865 56.471 162.205 56.3948 162.584 56.3948C162.926 56.3948 163.216 56.4505 163.454 56.562C163.695 56.6735 163.911 56.8314 164.1 57.0358V53.9366H165.193ZM170.67 58.7025C170.67 58.487 170.638 58.2882 170.575 58.1061C170.516 57.924 170.426 57.766 170.307 57.6323C170.189 57.4985 170.044 57.3944 169.873 57.3201C169.702 57.2458 169.505 57.2086 169.282 57.2086C168.825 57.2086 168.464 57.3405 168.2 57.6044C167.94 57.8682 167.775 58.2343 167.704 58.7025H170.67ZM171.567 61.3558C171.433 61.5119 171.279 61.6475 171.105 61.7627C170.93 61.8742 170.744 61.9653 170.547 62.0359C170.35 62.1065 170.146 62.1585 169.934 62.1919C169.726 62.2254 169.52 62.2421 169.315 62.2421C168.925 62.2421 168.563 62.1771 168.228 62.047C167.898 61.9132 167.61 61.72 167.364 61.4673C167.123 61.2109 166.933 60.895 166.796 60.5197C166.662 60.1406 166.595 59.7059 166.595 59.2153C166.595 58.8214 166.656 58.4554 166.779 58.1172C166.902 57.7753 167.076 57.478 167.303 57.2253C167.533 56.9727 167.814 56.7738 168.145 56.6289C168.475 56.484 168.847 56.4115 169.26 56.4115C169.605 56.4115 169.923 56.4691 170.213 56.5843C170.506 56.6958 170.759 56.8593 170.971 57.0748C171.183 57.2904 171.348 57.5561 171.467 57.872C171.59 58.1878 171.651 58.5483 171.651 58.9533C171.651 59.1206 171.632 59.2339 171.595 59.2934C171.558 59.3491 171.489 59.377 171.389 59.377H167.676C167.688 59.7151 167.736 60.0106 167.821 60.2633C167.907 60.5123 168.024 60.7204 168.173 60.8876C168.325 61.0548 168.505 61.1793 168.713 61.261C168.921 61.3428 169.154 61.3837 169.41 61.3837C169.652 61.3837 169.86 61.3558 170.034 61.3001C170.213 61.2443 170.365 61.1849 170.491 61.1217C170.621 61.0548 170.729 60.9935 170.815 60.9377C170.904 60.882 170.982 60.8541 171.049 60.8541C171.138 60.8541 171.207 60.8876 171.255 60.9545L171.567 61.3558ZM174.054 57.5877C174.236 57.2161 174.455 56.9243 174.712 56.7125C174.968 56.5007 175.276 56.3948 175.637 56.3948C175.76 56.3948 175.875 56.4097 175.983 56.4394C176.094 56.4654 176.191 56.5063 176.272 56.562L176.2 57.3814C176.174 57.4818 176.113 57.5319 176.016 57.5319C175.964 57.5319 175.886 57.5226 175.782 57.5041C175.678 57.4818 175.566 57.4706 175.447 57.4706C175.273 57.4706 175.119 57.4966 174.985 57.5486C174.851 57.597 174.73 57.6713 174.622 57.7716C174.518 57.8682 174.425 57.989 174.344 58.1339C174.262 58.2751 174.186 58.4368 174.115 58.6189V62.1641H173.028V56.5007H173.653C173.771 56.5007 173.851 56.523 173.892 56.5676C173.937 56.6085 173.968 56.6828 173.987 56.7906L174.054 57.5877ZM180.626 57.4762C180.596 57.5245 180.565 57.5598 180.531 57.5821C180.498 57.6007 180.455 57.61 180.403 57.61C180.344 57.61 180.277 57.5895 180.203 57.5486C180.132 57.5078 180.045 57.4632 179.941 57.4149C179.84 57.3666 179.721 57.322 179.584 57.2811C179.446 57.2402 179.283 57.2198 179.093 57.2198C178.937 57.2198 178.794 57.2402 178.664 57.2811C178.538 57.3183 178.43 57.3721 178.341 57.4427C178.252 57.5096 178.183 57.5914 178.134 57.688C178.086 57.7809 178.062 57.8812 178.062 57.989C178.062 58.1302 178.103 58.2473 178.185 58.3402C178.27 58.4331 178.38 58.513 178.514 58.5799C178.651 58.6468 178.805 58.7081 178.976 58.7638C179.151 58.8158 179.327 58.8716 179.506 58.931C179.688 58.9905 179.864 59.0592 180.035 59.1373C180.21 59.2116 180.364 59.3064 180.498 59.4216C180.635 59.5331 180.745 59.6687 180.827 59.8285C180.912 59.9883 180.955 60.1834 180.955 60.4138C180.955 60.6776 180.907 60.9229 180.81 61.1496C180.717 61.3725 180.578 61.5658 180.392 61.7293C180.21 61.8928 179.983 62.021 179.712 62.1139C179.441 62.2068 179.13 62.2532 178.781 62.2532C178.391 62.2532 178.03 62.1882 177.7 62.0582C177.369 61.9281 177.092 61.7627 176.869 61.5621L177.126 61.144C177.155 61.092 177.192 61.0529 177.237 61.0269C177.282 60.9972 177.341 60.9823 177.415 60.9823C177.486 60.9823 177.558 61.0084 177.633 61.0604C177.707 61.1124 177.796 61.17 177.9 61.2332C178.004 61.2926 178.131 61.3484 178.279 61.4004C178.428 61.4487 178.614 61.4729 178.837 61.4729C179.023 61.4729 179.184 61.4506 179.322 61.406C179.459 61.3577 179.573 61.2945 179.662 61.2165C179.755 61.1347 179.823 61.0418 179.868 60.9377C179.913 60.8337 179.935 60.7241 179.935 60.6089C179.935 60.4602 179.892 60.3376 179.807 60.241C179.725 60.1406 179.615 60.0552 179.478 59.9846C179.344 59.914 179.19 59.8526 179.015 59.8006C178.841 59.7486 178.662 59.6928 178.48 59.6334C178.298 59.5739 178.12 59.5052 177.945 59.4271C177.77 59.3491 177.614 59.2506 177.477 59.1317C177.343 59.0128 177.233 58.8679 177.148 58.6969C177.066 58.526 177.025 58.3179 177.025 58.0726C177.025 57.8534 177.07 57.6434 177.159 57.4427C177.252 57.2421 177.384 57.0656 177.555 56.9132C177.729 56.7608 177.943 56.6401 178.196 56.5509C178.452 56.458 178.744 56.4115 179.071 56.4115C179.446 56.4115 179.784 56.471 180.085 56.5899C180.39 56.7088 180.65 56.8723 180.866 57.0804L180.626 57.4762Z" fill="white"/>
</svg>
