<svg width="321" height="341" viewBox="0 0 321 341" fill="none" xmlns="http://www.w3.org/2000/svg">
<g filter="url(#filter0_d_0_11164)">
<rect x="16" y="16" width="289" height="309" rx="16" fill="white"/>
<circle cx="40.2539" cy="288.52" r="3.48066" fill="#CB77FF"/>
<path opacity="0.7" d="M54.2848 289.009L53.2963 286.424C53.2252 286.248 53.154 286.025 53.0828 285.756C53.0488 285.889 53.0132 286.012 52.9761 286.127C52.9421 286.241 52.908 286.343 52.874 286.433L51.8901 289.009H54.2848ZM56.2386 291.492H55.4775C55.3909 291.492 55.3197 291.47 55.264 291.427C55.2084 291.383 55.1681 291.328 55.1434 291.26L54.554 289.714H51.6163L51.0269 291.26C51.0053 291.318 50.965 291.373 50.9063 291.422C50.8475 291.469 50.7763 291.492 50.6928 291.492H49.9317L52.5863 284.827H53.584L56.2386 291.492ZM61.305 287.51V290.271C61.305 290.457 61.3499 290.596 61.4396 290.689C61.5294 290.779 61.6469 290.823 61.7923 290.823C61.8759 290.823 61.947 290.813 62.0058 290.791C62.0677 290.769 62.1203 290.746 62.1636 290.721C62.2069 290.693 62.2441 290.669 62.275 290.647C62.3059 290.625 62.3338 290.615 62.3585 290.615C62.3864 290.615 62.4096 290.622 62.4281 290.638C62.4467 290.65 62.4653 290.672 62.4838 290.703L62.753 291.139C62.6045 291.275 62.4266 291.38 62.2193 291.455C62.0151 291.529 61.8032 291.566 61.5835 291.566C61.2029 291.566 60.909 291.459 60.7017 291.246C60.4975 291.032 60.3954 290.728 60.3954 290.332V287.51H58.2838V291.492H57.3742V287.519L56.8823 287.459C56.8111 287.443 56.7523 287.419 56.7059 287.385C56.6626 287.347 56.641 287.295 56.641 287.227V286.851H57.3742V286.424C57.3742 286.155 57.4129 285.915 57.4902 285.705C57.5676 285.494 57.6774 285.316 57.8197 285.171C57.9652 285.022 58.1384 284.911 58.3395 284.837C58.5437 284.759 58.7727 284.721 59.0264 284.721C59.2399 284.721 59.4363 284.752 59.6158 284.814L59.5972 285.268C59.5941 285.309 59.5817 285.339 59.5601 285.361C59.5384 285.38 59.509 285.394 59.4719 285.403C59.4379 285.412 59.3946 285.418 59.342 285.421C59.2925 285.421 59.2383 285.421 59.1795 285.421C59.0403 285.421 58.9134 285.438 58.799 285.473C58.6845 285.507 58.587 285.564 58.5066 285.644C58.4262 285.725 58.3643 285.831 58.321 285.964C58.2776 286.094 58.256 286.257 58.256 286.452V286.851H60.4279L60.6368 285.435C60.646 285.383 60.6677 285.343 60.7017 285.315C60.7389 285.284 60.7853 285.268 60.841 285.268H61.305V286.851H62.6416V287.51H61.305ZM66.9545 288.61C66.9545 288.43 66.9282 288.265 66.8756 288.113C66.8261 287.962 66.7519 287.83 66.6529 287.719C66.5539 287.607 66.4332 287.521 66.2909 287.459C66.1486 287.397 65.9846 287.366 65.799 287.366C65.4184 287.366 65.1183 287.476 64.8986 287.695C64.6821 287.915 64.5444 288.22 64.4856 288.61H66.9545ZM67.7017 290.819C67.5903 290.949 67.4619 291.062 67.3165 291.158C67.1711 291.25 67.0164 291.326 66.8524 291.385C66.6885 291.444 66.5183 291.487 66.3419 291.515C66.1687 291.543 65.997 291.557 65.8268 291.557C65.5019 291.557 65.2003 291.503 64.9218 291.394C64.6465 291.283 64.4067 291.122 64.2025 290.912C64.0014 290.698 63.8436 290.435 63.7291 290.123C63.6178 289.807 63.5621 289.445 63.5621 289.037C63.5621 288.709 63.6131 288.404 63.7152 288.122C63.8173 287.838 63.9627 287.59 64.1515 287.38C64.3433 287.17 64.5769 287.004 64.8522 286.883C65.1276 286.763 65.437 286.702 65.7804 286.702C66.0681 286.702 66.3327 286.75 66.574 286.846C66.8184 286.939 67.0288 287.075 67.2052 287.255C67.3815 287.434 67.5192 287.655 67.6182 287.918C67.7203 288.181 67.7713 288.481 67.7713 288.819C67.7713 288.958 67.7559 289.052 67.7249 289.102C67.694 289.148 67.6368 289.171 67.5532 289.171H64.4624C64.4717 289.453 64.5119 289.699 64.5831 289.909C64.6542 290.116 64.7517 290.29 64.8754 290.429C65.0023 290.568 65.1523 290.672 65.3256 290.74C65.4989 290.808 65.6922 290.842 65.9057 290.842C66.1068 290.842 66.2801 290.819 66.4255 290.772C66.574 290.726 66.7008 290.676 66.806 290.624C66.9143 290.568 67.004 290.517 67.0752 290.471C67.1495 290.424 67.2144 290.401 67.2701 290.401C67.3444 290.401 67.4016 290.429 67.4418 290.485L67.7017 290.819ZM69.9847 287.682C70.1363 287.372 70.3188 287.129 70.5323 286.953C70.7458 286.777 71.0026 286.688 71.3027 286.688C71.4048 286.688 71.5007 286.701 71.5904 286.726C71.6833 286.747 71.7637 286.781 71.8318 286.828L71.7714 287.51C71.7498 287.593 71.6987 287.635 71.6183 287.635C71.575 287.635 71.51 287.627 71.4234 287.612C71.3367 287.593 71.2439 287.584 71.1449 287.584C70.9995 287.584 70.8711 287.606 70.7597 287.649C70.6483 287.689 70.5478 287.751 70.4581 287.835C70.3714 287.915 70.2941 288.016 70.226 288.136C70.158 288.254 70.0945 288.389 70.0358 288.54V291.492H69.1308V286.777H69.6506C69.7496 286.777 69.8161 286.795 69.8501 286.832C69.8872 286.866 69.9135 286.928 69.929 287.018L69.9847 287.682ZM73.7659 287.431C73.868 287.323 73.9747 287.224 74.0861 287.134C74.1975 287.044 74.3151 286.968 74.4388 286.907C74.5657 286.842 74.7002 286.792 74.8426 286.758C74.988 286.721 75.1427 286.702 75.3067 286.702C75.5665 286.702 75.7939 286.746 75.9889 286.832C76.1869 286.919 76.3524 287.041 76.4854 287.199C76.6185 287.354 76.719 287.541 76.7871 287.76C76.8552 287.98 76.8892 288.223 76.8892 288.489V291.492H75.9796V288.489C75.9796 288.152 75.9022 287.89 75.7475 287.705C75.5928 287.516 75.3562 287.422 75.0375 287.422C74.8054 287.422 74.5873 287.477 74.3831 287.589C74.182 287.697 73.9948 287.846 73.8216 288.034V291.492H72.9166V286.777H73.4596C73.5864 286.777 73.6653 286.837 73.6963 286.958L73.7659 287.431ZM80.5066 286.702C80.8532 286.702 81.1656 286.76 81.4441 286.874C81.7256 286.985 81.9639 287.148 82.1588 287.361C82.3568 287.572 82.5084 287.827 82.6136 288.127C82.7188 288.424 82.7714 288.758 82.7714 289.13C82.7714 289.501 82.7188 289.836 82.6136 290.137C82.5084 290.437 82.3568 290.692 82.1588 290.902C81.9639 291.113 81.7256 291.275 81.4441 291.39C81.1656 291.501 80.8532 291.557 80.5066 291.557C80.157 291.557 79.8414 291.501 79.5599 291.39C79.2814 291.275 79.0432 291.113 78.8452 290.902C78.6472 290.692 78.494 290.437 78.3858 290.137C78.2806 289.836 78.228 289.501 78.228 289.13C78.228 288.758 78.2806 288.424 78.3858 288.127C78.494 287.827 78.6472 287.572 78.8452 287.361C79.0432 287.148 79.2814 286.985 79.5599 286.874C79.8414 286.76 80.157 286.702 80.5066 286.702ZM80.5066 290.851C80.9522 290.851 81.2848 290.701 81.5044 290.401C81.7241 290.101 81.8339 289.679 81.8339 289.134C81.8339 288.59 81.7241 288.167 81.5044 287.867C81.2848 287.564 80.9522 287.412 80.5066 287.412C80.0549 287.412 79.7177 287.564 79.4949 287.867C79.2753 288.167 79.1654 288.59 79.1654 289.134C79.1654 289.679 79.2753 290.101 79.4949 290.401C79.7177 290.701 80.0549 290.851 80.5066 290.851ZM86.1778 286.702C86.5243 286.702 86.8368 286.76 87.1153 286.874C87.3968 286.985 87.6351 287.148 87.83 287.361C88.028 287.572 88.1796 287.827 88.2848 288.127C88.39 288.424 88.4426 288.758 88.4426 289.13C88.4426 289.501 88.39 289.836 88.2848 290.137C88.1796 290.437 88.028 290.692 87.83 290.902C87.6351 291.113 87.3968 291.275 87.1153 291.39C86.8368 291.501 86.5243 291.557 86.1778 291.557C85.8282 291.557 85.5126 291.501 85.2311 291.39C84.9526 291.275 84.7144 291.113 84.5164 290.902C84.3184 290.692 84.1652 290.437 84.0569 290.137C83.9517 289.836 83.8991 289.501 83.8991 289.13C83.8991 288.758 83.9517 288.424 84.0569 288.127C84.1652 287.827 84.3184 287.572 84.5164 287.361C84.7144 287.148 84.9526 286.985 85.2311 286.874C85.5126 286.76 85.8282 286.702 86.1778 286.702ZM86.1778 290.851C86.6233 290.851 86.9559 290.701 87.1756 290.401C87.3953 290.101 87.5051 289.679 87.5051 289.134C87.5051 288.59 87.3953 288.167 87.1756 287.867C86.9559 287.564 86.6233 287.412 86.1778 287.412C85.7261 287.412 85.3889 287.564 85.1661 287.867C84.9464 288.167 84.8366 288.59 84.8366 289.134C84.8366 289.679 84.9464 290.101 85.1661 290.401C85.3889 290.701 85.7261 290.851 86.1778 290.851ZM90.6888 287.431C90.7909 287.323 90.8976 287.224 91.009 287.134C91.1204 287.044 91.2379 286.968 91.3617 286.907C91.4886 286.842 91.6231 286.792 91.7655 286.758C91.9109 286.721 92.0656 286.702 92.2296 286.702C92.4894 286.702 92.7168 286.746 92.9118 286.832C93.1098 286.919 93.2753 287.041 93.4083 287.199C93.5414 287.354 93.6419 287.541 93.71 287.76C93.7781 287.98 93.8121 288.223 93.8121 288.489V291.492H92.9025V288.489C92.9025 288.152 92.8251 287.89 92.6704 287.705C92.5157 287.516 92.2791 287.422 91.9604 287.422C91.7283 287.422 91.5102 287.477 91.306 287.589C91.1049 287.697 90.9177 287.846 90.7445 288.034V291.492H89.8395V286.777H90.3825C90.5093 286.777 90.5882 286.837 90.6192 286.958L90.6888 287.431Z" fill="#121212"/>
<path opacity="0.7" d="M53.3102 306.109V303.366C53.3102 303.286 53.3133 303.198 53.3195 303.102C53.3257 303.006 53.335 302.908 53.3474 302.809L50.9248 306.109H53.3102ZM55.0413 306.109V306.582C55.0413 306.632 55.0258 306.674 54.9949 306.708C54.967 306.742 54.9222 306.759 54.8603 306.759H54.0342V308.508H53.3102V306.759H50.3586C50.2968 306.759 50.2426 306.742 50.1962 306.708C50.1529 306.671 50.125 306.626 50.1127 306.573L50.0291 306.151L53.2638 301.858H54.0342V306.109H55.0413ZM60.7982 305.185C60.7982 305.767 60.7348 306.271 60.608 306.698C60.4842 307.122 60.3141 307.473 60.0975 307.752C59.8809 308.03 59.6241 308.238 59.3271 308.374C59.0332 308.51 58.7176 308.578 58.3804 308.578C58.04 308.578 57.7229 308.51 57.429 308.374C57.1381 308.238 56.8844 308.03 56.6679 307.752C56.4513 307.473 56.2811 307.122 56.1574 306.698C56.0336 306.271 55.9717 305.767 55.9717 305.185C55.9717 304.604 56.0336 304.099 56.1574 303.673C56.2811 303.246 56.4513 302.893 56.6679 302.614C56.8844 302.333 57.1381 302.124 57.429 301.988C57.7229 301.852 58.04 301.784 58.3804 301.784C58.7176 301.784 59.0332 301.852 59.3271 301.988C59.6241 302.124 59.8809 302.333 60.0975 302.614C60.3141 302.893 60.4842 303.246 60.608 303.673C60.7348 304.099 60.7982 304.604 60.7982 305.185ZM59.9397 305.185C59.9397 304.678 59.8964 304.253 59.8097 303.909C59.7262 303.563 59.6117 303.284 59.4663 303.074C59.324 302.863 59.1585 302.713 58.9697 302.624C58.781 302.531 58.5845 302.484 58.3804 302.484C58.1762 302.484 57.9797 302.531 57.791 302.624C57.6022 302.713 57.4367 302.863 57.2944 303.074C57.1521 303.284 57.0376 303.563 56.951 303.909C56.8674 304.253 56.8257 304.678 56.8257 305.185C56.8257 305.693 56.8674 306.118 56.951 306.462C57.0376 306.805 57.1521 307.082 57.2944 307.292C57.4367 307.503 57.6022 307.654 57.791 307.747C57.9797 307.837 58.1762 307.882 58.3804 307.882C58.5845 307.882 58.781 307.837 58.9697 307.747C59.1585 307.654 59.324 307.503 59.4663 307.292C59.6117 307.082 59.7262 306.805 59.8097 306.462C59.8964 306.118 59.9397 305.693 59.9397 305.185ZM64.8149 303.464C64.8149 303.724 64.7747 303.957 64.6942 304.164C64.6138 304.369 64.5055 304.542 64.3694 304.684C64.2363 304.823 64.0801 304.93 63.9006 305.004C63.7243 305.079 63.5371 305.116 63.3391 305.116C63.1318 305.116 62.9384 305.079 62.759 305.004C62.5795 304.93 62.4233 304.823 62.2902 304.684C62.1603 304.542 62.0582 304.369 61.9839 304.164C61.9097 303.957 61.8726 303.724 61.8726 303.464C61.8726 303.198 61.9097 302.961 61.9839 302.754C62.0582 302.546 62.1603 302.372 62.2902 302.229C62.4233 302.087 62.5795 301.979 62.759 301.904C62.9384 301.83 63.1318 301.793 63.3391 301.793C63.5495 301.793 63.7444 301.83 63.9238 301.904C64.1033 301.979 64.2595 302.087 64.3926 302.229C64.5256 302.372 64.6292 302.546 64.7035 302.754C64.7778 302.961 64.8149 303.198 64.8149 303.464ZM64.1744 303.464C64.1744 303.259 64.1528 303.086 64.1095 302.944C64.0662 302.802 64.0058 302.686 63.9285 302.596C63.8542 302.503 63.766 302.437 63.6639 302.396C63.5618 302.356 63.4536 302.336 63.3391 302.336C63.2246 302.336 63.1179 302.356 63.0189 302.396C62.9199 302.437 62.8332 302.503 62.759 302.596C62.6847 302.686 62.6259 302.802 62.5826 302.944C62.5393 303.086 62.5176 303.259 62.5176 303.464C62.5176 303.665 62.5393 303.837 62.5826 303.979C62.6259 304.118 62.6847 304.233 62.759 304.322C62.8332 304.409 62.9199 304.472 63.0189 304.513C63.1179 304.55 63.2246 304.568 63.3391 304.568C63.4536 304.568 63.5618 304.55 63.6639 304.513C63.766 304.472 63.8542 304.409 63.9285 304.322C64.0058 304.233 64.0662 304.118 64.1095 303.979C64.1528 303.837 64.1744 303.665 64.1744 303.464ZM67.1678 301.997C67.1987 301.96 67.2343 301.928 67.2745 301.9C67.3179 301.872 67.3751 301.858 67.4463 301.858H68.0449L63.1813 308.374C63.1534 308.414 63.1179 308.446 63.0746 308.471C63.0312 308.496 62.9786 308.508 62.9168 308.508H62.3088L67.1678 301.997ZM68.4951 306.94C68.4951 307.2 68.4549 307.432 68.3744 307.636C68.294 307.84 68.1857 308.013 68.0496 308.156C67.9165 308.295 67.7603 308.402 67.5808 308.476C67.4045 308.55 67.2173 308.587 67.0193 308.587C66.8089 308.587 66.614 308.55 66.4345 308.476C66.2582 308.402 66.1035 308.295 65.9705 308.156C65.8405 308.013 65.7384 307.84 65.6642 307.636C65.5899 307.432 65.5528 307.2 65.5528 306.94C65.5528 306.674 65.5899 306.437 65.6642 306.23C65.7384 306.019 65.8405 305.843 65.9705 305.701C66.1035 305.558 66.2582 305.45 66.4345 305.376C66.614 305.301 66.8089 305.264 67.0193 305.264C67.2266 305.264 67.42 305.301 67.5994 305.376C67.782 305.45 67.9382 305.558 68.0681 305.701C68.2012 305.843 68.3048 306.019 68.3791 306.23C68.4564 306.437 68.4951 306.674 68.4951 306.94ZM67.8547 306.94C67.8547 306.736 67.833 306.562 67.7897 306.42C67.7464 306.275 67.686 306.157 67.6087 306.067C67.5344 305.978 67.4463 305.913 67.3442 305.872C67.2421 305.832 67.1338 305.812 67.0193 305.812C66.9048 305.812 66.7965 305.832 66.6944 305.872C66.5954 305.913 66.5088 305.978 66.4345 306.067C66.3603 306.157 66.3015 306.275 66.2582 306.42C66.218 306.562 66.1979 306.736 66.1979 306.94C66.1979 307.141 66.218 307.311 66.2582 307.45C66.3015 307.589 66.3603 307.704 66.4345 307.794C66.5088 307.88 66.5954 307.944 66.6944 307.984C66.7965 308.021 66.9048 308.04 67.0193 308.04C67.1338 308.04 67.2421 308.021 67.3442 307.984C67.4463 307.944 67.5344 307.88 67.6087 307.794C67.686 307.704 67.7464 307.589 67.7897 307.45C67.833 307.311 67.8547 307.141 67.8547 306.94Z" fill="#121212"/>
<circle cx="130.403" cy="288.52" r="3.48066" fill="#4EF4D6"/>
<path opacity="0.7" d="M145.028 290.689L145.023 291.492H140.893V284.827H145.023V285.63H141.886V287.742H144.411V288.517H141.886V290.689H145.028ZM150.345 286.777L148.433 291.492H147.616L145.704 286.777H146.451C146.522 286.777 146.581 286.794 146.627 286.828C146.674 286.862 146.705 286.905 146.72 286.958L147.848 289.853C147.888 289.974 147.922 290.095 147.95 290.215C147.981 290.333 148.009 290.451 148.034 290.568C148.058 290.451 148.086 290.333 148.117 290.215C148.148 290.098 148.185 289.977 148.229 289.853L149.37 286.958C149.389 286.905 149.421 286.862 149.468 286.828C149.514 286.794 149.57 286.777 149.635 286.777H150.345ZM154.439 288.61C154.439 288.43 154.412 288.265 154.36 288.113C154.31 287.962 154.236 287.83 154.137 287.719C154.038 287.607 153.917 287.521 153.775 287.459C153.633 287.397 153.469 287.366 153.283 287.366C152.903 287.366 152.602 287.476 152.383 287.695C152.166 287.915 152.029 288.22 151.97 288.61H154.439ZM155.186 290.819C155.075 290.949 154.946 291.062 154.801 291.158C154.655 291.25 154.501 291.326 154.337 291.385C154.173 291.444 154.002 291.487 153.826 291.515C153.653 291.543 153.481 291.557 153.311 291.557C152.986 291.557 152.684 291.503 152.406 291.394C152.131 291.283 151.891 291.122 151.687 290.912C151.486 290.698 151.328 290.435 151.213 290.123C151.102 289.807 151.046 289.445 151.046 289.037C151.046 288.709 151.097 288.404 151.199 288.122C151.301 287.838 151.447 287.59 151.636 287.38C151.827 287.17 152.061 287.004 152.336 286.883C152.612 286.763 152.921 286.702 153.265 286.702C153.552 286.702 153.817 286.75 154.058 286.846C154.303 286.939 154.513 287.075 154.689 287.255C154.866 287.434 155.003 287.655 155.102 287.918C155.204 288.181 155.256 288.481 155.256 288.819C155.256 288.958 155.24 289.052 155.209 289.102C155.178 289.148 155.121 289.171 155.037 289.171H151.947C151.956 289.453 151.996 289.699 152.067 289.909C152.138 290.116 152.236 290.29 152.36 290.429C152.486 290.568 152.637 290.672 152.81 290.74C152.983 290.808 153.176 290.842 153.39 290.842C153.591 290.842 153.764 290.819 153.91 290.772C154.058 290.726 154.185 290.676 154.29 290.624C154.398 290.568 154.488 290.517 154.559 290.471C154.634 290.424 154.699 290.401 154.754 290.401C154.829 290.401 154.886 290.429 154.926 290.485L155.186 290.819ZM157.464 287.431C157.566 287.323 157.673 287.224 157.784 287.134C157.896 287.044 158.013 286.968 158.137 286.907C158.264 286.842 158.399 286.792 158.541 286.758C158.686 286.721 158.841 286.702 159.005 286.702C159.265 286.702 159.492 286.746 159.687 286.832C159.885 286.919 160.051 287.041 160.184 287.199C160.317 287.354 160.417 287.541 160.485 287.76C160.554 287.98 160.588 288.223 160.588 288.489V291.492H159.678V288.489C159.678 288.152 159.601 287.89 159.446 287.705C159.291 287.516 159.055 287.422 158.736 287.422C158.504 287.422 158.286 287.477 158.081 287.589C157.88 287.697 157.693 287.846 157.52 288.034V291.492H156.615V286.777H157.158C157.285 286.777 157.364 286.837 157.395 286.958L157.464 287.431ZM163.142 286.777V291.492H162.237V286.777H163.142ZM163.314 285.319C163.314 285.403 163.297 285.483 163.263 285.561C163.229 285.635 163.182 285.701 163.124 285.76C163.068 285.816 163.001 285.861 162.924 285.895C162.847 285.926 162.766 285.941 162.683 285.941C162.599 285.941 162.52 285.926 162.446 285.895C162.372 285.861 162.305 285.816 162.247 285.76C162.191 285.701 162.146 285.635 162.112 285.561C162.081 285.483 162.066 285.403 162.066 285.319C162.066 285.233 162.081 285.152 162.112 285.078C162.146 285.001 162.191 284.934 162.247 284.878C162.305 284.82 162.372 284.775 162.446 284.744C162.52 284.71 162.599 284.693 162.683 284.693C162.766 284.693 162.847 284.71 162.924 284.744C163.001 284.775 163.068 284.82 163.124 284.878C163.182 284.934 163.229 285.001 163.263 285.078C163.297 285.152 163.314 285.233 163.314 285.319ZM165.688 287.431C165.791 287.323 165.897 287.224 166.009 287.134C166.12 287.044 166.238 286.968 166.361 286.907C166.488 286.842 166.623 286.792 166.765 286.758C166.911 286.721 167.065 286.702 167.229 286.702C167.489 286.702 167.717 286.746 167.911 286.832C168.109 286.919 168.275 287.041 168.408 287.199C168.541 287.354 168.642 287.541 168.71 287.76C168.778 287.98 168.812 288.223 168.812 288.489V291.492H167.902V288.489C167.902 288.152 167.825 287.89 167.67 287.705C167.515 287.516 167.279 287.422 166.96 287.422C166.728 287.422 166.51 287.477 166.306 287.589C166.105 287.697 165.917 287.846 165.744 288.034V291.492H164.839V286.777H165.382C165.509 286.777 165.588 286.837 165.619 286.958L165.688 287.431ZM172.077 289.139C172.237 289.139 172.378 289.117 172.499 289.074C172.623 289.031 172.725 288.97 172.805 288.893C172.889 288.812 172.951 288.716 172.991 288.605C173.034 288.494 173.056 288.372 173.056 288.238C173.056 287.966 172.972 287.75 172.805 287.589C172.641 287.425 172.398 287.343 172.077 287.343C171.758 287.343 171.515 287.425 171.348 287.589C171.184 287.75 171.102 287.966 171.102 288.238C171.102 288.372 171.122 288.494 171.162 288.605C171.206 288.713 171.267 288.808 171.348 288.888C171.431 288.966 171.534 289.027 171.654 289.074C171.778 289.117 171.919 289.139 172.077 289.139ZM173.52 291.738C173.52 291.626 173.489 291.538 173.427 291.473C173.365 291.405 173.28 291.353 173.172 291.315C173.067 291.275 172.943 291.247 172.801 291.232C172.658 291.213 172.508 291.199 172.35 291.19C172.196 291.181 172.036 291.173 171.872 291.167C171.708 291.158 171.551 291.142 171.399 291.12C171.238 291.201 171.105 291.298 171 291.413C170.898 291.527 170.847 291.662 170.847 291.817C170.847 291.916 170.871 292.008 170.921 292.095C170.974 292.182 171.052 292.256 171.158 292.318C171.266 292.383 171.401 292.432 171.561 292.466C171.725 292.503 171.92 292.522 172.146 292.522C172.369 292.522 172.565 292.502 172.736 292.462C172.906 292.425 173.048 292.37 173.163 292.299C173.28 292.231 173.368 292.149 173.427 292.053C173.489 291.957 173.52 291.852 173.52 291.738ZM174.439 286.953V287.292C174.439 287.403 174.369 287.473 174.23 287.501L173.724 287.575C173.767 287.671 173.801 287.773 173.826 287.881C173.851 287.986 173.863 288.098 173.863 288.215C173.863 288.447 173.818 288.658 173.729 288.846C173.639 289.032 173.515 289.191 173.357 289.324C173.2 289.457 173.011 289.56 172.791 289.631C172.575 289.702 172.336 289.737 172.077 289.737C171.863 289.737 171.664 289.714 171.478 289.668C171.385 289.724 171.314 289.785 171.264 289.853C171.218 289.918 171.195 289.983 171.195 290.048C171.195 290.157 171.24 290.237 171.329 290.29C171.422 290.342 171.541 290.381 171.687 290.406C171.835 290.427 172.004 290.441 172.193 290.448C172.384 290.454 172.578 290.465 172.773 290.48C172.971 290.492 173.164 290.517 173.353 290.554C173.545 290.588 173.713 290.646 173.859 290.726C174.007 290.803 174.126 290.912 174.216 291.051C174.309 291.187 174.355 291.365 174.355 291.585C174.355 291.789 174.304 291.987 174.202 292.179C174.103 292.37 173.958 292.541 173.766 292.689C173.574 292.838 173.34 292.957 173.065 293.046C172.79 293.136 172.477 293.181 172.128 293.181C171.778 293.181 171.473 293.147 171.213 293.079C170.957 293.011 170.742 292.92 170.568 292.805C170.398 292.691 170.27 292.558 170.183 292.406C170.1 292.254 170.058 292.097 170.058 291.933C170.058 291.704 170.129 291.51 170.271 291.353C170.414 291.192 170.61 291.066 170.861 290.977C170.725 290.915 170.616 290.831 170.536 290.726C170.455 290.618 170.415 290.475 170.415 290.299C170.415 290.231 170.427 290.161 170.452 290.09C170.477 290.016 170.514 289.943 170.564 289.872C170.616 289.798 170.68 289.728 170.754 289.663C170.831 289.598 170.919 289.539 171.018 289.487C170.786 289.357 170.604 289.185 170.471 288.972C170.338 288.755 170.271 288.503 170.271 288.215C170.271 287.983 170.316 287.774 170.406 287.589C170.496 287.403 170.619 287.244 170.777 287.111C170.938 286.978 171.128 286.876 171.348 286.804C171.571 286.733 171.814 286.698 172.077 286.698C172.485 286.698 172.836 286.783 173.13 286.953H174.439Z" fill="#121212"/>
<path opacity="0.7" d="M140.675 303.659C140.718 303.355 140.802 303.088 140.925 302.856C141.049 302.621 141.205 302.424 141.394 302.266C141.586 302.109 141.804 301.989 142.048 301.909C142.296 301.825 142.562 301.784 142.847 301.784C143.128 301.784 143.388 301.824 143.626 301.904C143.865 301.985 144.069 302.099 144.239 302.248C144.412 302.396 144.547 302.576 144.643 302.786C144.739 302.997 144.787 303.23 144.787 303.487C144.787 303.697 144.759 303.886 144.703 304.053C144.65 304.217 144.573 304.361 144.471 304.485C144.372 304.608 144.251 304.714 144.109 304.8C143.967 304.887 143.807 304.958 143.631 305.014C144.064 305.125 144.389 305.317 144.606 305.589C144.825 305.858 144.935 306.196 144.935 306.601C144.935 306.907 144.876 307.183 144.759 307.427C144.644 307.671 144.486 307.88 144.285 308.054C144.084 308.224 143.849 308.355 143.58 308.448C143.314 308.538 143.028 308.583 142.721 308.583C142.369 308.583 142.067 308.539 141.816 308.453C141.566 308.363 141.354 308.241 141.181 308.086C141.007 307.931 140.865 307.749 140.754 307.538C140.642 307.325 140.548 307.094 140.471 306.847L140.828 306.698C140.921 306.658 141.01 306.647 141.097 306.666C141.187 306.684 141.252 306.736 141.292 306.819C141.332 306.906 141.382 307.009 141.441 307.13C141.502 307.251 141.586 307.367 141.691 307.478C141.796 307.589 141.929 307.684 142.09 307.761C142.254 307.838 142.461 307.877 142.712 307.877C142.944 307.877 143.147 307.84 143.32 307.766C143.496 307.688 143.642 307.589 143.756 307.469C143.874 307.348 143.962 307.214 144.021 307.065C144.08 306.917 144.109 306.77 144.109 306.624C144.109 306.445 144.086 306.281 144.039 306.132C143.993 305.984 143.906 305.855 143.78 305.747C143.653 305.639 143.478 305.554 143.255 305.492C143.035 305.43 142.752 305.399 142.406 305.399V304.8C142.69 304.797 142.932 304.766 143.13 304.707C143.331 304.649 143.493 304.568 143.617 304.466C143.744 304.364 143.835 304.242 143.891 304.099C143.95 303.957 143.979 303.799 143.979 303.626C143.979 303.434 143.948 303.267 143.886 303.125C143.827 302.983 143.745 302.865 143.64 302.772C143.535 302.679 143.41 302.61 143.264 302.563C143.122 302.517 142.967 302.494 142.8 302.494C142.633 302.494 142.477 302.519 142.332 302.568C142.189 302.618 142.062 302.687 141.951 302.777C141.843 302.863 141.751 302.967 141.677 303.088C141.603 303.208 141.55 303.341 141.519 303.487C141.479 303.595 141.428 303.668 141.366 303.705C141.307 303.739 141.221 303.748 141.106 303.733L140.675 303.659ZM150.423 307.724C150.513 307.724 150.584 307.75 150.636 307.803C150.689 307.856 150.715 307.924 150.715 308.007V308.508H146.279V308.225C146.279 308.166 146.291 308.106 146.316 308.044C146.34 307.982 146.379 307.925 146.432 307.873L148.562 305.733C148.738 305.554 148.899 305.382 149.045 305.218C149.19 305.051 149.314 304.884 149.416 304.717C149.518 304.55 149.597 304.381 149.652 304.211C149.708 304.038 149.736 303.854 149.736 303.659C149.736 303.464 149.705 303.294 149.643 303.148C149.581 303 149.496 302.877 149.388 302.781C149.283 302.686 149.157 302.614 149.012 302.568C148.867 302.519 148.71 302.494 148.543 302.494C148.373 302.494 148.217 302.519 148.075 302.568C147.932 302.618 147.805 302.687 147.694 302.777C147.586 302.863 147.494 302.967 147.42 303.088C147.346 303.208 147.293 303.341 147.262 303.487C147.225 303.595 147.174 303.668 147.109 303.705C147.047 303.739 146.959 303.748 146.845 303.733L146.413 303.659C146.456 303.355 146.54 303.088 146.664 302.856C146.791 302.621 146.948 302.424 147.137 302.266C147.329 302.109 147.547 301.989 147.791 301.909C148.036 301.825 148.3 301.784 148.585 301.784C148.867 301.784 149.13 301.825 149.374 301.909C149.618 301.993 149.83 302.115 150.01 302.276C150.189 302.433 150.33 302.627 150.432 302.856C150.534 303.085 150.585 303.345 150.585 303.635C150.585 303.883 150.548 304.113 150.474 304.327C150.4 304.537 150.299 304.738 150.172 304.93C150.045 305.122 149.898 305.309 149.731 305.492C149.567 305.674 149.393 305.858 149.207 306.044L147.453 307.835C147.576 307.801 147.702 307.775 147.829 307.757C147.955 307.735 148.078 307.724 148.195 307.724H150.423ZM154.964 303.464C154.964 303.724 154.924 303.957 154.843 304.164C154.763 304.369 154.655 304.542 154.518 304.684C154.385 304.823 154.229 304.93 154.05 305.004C153.873 305.079 153.686 305.116 153.488 305.116C153.281 305.116 153.087 305.079 152.908 305.004C152.729 304.93 152.572 304.823 152.439 304.684C152.309 304.542 152.207 304.369 152.133 304.164C152.059 303.957 152.022 303.724 152.022 303.464C152.022 303.198 152.059 302.961 152.133 302.754C152.207 302.546 152.309 302.372 152.439 302.229C152.572 302.087 152.729 301.979 152.908 301.904C153.087 301.83 153.281 301.793 153.488 301.793C153.699 301.793 153.893 301.83 154.073 301.904C154.252 301.979 154.409 302.087 154.542 302.229C154.675 302.372 154.778 302.546 154.853 302.754C154.927 302.961 154.964 303.198 154.964 303.464ZM154.323 303.464C154.323 303.259 154.302 303.086 154.259 302.944C154.215 302.802 154.155 302.686 154.078 302.596C154.003 302.503 153.915 302.437 153.813 302.396C153.711 302.356 153.603 302.336 153.488 302.336C153.374 302.336 153.267 302.356 153.168 302.396C153.069 302.437 152.982 302.503 152.908 302.596C152.834 302.686 152.775 302.802 152.732 302.944C152.688 303.086 152.667 303.259 152.667 303.464C152.667 303.665 152.688 303.837 152.732 303.979C152.775 304.118 152.834 304.233 152.908 304.322C152.982 304.409 153.069 304.472 153.168 304.513C153.267 304.55 153.374 304.568 153.488 304.568C153.603 304.568 153.711 304.55 153.813 304.513C153.915 304.472 154.003 304.409 154.078 304.322C154.155 304.233 154.215 304.118 154.259 303.979C154.302 303.837 154.323 303.665 154.323 303.464ZM157.317 301.997C157.348 301.96 157.383 301.928 157.424 301.9C157.467 301.872 157.524 301.858 157.595 301.858H158.194L153.33 308.374C153.302 308.414 153.267 308.446 153.224 308.471C153.18 308.496 153.128 308.508 153.066 308.508H152.458L157.317 301.997ZM158.644 306.94C158.644 307.2 158.604 307.432 158.523 307.636C158.443 307.84 158.335 308.013 158.199 308.156C158.066 308.295 157.909 308.402 157.73 308.476C157.554 308.55 157.366 308.587 157.168 308.587C156.958 308.587 156.763 308.55 156.584 308.476C156.407 308.402 156.253 308.295 156.12 308.156C155.99 308.013 155.887 307.84 155.813 307.636C155.739 307.432 155.702 307.2 155.702 306.94C155.702 306.674 155.739 306.437 155.813 306.23C155.887 306.019 155.99 305.843 156.12 305.701C156.253 305.558 156.407 305.45 156.584 305.376C156.763 305.301 156.958 305.264 157.168 305.264C157.376 305.264 157.569 305.301 157.748 305.376C157.931 305.45 158.087 305.558 158.217 305.701C158.35 305.843 158.454 306.019 158.528 306.23C158.605 306.437 158.644 306.674 158.644 306.94ZM158.004 306.94C158.004 306.736 157.982 306.562 157.939 306.42C157.895 306.275 157.835 306.157 157.758 306.067C157.683 305.978 157.595 305.913 157.493 305.872C157.391 305.832 157.283 305.812 157.168 305.812C157.054 305.812 156.946 305.832 156.843 305.872C156.744 305.913 156.658 305.978 156.584 306.067C156.509 306.157 156.451 306.275 156.407 306.42C156.367 306.562 156.347 306.736 156.347 306.94C156.347 307.141 156.367 307.311 156.407 307.45C156.451 307.589 156.509 307.704 156.584 307.794C156.658 307.88 156.744 307.944 156.843 307.984C156.946 308.021 157.054 308.04 157.168 308.04C157.283 308.04 157.391 308.021 157.493 307.984C157.595 307.944 157.683 307.88 157.758 307.794C157.835 307.704 157.895 307.589 157.939 307.45C157.982 307.311 158.004 307.141 158.004 306.94Z" fill="#121212"/>
<circle cx="225.055" cy="288.52" r="3.48066" fill="#FFA59F"/>
<path opacity="0.7" d="M242.552 284.827V291.492H241.689V286.749C241.689 286.678 241.691 286.602 241.694 286.521C241.7 286.441 241.706 286.359 241.712 286.275L239.494 290.345C239.417 290.497 239.298 290.573 239.137 290.573H238.998C238.837 290.573 238.719 290.497 238.645 290.345L236.385 286.261C236.403 286.435 236.413 286.597 236.413 286.749V291.492H235.545V284.827H236.278C236.365 284.827 236.431 284.837 236.478 284.855C236.527 284.871 236.573 284.917 236.617 284.994L238.844 288.986C238.888 289.066 238.928 289.151 238.965 289.241C239.002 289.331 239.038 289.42 239.072 289.51C239.137 289.328 239.213 289.151 239.299 288.981L241.485 284.994C241.525 284.917 241.569 284.871 241.615 284.855C241.665 284.837 241.733 284.827 241.819 284.827H242.552ZM246.267 286.702C246.613 286.702 246.926 286.76 247.204 286.874C247.486 286.985 247.724 287.148 247.919 287.361C248.117 287.572 248.268 287.827 248.374 288.127C248.479 288.424 248.531 288.758 248.531 289.13C248.531 289.501 248.479 289.836 248.374 290.137C248.268 290.437 248.117 290.692 247.919 290.902C247.724 291.113 247.486 291.275 247.204 291.39C246.926 291.501 246.613 291.557 246.267 291.557C245.917 291.557 245.601 291.501 245.32 291.39C245.041 291.275 244.803 291.113 244.605 290.902C244.407 290.692 244.254 290.437 244.146 290.137C244.041 289.836 243.988 289.501 243.988 289.13C243.988 288.758 244.041 288.424 244.146 288.127C244.254 287.827 244.407 287.572 244.605 287.361C244.803 287.148 245.041 286.985 245.32 286.874C245.601 286.76 245.917 286.702 246.267 286.702ZM246.267 290.851C246.712 290.851 247.045 290.701 247.264 290.401C247.484 290.101 247.594 289.679 247.594 289.134C247.594 288.59 247.484 288.167 247.264 287.867C247.045 287.564 246.712 287.412 246.267 287.412C245.815 287.412 245.478 287.564 245.255 287.867C245.035 288.167 244.925 288.59 244.925 289.134C244.925 289.679 245.035 290.101 245.255 290.401C245.478 290.701 245.815 290.851 246.267 290.851ZM250.782 287.682C250.934 287.372 251.116 287.129 251.33 286.953C251.543 286.777 251.8 286.688 252.1 286.688C252.202 286.688 252.298 286.701 252.388 286.726C252.481 286.747 252.561 286.781 252.629 286.828L252.569 287.51C252.547 287.593 252.496 287.635 252.416 287.635C252.373 287.635 252.308 287.627 252.221 287.612C252.134 287.593 252.041 287.584 251.942 287.584C251.797 287.584 251.669 287.606 251.557 287.649C251.446 287.689 251.345 287.751 251.256 287.835C251.169 287.915 251.092 288.016 251.024 288.136C250.956 288.254 250.892 288.389 250.833 288.54V291.492H249.928V286.777H250.448C250.547 286.777 250.614 286.795 250.648 286.832C250.685 286.866 250.711 286.928 250.727 287.018L250.782 287.682ZM254.563 287.431C254.666 287.323 254.772 287.224 254.884 287.134C254.995 287.044 255.113 286.968 255.236 286.907C255.363 286.842 255.498 286.792 255.64 286.758C255.786 286.721 255.94 286.702 256.104 286.702C256.364 286.702 256.592 286.746 256.786 286.832C256.984 286.919 257.15 287.041 257.283 287.199C257.416 287.354 257.517 287.541 257.585 287.76C257.653 287.98 257.687 288.223 257.687 288.489V291.492H256.777V288.489C256.777 288.152 256.7 287.89 256.545 287.705C256.39 287.516 256.154 287.422 255.835 287.422C255.603 287.422 255.385 287.477 255.181 287.589C254.98 287.697 254.792 287.846 254.619 288.034V291.492H253.714V286.777H254.257C254.384 286.777 254.463 286.837 254.494 286.958L254.563 287.431ZM260.241 286.777V291.492H259.336V286.777H260.241ZM260.413 285.319C260.413 285.403 260.396 285.483 260.362 285.561C260.328 285.635 260.282 285.701 260.223 285.76C260.167 285.816 260.101 285.861 260.023 285.895C259.946 285.926 259.866 285.941 259.782 285.941C259.698 285.941 259.62 285.926 259.545 285.895C259.471 285.861 259.405 285.816 259.346 285.76C259.29 285.701 259.245 285.635 259.211 285.561C259.18 285.483 259.165 285.403 259.165 285.319C259.165 285.233 259.18 285.152 259.211 285.078C259.245 285.001 259.29 284.934 259.346 284.878C259.405 284.82 259.471 284.775 259.545 284.744C259.62 284.71 259.698 284.693 259.782 284.693C259.866 284.693 259.946 284.71 260.023 284.744C260.101 284.775 260.167 284.82 260.223 284.878C260.282 284.934 260.328 285.001 260.362 285.078C260.396 285.152 260.413 285.233 260.413 285.319ZM262.788 287.431C262.89 287.323 262.997 287.224 263.108 287.134C263.219 287.044 263.337 286.968 263.461 286.907C263.587 286.842 263.722 286.792 263.864 286.758C264.01 286.721 264.165 286.702 264.328 286.702C264.588 286.702 264.816 286.746 265.011 286.832C265.209 286.919 265.374 287.041 265.507 287.199C265.64 287.354 265.741 287.541 265.809 287.76C265.877 287.98 265.911 288.223 265.911 288.489V291.492H265.001V288.489C265.001 288.152 264.924 287.89 264.769 287.705C264.615 287.516 264.378 287.422 264.059 287.422C263.827 287.422 263.609 287.477 263.405 287.589C263.204 287.697 263.017 287.846 262.843 288.034V291.492H261.938V286.777H262.481C262.608 286.777 262.687 286.837 262.718 286.958L262.788 287.431ZM269.176 289.139C269.337 289.139 269.477 289.117 269.598 289.074C269.722 289.031 269.824 288.97 269.904 288.893C269.988 288.812 270.05 288.716 270.09 288.605C270.133 288.494 270.155 288.372 270.155 288.238C270.155 287.966 270.071 287.75 269.904 287.589C269.74 287.425 269.498 287.343 269.176 287.343C268.857 287.343 268.614 287.425 268.447 287.589C268.283 287.75 268.201 287.966 268.201 288.238C268.201 288.372 268.221 288.494 268.262 288.605C268.305 288.713 268.367 288.808 268.447 288.888C268.531 288.966 268.633 289.027 268.753 289.074C268.877 289.117 269.018 289.139 269.176 289.139ZM270.619 291.738C270.619 291.626 270.588 291.538 270.526 291.473C270.464 291.405 270.379 291.353 270.271 291.315C270.166 291.275 270.042 291.247 269.9 291.232C269.757 291.213 269.607 291.199 269.45 291.19C269.295 291.181 269.136 291.173 268.972 291.167C268.808 291.158 268.65 291.142 268.498 291.12C268.337 291.201 268.204 291.298 268.099 291.413C267.997 291.527 267.946 291.662 267.946 291.817C267.946 291.916 267.971 292.008 268.02 292.095C268.073 292.182 268.152 292.256 268.257 292.318C268.365 292.383 268.5 292.432 268.661 292.466C268.825 292.503 269.02 292.522 269.245 292.522C269.468 292.522 269.665 292.502 269.835 292.462C270.005 292.425 270.147 292.37 270.262 292.299C270.379 292.231 270.467 292.149 270.526 292.053C270.588 291.957 270.619 291.852 270.619 291.738ZM271.538 286.953V287.292C271.538 287.403 271.468 287.473 271.329 287.501L270.823 287.575C270.867 287.671 270.901 287.773 270.925 287.881C270.95 287.986 270.963 288.098 270.963 288.215C270.963 288.447 270.918 288.658 270.828 288.846C270.738 289.032 270.614 289.191 270.457 289.324C270.299 289.457 270.11 289.56 269.89 289.631C269.674 289.702 269.436 289.737 269.176 289.737C268.962 289.737 268.763 289.714 268.577 289.668C268.484 289.724 268.413 289.785 268.364 289.853C268.317 289.918 268.294 289.983 268.294 290.048C268.294 290.157 268.339 290.237 268.429 290.29C268.521 290.342 268.641 290.381 268.786 290.406C268.934 290.427 269.103 290.441 269.292 290.448C269.484 290.454 269.677 290.465 269.872 290.48C270.07 290.492 270.263 290.517 270.452 290.554C270.644 290.588 270.812 290.646 270.958 290.726C271.106 290.803 271.225 290.912 271.315 291.051C271.408 291.187 271.454 291.365 271.454 291.585C271.454 291.789 271.403 291.987 271.301 292.179C271.202 292.37 271.057 292.541 270.865 292.689C270.673 292.838 270.44 292.957 270.164 293.046C269.889 293.136 269.576 293.181 269.227 293.181C268.877 293.181 268.572 293.147 268.313 293.079C268.056 293.011 267.841 292.92 267.667 292.805C267.497 292.691 267.369 292.558 267.282 292.406C267.199 292.254 267.157 292.097 267.157 291.933C267.157 291.704 267.228 291.51 267.37 291.353C267.513 291.192 267.709 291.066 267.96 290.977C267.824 290.915 267.715 290.831 267.635 290.726C267.555 290.618 267.514 290.475 267.514 290.299C267.514 290.231 267.527 290.161 267.551 290.09C267.576 290.016 267.613 289.943 267.663 289.872C267.715 289.798 267.779 289.728 267.853 289.663C267.93 289.598 268.019 289.539 268.118 289.487C267.886 289.357 267.703 289.185 267.57 288.972C267.437 288.755 267.37 288.503 267.37 288.215C267.37 287.983 267.415 287.774 267.505 287.589C267.595 287.403 267.719 287.244 267.876 287.111C268.037 286.978 268.227 286.876 268.447 286.804C268.67 286.733 268.913 286.698 269.176 286.698C269.584 286.698 269.935 286.783 270.229 286.953H271.538Z" fill="#121212"/>
<path opacity="0.7" d="M239.304 307.724C239.394 307.724 239.465 307.75 239.517 307.803C239.57 307.856 239.596 307.924 239.596 308.007V308.508H235.16V308.225C235.16 308.166 235.172 308.106 235.197 308.044C235.221 307.982 235.26 307.925 235.313 307.873L237.443 305.733C237.619 305.554 237.78 305.382 237.926 305.218C238.071 305.051 238.195 304.884 238.297 304.717C238.399 304.55 238.478 304.381 238.533 304.211C238.589 304.038 238.617 303.854 238.617 303.659C238.617 303.464 238.586 303.294 238.524 303.148C238.462 303 238.377 302.877 238.269 302.781C238.164 302.686 238.038 302.614 237.893 302.568C237.748 302.519 237.591 302.494 237.424 302.494C237.254 302.494 237.098 302.519 236.956 302.568C236.813 302.618 236.686 302.687 236.575 302.777C236.467 302.863 236.375 302.967 236.301 303.088C236.227 303.208 236.174 303.341 236.143 303.487C236.106 303.595 236.055 303.668 235.99 303.705C235.928 303.739 235.84 303.748 235.726 303.733L235.294 303.659C235.337 303.355 235.421 303.088 235.545 302.856C235.672 302.621 235.829 302.424 236.018 302.266C236.21 302.109 236.428 301.989 236.672 301.909C236.917 301.825 237.181 301.784 237.466 301.784C237.748 301.784 238.011 301.825 238.255 301.909C238.499 301.993 238.711 302.115 238.891 302.276C239.07 302.433 239.211 302.627 239.313 302.856C239.415 303.085 239.466 303.345 239.466 303.635C239.466 303.883 239.429 304.113 239.355 304.327C239.281 304.537 239.18 304.738 239.053 304.93C238.926 305.122 238.779 305.309 238.612 305.492C238.448 305.674 238.274 305.858 238.088 306.044L236.334 307.835C236.457 307.801 236.583 307.775 236.71 307.757C236.836 307.735 236.959 307.724 237.076 307.724H239.304ZM243.186 307.924C243.402 307.924 243.596 307.894 243.766 307.835C243.939 307.774 244.085 307.688 244.202 307.58C244.323 307.469 244.414 307.337 244.476 307.186C244.541 307.031 244.574 306.861 244.574 306.675C244.574 306.446 244.535 306.251 244.458 306.09C244.383 305.926 244.281 305.793 244.151 305.691C244.024 305.589 243.877 305.515 243.71 305.469C243.543 305.419 243.368 305.394 243.186 305.394C243.003 305.394 242.829 305.419 242.662 305.469C242.494 305.515 242.346 305.589 242.216 305.691C242.089 305.793 241.987 305.926 241.91 306.09C241.835 306.251 241.798 306.446 241.798 306.675C241.798 306.861 241.829 307.031 241.891 307.186C241.956 307.337 242.047 307.469 242.165 307.58C242.286 307.688 242.431 307.774 242.601 307.835C242.774 307.894 242.969 307.924 243.186 307.924ZM243.186 302.424C242.988 302.424 242.813 302.454 242.662 302.512C242.513 302.571 242.388 302.652 242.286 302.754C242.187 302.856 242.111 302.975 242.058 303.111C242.009 303.247 241.984 303.393 241.984 303.547C241.984 303.699 242.006 303.846 242.049 303.988C242.092 304.13 242.162 304.257 242.258 304.369C242.354 304.477 242.477 304.565 242.629 304.633C242.784 304.698 242.969 304.731 243.186 304.731C243.402 304.731 243.587 304.698 243.738 304.633C243.893 304.565 244.018 304.477 244.114 304.369C244.21 304.257 244.28 304.13 244.323 303.988C244.366 303.846 244.388 303.699 244.388 303.547C244.388 303.393 244.362 303.247 244.309 303.111C244.26 302.975 244.184 302.856 244.082 302.754C243.983 302.652 243.857 302.571 243.706 302.512C243.557 302.454 243.384 302.424 243.186 302.424ZM244.137 305.042C244.552 305.159 244.871 305.356 245.093 305.631C245.316 305.906 245.427 306.259 245.427 306.689C245.427 306.98 245.372 307.243 245.26 307.478C245.152 307.71 244.999 307.908 244.801 308.072C244.606 308.236 244.371 308.363 244.096 308.453C243.82 308.539 243.517 308.583 243.186 308.583C242.855 308.583 242.552 308.539 242.276 308.453C242.001 308.363 241.764 308.236 241.566 308.072C241.368 307.908 241.215 307.71 241.107 307.478C240.999 307.243 240.944 306.98 240.944 306.689C240.944 306.259 241.056 305.906 241.279 305.631C241.501 305.356 241.82 305.159 242.235 305.042C241.885 304.912 241.62 304.718 241.441 304.461C241.265 304.202 241.176 303.892 241.176 303.533C241.176 303.289 241.224 303.06 241.32 302.846C241.416 302.633 241.552 302.447 241.729 302.29C241.905 302.132 242.115 302.008 242.36 301.918C242.607 301.829 242.883 301.784 243.186 301.784C243.486 301.784 243.76 301.829 244.007 301.918C244.255 302.008 244.467 302.132 244.643 302.29C244.82 302.447 244.956 302.633 245.052 302.846C245.147 303.06 245.195 303.289 245.195 303.533C245.195 303.892 245.106 304.202 244.926 304.461C244.75 304.718 244.487 304.912 244.137 305.042ZM249.616 303.464C249.616 303.724 249.576 303.957 249.495 304.164C249.415 304.369 249.306 304.542 249.17 304.684C249.037 304.823 248.881 304.93 248.702 305.004C248.525 305.079 248.338 305.116 248.14 305.116C247.933 305.116 247.739 305.079 247.56 305.004C247.38 304.93 247.224 304.823 247.091 304.684C246.961 304.542 246.859 304.369 246.785 304.164C246.711 303.957 246.673 303.724 246.673 303.464C246.673 303.198 246.711 302.961 246.785 302.754C246.859 302.546 246.961 302.372 247.091 302.229C247.224 302.087 247.38 301.979 247.56 301.904C247.739 301.83 247.933 301.793 248.14 301.793C248.35 301.793 248.545 301.83 248.725 301.904C248.904 301.979 249.06 302.087 249.193 302.229C249.327 302.372 249.43 302.546 249.504 302.754C249.579 302.961 249.616 303.198 249.616 303.464ZM248.975 303.464C248.975 303.259 248.954 303.086 248.91 302.944C248.867 302.802 248.807 302.686 248.729 302.596C248.655 302.503 248.567 302.437 248.465 302.396C248.363 302.356 248.254 302.336 248.14 302.336C248.026 302.336 247.919 302.356 247.82 302.396C247.721 302.437 247.634 302.503 247.56 302.596C247.486 302.686 247.427 302.802 247.384 302.944C247.34 303.086 247.319 303.259 247.319 303.464C247.319 303.665 247.34 303.837 247.384 303.979C247.427 304.118 247.486 304.233 247.56 304.322C247.634 304.409 247.721 304.472 247.82 304.513C247.919 304.55 248.026 304.568 248.14 304.568C248.254 304.568 248.363 304.55 248.465 304.513C248.567 304.472 248.655 304.409 248.729 304.322C248.807 304.233 248.867 304.118 248.91 303.979C248.954 303.837 248.975 303.665 248.975 303.464ZM251.969 301.997C252 301.96 252.035 301.928 252.075 301.9C252.119 301.872 252.176 301.858 252.247 301.858H252.846L247.982 308.374C247.954 308.414 247.919 308.446 247.875 308.471C247.832 308.496 247.78 308.508 247.718 308.508H247.11L251.969 301.997ZM253.296 306.94C253.296 307.2 253.256 307.432 253.175 307.636C253.095 307.84 252.987 308.013 252.851 308.156C252.717 308.295 252.561 308.402 252.382 308.476C252.205 308.55 252.018 308.587 251.82 308.587C251.61 308.587 251.415 308.55 251.235 308.476C251.059 308.402 250.904 308.295 250.771 308.156C250.641 308.013 250.539 307.84 250.465 307.636C250.391 307.432 250.354 307.2 250.354 306.94C250.354 306.674 250.391 306.437 250.465 306.23C250.539 306.019 250.641 305.843 250.771 305.701C250.904 305.558 251.059 305.45 251.235 305.376C251.415 305.301 251.61 305.264 251.82 305.264C252.028 305.264 252.221 305.301 252.4 305.376C252.583 305.45 252.739 305.558 252.869 305.701C253.002 305.843 253.106 306.019 253.18 306.23C253.257 306.437 253.296 306.674 253.296 306.94ZM252.656 306.94C252.656 306.736 252.634 306.562 252.591 306.42C252.547 306.275 252.487 306.157 252.41 306.067C252.335 305.978 252.247 305.913 252.145 305.872C252.043 305.832 251.935 305.812 251.82 305.812C251.706 305.812 251.597 305.832 251.495 305.872C251.396 305.913 251.31 305.978 251.235 306.067C251.161 306.157 251.102 306.275 251.059 306.42C251.019 306.562 250.999 306.736 250.999 306.94C250.999 307.141 251.019 307.311 251.059 307.45C251.102 307.589 251.161 307.704 251.235 307.794C251.31 307.88 251.396 307.944 251.495 307.984C251.597 308.021 251.706 308.04 251.82 308.04C251.935 308.04 252.043 308.021 252.145 307.984C252.247 307.944 252.335 307.88 252.41 307.794C252.487 307.704 252.547 307.589 252.591 307.45C252.634 307.311 252.656 307.141 252.656 306.94Z" fill="#121212"/>
<circle cx="161" cy="175" r="69.9996" stroke="#FE8B8B" stroke-width="18.5635"/>
<path d="M161 105C199.66 105 231 136.34 231 175C231 213.659 199.66 244.999 161 244.999C129.823 244.999 103.407 224.617 94.3487 196.451" stroke="#5EE2AB" stroke-width="18.5635"/>
<path d="M161 105C199.66 105 231 136.34 231 175C231 197.901 220.002 218.234 203 231.004" stroke="#CB77FF" stroke-opacity="0.4" stroke-width="27.8453"/>
<path d="M161 105C199.66 105 231 136.34 231 175C231 197.901 220.002 218.234 203 231.004" stroke="#89B8FF" stroke-width="18.5635"/>
<path d="M43.9116 40.4077C43.9116 41.2276 43.7749 41.9882 43.5016 42.6895C43.2335 43.3856 42.8519 43.989 42.3569 44.4994C41.8619 45.0099 41.2663 45.4096 40.5702 45.6983C39.874 45.982 39.1005 46.1238 38.2497 46.1238C37.404 46.1238 36.6331 45.982 35.937 45.6983C35.2409 45.4096 34.6427 45.0099 34.1425 44.4994C33.6475 43.989 33.2634 43.3856 32.9901 42.6895C32.7168 41.9882 32.5801 41.2276 32.5801 40.4077C32.5801 39.5879 32.7168 38.8298 32.9901 38.1337C33.2634 37.4324 33.6475 36.8265 34.1425 36.316C34.6427 35.8055 35.2409 35.4085 35.937 35.1249C36.6331 34.8361 37.404 34.6917 38.2497 34.6917C38.8169 34.6917 39.3506 34.7588 39.8508 34.8928C40.351 35.0217 40.8099 35.2074 41.2276 35.4497C41.6453 35.6869 42.0191 35.9783 42.3492 36.3238C42.6843 36.6641 42.9679 37.0457 43.2 37.4685C43.432 37.8914 43.6074 38.3503 43.726 38.8453C43.8497 39.3403 43.9116 39.8611 43.9116 40.4077ZM41.7845 40.4077C41.7845 39.7941 41.702 39.2449 41.537 38.7602C41.372 38.2704 41.1374 37.8553 40.8331 37.5149C40.5289 37.1746 40.1576 36.9142 39.7193 36.7337C39.2862 36.5532 38.7963 36.463 38.2497 36.463C37.7031 36.463 37.2107 36.5532 36.7724 36.7337C36.3392 36.9142 35.968 37.1746 35.6586 37.5149C35.3543 37.8553 35.1197 38.2704 34.9547 38.7602C34.7897 39.2449 34.7072 39.7941 34.7072 40.4077C34.7072 41.0214 34.7897 41.5731 34.9547 42.063C35.1197 42.5477 35.3543 42.9602 35.6586 43.3006C35.968 43.6357 36.3392 43.8936 36.7724 44.074C37.2107 44.2545 37.7031 44.3448 38.2497 44.3448C38.7963 44.3448 39.2862 44.2545 39.7193 44.074C40.1576 43.8936 40.5289 43.6357 40.8331 43.3006C41.1374 42.9602 41.372 42.5477 41.537 42.063C41.702 41.5731 41.7845 41.0214 41.7845 40.4077ZM47.4901 39.4409C47.7377 38.9665 48.0316 38.5952 48.3719 38.3271C48.7122 38.0538 49.1145 37.9171 49.5785 37.9171C49.9447 37.9171 50.2386 37.9971 50.4603 38.1569L50.3365 39.5879C50.3108 39.6807 50.2721 39.7477 50.2205 39.789C50.1741 39.8251 50.1097 39.8431 50.0272 39.8431C49.9498 39.8431 49.8338 39.8302 49.6791 39.8044C49.5296 39.7786 49.3826 39.7658 49.2382 39.7658C49.0268 39.7658 48.8386 39.7967 48.6736 39.8586C48.5086 39.9204 48.359 40.0107 48.2249 40.1293C48.096 40.2427 47.98 40.382 47.8769 40.547C47.7789 40.712 47.6861 40.9002 47.5984 41.1116V46H45.6879V38.0641H46.8095C47.0054 38.0641 47.1421 38.1002 47.2194 38.1724C47.2968 38.2394 47.3483 38.3632 47.3741 38.5437L47.4901 39.4409ZM56.6153 40.0906C56.3987 39.8276 56.1615 39.642 55.9037 39.5337C55.651 39.4254 55.3777 39.3713 55.0838 39.3713C54.795 39.3713 54.5346 39.4254 54.3026 39.5337C54.0705 39.642 53.872 39.807 53.707 40.0287C53.542 40.2453 53.4156 40.5238 53.328 40.8641C53.2403 41.1993 53.1965 41.5963 53.1965 42.0553C53.1965 42.5193 53.2326 42.9138 53.3048 43.2387C53.3821 43.5584 53.4904 43.8214 53.6296 44.0276C53.7689 44.2287 53.939 44.3757 54.1401 44.4685C54.3412 44.5562 54.5656 44.6 54.8131 44.6C55.2101 44.6 55.5479 44.5175 55.8263 44.3525C56.1048 44.1875 56.3678 43.9529 56.6153 43.6486V40.0906ZM58.5258 34.5061V46H57.3578C57.1051 46 56.9453 45.884 56.8783 45.6519L56.7158 44.8862C56.3961 45.2523 56.0274 45.5488 55.6097 45.7757C55.1972 46.0026 54.7151 46.116 54.1633 46.116C53.7302 46.116 53.3331 46.0258 52.9722 45.8453C52.6112 45.6648 52.2993 45.4044 52.0363 45.0641C51.7784 44.7186 51.5773 44.2932 51.433 43.7878C51.2937 43.2825 51.2241 42.705 51.2241 42.0553C51.2241 41.4674 51.304 40.9208 51.4639 40.4155C51.6237 39.9101 51.8532 39.4718 52.1523 39.1006C52.4514 38.7293 52.8098 38.4405 53.2274 38.2343C53.6451 38.0228 54.1144 37.9171 54.6352 37.9171C55.0786 37.9171 55.4576 37.9867 55.7722 38.126C56.0867 38.2652 56.3678 38.4534 56.6153 38.6906V34.5061H58.5258ZM65.9107 41.1193C65.9107 40.8718 65.8746 40.6398 65.8024 40.4232C65.7354 40.2015 65.6322 40.0081 65.493 39.8431C65.3538 39.6781 65.1759 39.5492 64.9593 39.4564C64.7479 39.3584 64.5004 39.3094 64.2168 39.3094C63.665 39.3094 63.2293 39.4667 62.9096 39.7812C62.595 40.0958 62.3939 40.5418 62.3063 41.1193H65.9107ZM62.2676 42.2718C62.2985 42.6792 62.3707 43.0324 62.4842 43.3315C62.5976 43.6254 62.7472 43.8704 62.9328 44.0663C63.1184 44.2571 63.3376 44.4015 63.5902 44.4994C63.8481 44.5923 64.1317 44.6387 64.4411 44.6387C64.7505 44.6387 65.016 44.6026 65.2378 44.5304C65.4646 44.4582 65.6606 44.3783 65.8256 44.2906C65.9958 44.2029 66.1427 44.123 66.2665 44.0508C66.3954 43.9786 66.5192 43.9425 66.6378 43.9425C66.7976 43.9425 66.9162 44.0018 66.9936 44.1204L67.5427 44.8166C67.3313 45.0641 67.0941 45.2729 66.8311 45.4431C66.5681 45.6081 66.2923 45.7422 66.0035 45.8453C65.7199 45.9433 65.4286 46.0129 65.1295 46.0541C64.8356 46.0954 64.5494 46.116 64.2709 46.116C63.7192 46.116 63.2061 46.0258 62.7317 45.8453C62.2573 45.6597 61.8448 45.389 61.4941 45.0332C61.1435 44.6722 60.8676 44.2287 60.6665 43.7028C60.4654 43.1716 60.3648 42.558 60.3648 41.8619C60.3648 41.3204 60.4525 40.8125 60.6278 40.3381C60.8031 39.8586 61.0532 39.4435 61.3781 39.0928C61.7081 38.737 62.1077 38.456 62.577 38.2497C63.0514 38.0435 63.5851 37.9403 64.1781 37.9403C64.6783 37.9403 65.1398 38.0203 65.5626 38.1801C65.9855 38.34 66.349 38.5746 66.6532 38.884C66.9575 39.1882 67.1947 39.5646 67.3648 40.0133C67.5402 40.4567 67.6278 40.9646 67.6278 41.537C67.6278 41.8258 67.5969 42.0217 67.535 42.1249C67.4731 42.2228 67.3545 42.2718 67.1792 42.2718H62.2676ZM71.2505 39.4409C71.498 38.9665 71.7919 38.5952 72.1322 38.3271C72.4726 38.0538 72.8748 37.9171 73.3389 37.9171C73.705 37.9171 73.9989 37.9971 74.2206 38.1569L74.0969 39.5879C74.0711 39.6807 74.0324 39.7477 73.9809 39.789C73.9345 39.8251 73.87 39.8431 73.7875 39.8431C73.7101 39.8431 73.5941 39.8302 73.4394 39.8044C73.2899 39.7786 73.1429 39.7658 72.9985 39.7658C72.7871 39.7658 72.5989 39.7967 72.4339 39.8586C72.2689 39.9204 72.1194 40.0107 71.9853 40.1293C71.8564 40.2427 71.7403 40.382 71.6372 40.547C71.5392 40.712 71.4464 40.9002 71.3588 41.1116V46H69.4483V38.0641H70.5698C70.7658 38.0641 70.9024 38.1002 70.9798 38.1724C71.0571 38.2394 71.1087 38.3632 71.1345 38.5437L71.2505 39.4409ZM87.0674 36.5249H83.695V46H81.6144V36.5249H78.242V34.8155H87.0674V36.5249ZM90.5206 38.0641V46H88.6024V38.0641H90.5206ZM90.7836 35.7514C90.7836 35.9164 90.7501 36.0711 90.6831 36.2155C90.616 36.3599 90.5258 36.4862 90.4124 36.5945C90.3041 36.7028 90.1752 36.7904 90.0256 36.8575C89.8761 36.9193 89.7162 36.9503 89.5461 36.9503C89.381 36.9503 89.2238 36.9193 89.0742 36.8575C88.9299 36.7904 88.8035 36.7028 88.6952 36.5945C88.5869 36.4862 88.4993 36.3599 88.4322 36.2155C88.3704 36.0711 88.3394 35.9164 88.3394 35.7514C88.3394 35.5812 88.3704 35.4214 88.4322 35.2718C88.4993 35.1223 88.5869 34.9934 88.6952 34.8851C88.8035 34.7768 88.9299 34.6917 89.0742 34.6298C89.2238 34.5628 89.381 34.5293 89.5461 34.5293C89.7162 34.5293 89.8761 34.5628 90.0256 34.6298C90.1752 34.6917 90.3041 34.7768 90.4124 34.8851C90.5258 34.9934 90.616 35.1223 90.6831 35.2718C90.7501 35.4214 90.7836 35.5812 90.7836 35.7514ZM92.8551 46V38.0641H94.0231C94.2706 38.0641 94.433 38.1801 94.5103 38.4122L94.6341 39C94.7733 38.8453 94.9177 38.7035 95.0673 38.5746C95.222 38.4457 95.3844 38.3348 95.5545 38.242C95.7299 38.1492 95.9155 38.077 96.1115 38.0254C96.3126 37.9687 96.5317 37.9403 96.7689 37.9403C97.2691 37.9403 97.679 38.077 97.9987 38.3503C98.3236 38.6184 98.566 38.9768 98.7258 39.4254C98.8496 39.1624 99.0043 38.9381 99.1899 38.7525C99.3755 38.5617 99.5792 38.407 99.801 38.2884C100.023 38.1698 100.257 38.0821 100.505 38.0254C100.757 37.9687 101.01 37.9403 101.263 37.9403C101.701 37.9403 102.09 38.0074 102.431 38.1414C102.771 38.2755 103.057 38.4715 103.289 38.7293C103.521 38.9871 103.697 39.3017 103.815 39.6729C103.939 40.0442 104.001 40.4696 104.001 40.9492V46H102.09V40.9492C102.09 40.4438 101.98 40.0648 101.758 39.8122C101.536 39.5543 101.211 39.4254 100.783 39.4254C100.587 39.4254 100.404 39.4589 100.234 39.526C100.069 39.593 99.9221 39.691 99.7932 39.8199C99.6695 39.9437 99.5715 40.1009 99.4993 40.2917C99.4271 40.4825 99.391 40.7017 99.391 40.9492V46H97.4728V40.9492C97.4728 40.4181 97.3645 40.0313 97.1479 39.789C96.9365 39.5466 96.6245 39.4254 96.212 39.4254C95.9336 39.4254 95.6731 39.495 95.4308 39.6343C95.1936 39.7683 94.9719 39.954 94.7656 40.1912V46H92.8551ZM111.316 41.1193C111.316 40.8718 111.28 40.6398 111.208 40.4232C111.141 40.2015 111.038 40.0081 110.899 39.8431C110.759 39.6781 110.582 39.5492 110.365 39.4564C110.154 39.3584 109.906 39.3094 109.622 39.3094C109.071 39.3094 108.635 39.4667 108.315 39.7812C108.001 40.0958 107.8 40.5418 107.712 41.1193H111.316ZM107.673 42.2718C107.704 42.6792 107.776 43.0324 107.89 43.3315C108.003 43.6254 108.153 43.8704 108.338 44.0663C108.524 44.2571 108.743 44.4015 108.996 44.4994C109.254 44.5923 109.537 44.6387 109.847 44.6387C110.156 44.6387 110.422 44.6026 110.643 44.5304C110.87 44.4582 111.066 44.3783 111.231 44.2906C111.401 44.2029 111.548 44.123 111.672 44.0508C111.801 43.9786 111.925 43.9425 112.043 43.9425C112.203 43.9425 112.322 44.0018 112.399 44.1204L112.948 44.8166C112.737 45.0641 112.5 45.2729 112.237 45.4431C111.974 45.6081 111.698 45.7422 111.409 45.8453C111.126 45.9433 110.834 46.0129 110.535 46.0541C110.241 46.0954 109.955 46.116 109.677 46.116C109.125 46.116 108.612 46.0258 108.137 45.8453C107.663 45.6597 107.25 45.389 106.9 45.0332C106.549 44.6722 106.273 44.2287 106.072 43.7028C105.871 43.1716 105.771 42.558 105.771 41.8619C105.771 41.3204 105.858 40.8125 106.034 40.3381C106.209 39.8586 106.459 39.4435 106.784 39.0928C107.114 38.737 107.513 38.456 107.983 38.2497C108.457 38.0435 108.991 37.9403 109.584 37.9403C110.084 37.9403 110.545 38.0203 110.968 38.1801C111.391 38.34 111.755 38.5746 112.059 38.884C112.363 39.1882 112.6 39.5646 112.771 40.0133C112.946 40.4567 113.033 40.9646 113.033 41.537C113.033 41.8258 113.003 42.0217 112.941 42.1249C112.879 42.2228 112.76 42.2718 112.585 42.2718H107.673Z" fill="#343450"/>
<path opacity="0.5" d="M37.7918 59.6149H35.459V66H34.4887V59.6149H32.1508V58.7954H37.7918V59.6149ZM39.9558 60.8266C40.3279 60.8266 40.663 60.8886 40.9613 61.0126C41.2597 61.1366 41.5144 61.3126 41.7255 61.5405C41.9367 61.7684 42.0976 62.0449 42.2082 62.3701C42.3222 62.6918 42.3791 63.0521 42.3791 63.451C42.3791 63.8532 42.3222 64.2152 42.2082 64.537C42.0976 64.8587 41.9367 65.1336 41.7255 65.3615C41.5144 65.5894 41.2597 65.7654 40.9613 65.8894C40.663 66.0101 40.3279 66.0704 39.9558 66.0704C39.5804 66.0704 39.2419 66.0101 38.9402 65.8894C38.6419 65.7654 38.3872 65.5894 38.176 65.3615C37.9649 65.1336 37.8023 64.8587 37.6884 64.537C37.5778 64.2152 37.5225 63.8532 37.5225 63.451C37.5225 63.0521 37.5778 62.6918 37.6884 62.3701C37.8023 62.0449 37.9649 61.7684 38.176 61.5405C38.3872 61.3126 38.6419 61.1366 38.9402 61.0126C39.2419 60.8886 39.5804 60.8266 39.9558 60.8266ZM39.9558 65.3715C40.4586 65.3715 40.834 65.204 41.082 64.8688C41.33 64.5303 41.4541 64.0593 41.4541 63.456C41.4541 62.8494 41.33 62.3768 41.082 62.0382C40.834 61.6997 40.4586 61.5304 39.9558 61.5304C39.7011 61.5304 39.4782 61.574 39.2871 61.6612C39.0995 61.7483 38.9419 61.874 38.8146 62.0382C38.6905 62.2025 38.5967 62.4053 38.533 62.6466C38.4727 62.8846 38.4425 63.1544 38.4425 63.456C38.4425 64.0593 38.5665 64.5303 38.8146 64.8688C39.0659 65.204 39.4464 65.3715 39.9558 65.3715ZM47.2192 62.1187C47.0516 61.8941 46.8706 61.7383 46.6762 61.6511C46.4818 61.5606 46.2639 61.5154 46.0226 61.5154C45.55 61.5154 45.1863 61.6846 44.9316 62.0232C44.6769 62.3617 44.5495 62.8443 44.5495 63.4711C44.5495 63.8029 44.578 64.0878 44.635 64.3258C44.692 64.5604 44.7757 64.7548 44.8864 64.909C44.997 65.0598 45.1327 65.1704 45.2936 65.2408C45.4545 65.3112 45.6371 65.3464 45.8416 65.3464C46.1366 65.3464 46.393 65.2794 46.6108 65.1453C46.832 65.0112 47.0348 64.8219 47.2192 64.5772V62.1187ZM48.1141 58.5943V66H47.5812C47.4538 66 47.3733 65.938 47.3398 65.814L47.2594 65.1956C47.0415 65.457 46.7935 65.6682 46.5153 65.8291C46.2371 65.9899 45.9153 66.0704 45.55 66.0704C45.2584 66.0704 44.9936 66.0151 44.7556 65.9045C44.5177 65.7905 44.3149 65.6246 44.1473 65.4067C43.9797 65.1889 43.8507 64.9174 43.7602 64.5923C43.6697 64.2671 43.6244 63.8934 43.6244 63.4711C43.6244 63.0957 43.6747 62.7471 43.7752 62.4254C43.8758 62.1002 44.0199 61.8187 44.2076 61.5807C44.3953 61.3427 44.6249 61.1567 44.8964 61.0227C45.1713 60.8852 45.4796 60.8165 45.8215 60.8165C46.1332 60.8165 46.3997 60.8702 46.6209 60.9774C46.8454 61.0813 47.0449 61.2271 47.2192 61.4148V58.5943H48.1141ZM52.6745 63.7074C52.2622 63.7208 51.9103 63.7543 51.6187 63.808C51.3304 63.8582 51.0941 63.9253 50.9098 64.0091C50.7288 64.0929 50.5964 64.1917 50.5126 64.3057C50.4321 64.4197 50.3919 64.547 50.3919 64.6878C50.3919 64.8219 50.4137 64.9375 50.4573 65.0347C50.5008 65.1319 50.5595 65.2123 50.6332 65.276C50.7103 65.3364 50.7992 65.3816 50.8997 65.4118C51.0036 65.4386 51.1142 65.452 51.2315 65.452C51.3891 65.452 51.5332 65.4369 51.6639 65.4067C51.7946 65.3732 51.917 65.3263 52.0309 65.266C52.1482 65.2056 52.2588 65.1336 52.3627 65.0498C52.47 64.966 52.5739 64.8705 52.6745 64.7632V63.7074ZM49.7836 61.626C50.0651 61.3545 50.3685 61.1517 50.6936 61.0176C51.0187 60.8836 51.379 60.8165 51.7745 60.8165C52.0594 60.8165 52.3125 60.8634 52.5337 60.9573C52.7549 61.0511 52.9409 61.1819 53.0917 61.3495C53.2426 61.517 53.3565 61.7198 53.4336 61.9578C53.5107 62.1958 53.5493 62.4572 53.5493 62.7421V66H53.1521C53.0649 66 52.9979 65.9866 52.951 65.9598C52.9041 65.9296 52.8672 65.8726 52.8404 65.7888L52.7398 65.3062C52.6057 65.4302 52.475 65.5408 52.3477 65.638C52.2203 65.7319 52.0862 65.8123 51.9455 65.8793C51.8047 65.943 51.6538 65.9916 51.493 66.0251C51.3354 66.062 51.1595 66.0804 50.9651 66.0804C50.7673 66.0804 50.5813 66.0536 50.407 66C50.2327 65.943 50.0802 65.8592 49.9495 65.7486C49.8221 65.638 49.7199 65.4989 49.6428 65.3313C49.5691 65.1604 49.5322 64.9593 49.5322 64.728C49.5322 64.5269 49.5875 64.3342 49.6981 64.1498C49.8087 63.9621 49.988 63.7962 50.2361 63.6521C50.4841 63.508 50.8075 63.3907 51.2064 63.3002C51.6052 63.2063 52.0946 63.1527 52.6745 63.1393V62.7421C52.6745 62.3466 52.589 62.0483 52.418 61.8472C52.2471 61.6427 51.9974 61.5405 51.6689 61.5405C51.4477 61.5405 51.2617 61.569 51.1109 61.626C50.9634 61.6796 50.8343 61.7416 50.7237 61.812C50.6165 61.879 50.5226 61.941 50.4422 61.998C50.3651 62.0516 50.288 62.0785 50.2109 62.0785C50.1506 62.0785 50.0986 62.0634 50.0551 62.0332C50.0115 61.9997 49.9746 61.9595 49.9445 61.9125L49.7836 61.626ZM59.5755 60.907L56.7349 67.5033C56.7047 67.5703 56.6662 67.6239 56.6193 67.6641C56.5757 67.7044 56.507 67.7245 56.4131 67.7245H55.7495L56.6796 65.7034L54.578 60.907H55.3523C55.4294 60.907 55.4897 60.9271 55.5333 60.9674C55.5802 61.0042 55.6121 61.0461 55.6288 61.093L56.9913 64.3007C57.0449 64.4414 57.0902 64.5889 57.127 64.7431C57.174 64.5856 57.2242 64.4364 57.2779 64.2956L58.6001 61.093C58.6203 61.0394 58.6538 60.9958 58.7007 60.9623C58.751 60.9255 58.8063 60.907 58.8666 60.907H59.5755Z" fill="black"/>
<path d="M183 70.1806C183 67.8717 184.872 66 187.181 66L287.819 66C290.128 66 292 67.8717 292 70.1806V142.012C292 144.321 290.128 146.193 287.819 146.193H222.387L219.123 149.954C218.706 150.435 217.961 150.435 217.544 149.954L214.28 146.193H187.181C184.872 146.193 183 144.321 183 142.012V70.1806Z" fill="#CBC0F0"/>
<path opacity="0.5" d="M199.714 102.796V103.364H196.503V102.796H197.786V98.7114C197.786 98.5888 197.79 98.4648 197.799 98.3393L196.733 99.2549C196.697 99.2856 196.66 99.3051 196.624 99.3134C196.588 99.319 196.554 99.319 196.524 99.3134C196.493 99.3079 196.464 99.2967 196.436 99.28C196.411 99.2633 196.391 99.2451 196.377 99.2256L196.143 98.9037L197.928 97.3611H198.535V102.796H199.714ZM201.855 102.344C201.991 102.528 202.14 102.658 202.302 102.733C202.464 102.808 202.645 102.846 202.845 102.846C203.241 102.846 203.545 102.705 203.757 102.424C203.969 102.142 204.075 101.741 204.075 101.22C204.075 100.944 204.049 100.707 203.999 100.509C203.952 100.311 203.882 100.15 203.79 100.024C203.698 99.8959 203.585 99.8026 203.452 99.744C203.318 99.6855 203.166 99.6562 202.996 99.6562C202.753 99.6562 202.54 99.712 202.356 99.8235C202.175 99.9349 202.008 100.092 201.855 100.296V102.344ZM201.817 99.7858C201.995 99.5657 202.202 99.3887 202.436 99.2549C202.67 99.1211 202.937 99.0542 203.238 99.0542C203.484 99.0542 203.705 99.1016 203.903 99.1964C204.101 99.2883 204.27 99.4263 204.409 99.6103C204.548 99.7914 204.656 100.017 204.731 100.288C204.806 100.558 204.844 100.869 204.844 101.22C204.844 101.532 204.802 101.823 204.718 102.094C204.635 102.361 204.514 102.594 204.355 102.792C204.199 102.987 204.006 103.141 203.778 103.256C203.552 103.367 203.297 103.423 203.013 103.423C202.753 103.423 202.531 103.38 202.344 103.293C202.16 103.204 201.997 103.082 201.855 102.925V104.798H201.106V99.1295H201.554C201.66 99.1295 201.725 99.181 201.75 99.2842L201.817 99.7858ZM206.002 103.364V99.1295H206.45C206.555 99.1295 206.621 99.181 206.646 99.2842L206.7 99.7189C206.856 99.5266 207.032 99.3692 207.227 99.2465C207.422 99.1239 207.648 99.0626 207.904 99.0626C208.189 99.0626 208.419 99.142 208.594 99.3009C208.773 99.4598 208.901 99.6744 208.979 99.9447C209.04 99.7914 209.118 99.659 209.213 99.5475C209.31 99.4361 209.419 99.3441 209.539 99.2716C209.659 99.1992 209.786 99.1462 209.919 99.1128C210.056 99.0793 210.194 99.0626 210.333 99.0626C210.556 99.0626 210.754 99.0988 210.927 99.1713C211.103 99.241 211.25 99.3441 211.37 99.4807C211.493 99.6172 211.586 99.7858 211.65 99.9865C211.714 100.184 211.746 100.412 211.746 100.668V103.364H210.998V100.668C210.998 100.336 210.926 100.085 210.781 99.9154C210.636 99.7426 210.427 99.6562 210.154 99.6562C210.031 99.6562 209.914 99.6785 209.802 99.7231C209.694 99.7649 209.598 99.8276 209.514 99.9113C209.43 99.9949 209.363 100.101 209.313 100.229C209.266 100.354 209.242 100.501 209.242 100.668V103.364H208.494V100.668C208.494 100.328 208.426 100.074 208.289 99.9071C208.152 99.7399 207.953 99.6562 207.691 99.6562C207.507 99.6562 207.337 99.7064 207.181 99.8067C207.025 99.9043 206.882 100.038 206.751 100.208V103.364H206.002ZM215.368 100.543H217.433V101.174H215.368V100.543ZM223.557 101.203V98.7323C223.557 98.6599 223.56 98.5804 223.566 98.494C223.571 98.4076 223.58 98.3198 223.591 98.2306L221.408 101.203H223.557ZM225.117 101.203V101.629C225.117 101.674 225.103 101.712 225.075 101.742C225.05 101.773 225.009 101.788 224.954 101.788H224.21V103.364H223.557V101.788H220.898C220.843 101.788 220.794 101.773 220.752 101.742C220.713 101.709 220.688 101.669 220.677 101.621L220.602 101.241L223.516 97.3736H224.21V101.203H225.117ZM226.902 102.344C227.039 102.528 227.188 102.658 227.35 102.733C227.511 102.808 227.693 102.846 227.893 102.846C228.289 102.846 228.593 102.705 228.805 102.424C229.016 102.142 229.122 101.741 229.122 101.22C229.122 100.944 229.097 100.707 229.047 100.509C229 100.311 228.93 100.15 228.838 100.024C228.746 99.8959 228.633 99.8026 228.499 99.744C228.366 99.6855 228.214 99.6562 228.044 99.6562C227.801 99.6562 227.588 99.712 227.404 99.8235C227.223 99.9349 227.056 100.092 226.902 100.296V102.344ZM226.865 99.7858C227.043 99.5657 227.249 99.3887 227.484 99.2549C227.718 99.1211 227.985 99.0542 228.286 99.0542C228.532 99.0542 228.753 99.1016 228.951 99.1964C229.149 99.2883 229.318 99.4263 229.457 99.6103C229.596 99.7914 229.704 100.017 229.779 100.288C229.854 100.558 229.892 100.869 229.892 101.22C229.892 101.532 229.85 101.823 229.766 102.094C229.683 102.361 229.561 102.594 229.403 102.792C229.246 102.987 229.054 103.141 228.826 103.256C228.6 103.367 228.345 103.423 228.061 103.423C227.801 103.423 227.578 103.38 227.392 103.293C227.208 103.204 227.045 103.082 226.902 102.925V104.798H226.154V99.1295H226.601C226.707 99.1295 226.773 99.181 226.798 99.2842L226.865 99.7858ZM231.05 103.364V99.1295H231.497C231.603 99.1295 231.669 99.181 231.694 99.2842L231.748 99.7189C231.904 99.5266 232.08 99.3692 232.275 99.2465C232.47 99.1239 232.696 99.0626 232.952 99.0626C233.237 99.0626 233.466 99.142 233.642 99.3009C233.82 99.4598 233.949 99.6744 234.027 99.9447C234.088 99.7914 234.166 99.659 234.261 99.5475C234.358 99.4361 234.467 99.3441 234.587 99.2716C234.707 99.1992 234.834 99.1462 234.967 99.1128C235.104 99.0793 235.242 99.0626 235.381 99.0626C235.604 99.0626 235.802 99.0988 235.975 99.1713C236.15 99.241 236.298 99.3441 236.418 99.4807C236.541 99.6172 236.634 99.7858 236.698 99.9865C236.762 100.184 236.794 100.412 236.794 100.668V103.364H236.046V100.668C236.046 100.336 235.973 100.085 235.829 99.9154C235.684 99.7426 235.475 99.6562 235.201 99.6562C235.079 99.6562 234.962 99.6785 234.85 99.7231C234.742 99.7649 234.645 99.8276 234.562 99.9113C234.478 99.9949 234.411 100.101 234.361 100.229C234.314 100.354 234.29 100.501 234.29 100.668V103.364H233.542V100.668C233.542 100.328 233.473 100.074 233.337 99.9071C233.2 99.7399 233.001 99.6562 232.739 99.6562C232.555 99.6562 232.385 99.7064 232.229 99.8067C232.073 99.9043 231.929 100.038 231.798 100.208V103.364H231.05Z" fill="white"/>
<path d="M199.387 84.2209L198.497 81.8923C198.433 81.7334 198.369 81.5327 198.305 81.2903C198.274 81.4101 198.242 81.5216 198.208 81.6247C198.178 81.7278 198.147 81.8198 198.117 81.9006L197.23 84.2209H199.387ZM201.147 86.4575H200.462C200.384 86.4575 200.32 86.438 200.27 86.399C200.219 86.36 200.183 86.3098 200.161 86.2485L199.63 84.8563H196.984L196.453 86.2485C196.433 86.3014 196.397 86.3502 196.344 86.3948C196.291 86.4366 196.227 86.4575 196.152 86.4575H195.466L197.857 80.4541H198.756L201.147 86.4575ZM205.572 82.8705V85.358C205.572 85.5252 205.612 85.6507 205.693 85.7343C205.774 85.8151 205.88 85.8555 206.011 85.8555C206.086 85.8555 206.15 85.8457 206.203 85.8262C206.259 85.8067 206.306 85.7858 206.345 85.7635C206.385 85.7384 206.418 85.7161 206.446 85.6966C206.474 85.6771 206.499 85.6674 206.521 85.6674C206.546 85.6674 206.567 85.6743 206.584 85.6883C206.601 85.6994 206.617 85.7189 206.634 85.7468L206.876 86.1398C206.743 86.2624 206.582 86.3572 206.396 86.4241C206.212 86.491 206.021 86.5244 205.823 86.5244C205.48 86.5244 205.215 86.4282 205.029 86.2359C204.845 86.0436 204.753 85.7691 204.753 85.4124V82.8705H202.85V86.4575H202.031V82.8789L201.588 82.8245C201.524 82.8106 201.471 82.7883 201.429 82.7577C201.39 82.7242 201.371 82.6768 201.371 82.6155V82.2769H202.031V81.8923C202.031 81.6498 202.066 81.4338 202.136 81.2443C202.205 81.0547 202.304 80.8945 202.432 80.7635C202.563 80.6297 202.72 80.5294 202.901 80.4625C203.085 80.3928 203.291 80.358 203.519 80.358C203.712 80.358 203.889 80.3858 204.05 80.4416L204.034 80.8513C204.031 80.8875 204.02 80.9154 204 80.9349C203.981 80.9516 203.954 80.9642 203.921 80.9725C203.89 80.9809 203.851 80.9865 203.804 80.9893C203.759 80.9893 203.71 80.9893 203.657 80.9893C203.532 80.9893 203.418 81.0046 203.315 81.0352C203.211 81.0659 203.124 81.1175 203.051 81.1899C202.979 81.2624 202.923 81.3585 202.884 81.4784C202.845 81.5954 202.825 81.7418 202.825 81.9174V82.2769H204.782L204.97 81.0018C204.978 80.9544 204.998 80.9182 205.029 80.8931C205.062 80.8652 205.104 80.8513 205.154 80.8513H205.572V82.2769H206.776V82.8705H205.572ZM210.522 83.8613C210.522 83.6997 210.498 83.5506 210.451 83.414C210.406 83.2774 210.339 83.159 210.25 83.0587C210.161 82.9583 210.052 82.8803 209.924 82.8245C209.796 82.7688 209.648 82.7409 209.481 82.7409C209.138 82.7409 208.868 82.8399 208.67 83.0378C208.475 83.2356 208.351 83.5102 208.298 83.8613H210.522ZM211.195 85.8513C211.095 85.9684 210.979 86.0701 210.848 86.1565C210.717 86.2401 210.578 86.3084 210.43 86.3614C210.282 86.4143 210.129 86.4533 209.97 86.4784C209.814 86.5035 209.659 86.516 209.506 86.516C209.213 86.516 208.942 86.4673 208.691 86.3697C208.443 86.2694 208.227 86.1245 208.043 85.9349C207.862 85.7426 207.72 85.5057 207.616 85.2242C207.516 84.9399 207.466 84.6139 207.466 84.246C207.466 83.9505 207.512 83.676 207.604 83.4224C207.696 83.166 207.827 82.943 207.997 82.7535C208.17 82.564 208.38 82.4148 208.628 82.3061C208.876 82.1975 209.155 82.1431 209.464 82.1431C209.723 82.1431 209.962 82.1863 210.179 82.2727C210.399 82.3563 210.589 82.4789 210.748 82.6406C210.907 82.8022 211.031 83.0015 211.12 83.2384C211.212 83.4753 211.258 83.7457 211.258 84.0495C211.258 84.1749 211.244 84.2599 211.216 84.3045C211.188 84.3463 211.136 84.3672 211.061 84.3672H208.277C208.285 84.6208 208.322 84.8424 208.386 85.0319C208.45 85.2187 208.538 85.3747 208.649 85.5001C208.763 85.6256 208.898 85.7189 209.055 85.7803C209.211 85.8416 209.385 85.8722 209.577 85.8722C209.758 85.8722 209.914 85.8513 210.045 85.8095C210.179 85.7677 210.293 85.7231 210.388 85.6757C210.486 85.6256 210.567 85.5796 210.631 85.5378C210.698 85.496 210.756 85.4751 210.806 85.4751C210.873 85.4751 210.925 85.5001 210.961 85.5503L211.195 85.8513ZM213.112 83.0252C213.249 82.7465 213.413 82.5277 213.606 82.3689C213.798 82.21 214.029 82.1306 214.3 82.1306C214.392 82.1306 214.478 82.1417 214.559 82.164C214.642 82.1835 214.715 82.2142 214.776 82.256L214.722 82.8705C214.702 82.9458 214.656 82.9834 214.584 82.9834C214.545 82.9834 214.486 82.9764 214.408 82.9625C214.33 82.9458 214.247 82.9374 214.157 82.9374C214.026 82.9374 213.911 82.9569 213.81 82.996C213.71 83.0322 213.619 83.0879 213.539 83.1632C213.461 83.2356 213.391 83.3262 213.33 83.4349C213.268 83.5408 213.211 83.6621 213.158 83.7986V86.4575H212.343V82.21H212.811C212.9 82.21 212.96 82.2267 212.991 82.2602C213.024 82.2908 213.048 82.3466 213.062 82.4274L213.112 83.0252ZM216.379 82.7995C216.471 82.7019 216.567 82.6127 216.668 82.5319C216.768 82.4511 216.874 82.3828 216.985 82.3271C217.1 82.2685 217.221 82.2239 217.349 82.1933C217.48 82.1598 217.619 82.1431 217.767 82.1431C218.001 82.1431 218.206 82.1821 218.382 82.2602C218.56 82.3382 218.709 82.4483 218.829 82.5904C218.949 82.7298 219.039 82.8984 219.101 83.0963C219.162 83.2942 219.193 83.513 219.193 83.7526V86.4575H218.373V83.7526C218.373 83.4489 218.304 83.2133 218.164 83.0461C218.025 82.8761 217.812 82.7911 217.525 82.7911C217.316 82.7911 217.119 82.8413 216.935 82.9416C216.754 83.0392 216.585 83.1729 216.429 83.3429V86.4575H215.614V82.21H216.103C216.217 82.21 216.288 82.2643 216.316 82.373L216.379 82.7995ZM222.312 82.1431C222.624 82.1431 222.906 82.1947 223.156 82.2978C223.41 82.3981 223.625 82.5444 223.8 82.7368C223.979 82.9263 224.115 83.1562 224.21 83.4266C224.305 83.6941 224.352 83.9951 224.352 84.3296C224.352 84.664 224.305 84.9664 224.21 85.2368C224.115 85.5071 223.979 85.7371 223.8 85.9266C223.625 86.1161 223.41 86.2624 223.156 86.3655C222.906 86.4659 222.624 86.516 222.312 86.516C221.997 86.516 221.713 86.4659 221.459 86.3655C221.208 86.2624 220.994 86.1161 220.815 85.9266C220.637 85.7371 220.499 85.5071 220.401 85.2368C220.307 84.9664 220.259 84.664 220.259 84.3296C220.259 83.9951 220.307 83.6941 220.401 83.4266C220.499 83.1562 220.637 82.9263 220.815 82.7368C220.994 82.5444 221.208 82.3981 221.459 82.2978C221.713 82.1947 221.997 82.1431 222.312 82.1431ZM222.312 85.8806C222.713 85.8806 223.013 85.7454 223.211 85.4751C223.409 85.2047 223.508 84.8243 223.508 84.3338C223.508 83.8432 223.409 83.4628 223.211 83.1924C223.013 82.9193 222.713 82.7827 222.312 82.7827C221.905 82.7827 221.601 82.9193 221.401 83.1924C221.203 83.4628 221.104 83.8432 221.104 84.3338C221.104 84.8243 221.203 85.2047 221.401 85.4751C221.601 85.7454 221.905 85.8806 222.312 85.8806ZM227.281 82.1431C227.594 82.1431 227.875 82.1947 228.126 82.2978C228.379 82.3981 228.594 82.5444 228.77 82.7368C228.948 82.9263 229.085 83.1562 229.179 83.4266C229.274 83.6941 229.322 83.9951 229.322 84.3296C229.322 84.664 229.274 84.9664 229.179 85.2368C229.085 85.5071 228.948 85.7371 228.77 85.9266C228.594 86.1161 228.379 86.2624 228.126 86.3655C227.875 86.4659 227.594 86.516 227.281 86.516C226.966 86.516 226.682 86.4659 226.429 86.3655C226.178 86.2624 225.963 86.1161 225.785 85.9266C225.606 85.7371 225.468 85.5071 225.371 85.2368C225.276 84.9664 225.229 84.664 225.229 84.3296C225.229 83.9951 225.276 83.6941 225.371 83.4266C225.468 83.1562 225.606 82.9263 225.785 82.7368C225.963 82.5444 226.178 82.3981 226.429 82.2978C226.682 82.1947 226.966 82.1431 227.281 82.1431ZM227.281 85.8806C227.683 85.8806 227.982 85.7454 228.18 85.4751C228.378 85.2047 228.477 84.8243 228.477 84.3338C228.477 83.8432 228.378 83.4628 228.18 83.1924C227.982 82.9193 227.683 82.7827 227.281 82.7827C226.874 82.7827 226.571 82.9193 226.37 83.1924C226.172 83.4628 226.073 83.8432 226.073 84.3338C226.073 84.8243 226.172 85.2047 226.37 85.4751C226.571 85.7454 226.874 85.8806 227.281 85.8806ZM231.206 82.7995C231.298 82.7019 231.394 82.6127 231.494 82.5319C231.594 82.4511 231.7 82.3828 231.812 82.3271C231.926 82.2685 232.047 82.2239 232.176 82.1933C232.306 82.1598 232.446 82.1431 232.594 82.1431C232.828 82.1431 233.033 82.1821 233.208 82.2602C233.386 82.3382 233.536 82.4483 233.655 82.5904C233.775 82.7298 233.866 82.8984 233.927 83.0963C233.989 83.2942 234.019 83.513 234.019 83.7526V86.4575H233.2V83.7526C233.2 83.4489 233.13 83.2133 232.991 83.0461C232.851 82.8761 232.638 82.7911 232.351 82.7911C232.142 82.7911 231.946 82.8413 231.762 82.9416C231.58 83.0392 231.412 83.1729 231.256 83.3429V86.4575H230.441V82.21H230.93C231.044 82.21 231.115 82.2643 231.143 82.373L231.206 82.7995Z" fill="white"/>
<path d="M201.154 127.334V128.164H196.829V127.334H198.523V122.088C198.523 121.921 198.529 121.748 198.54 121.57L197.18 122.724C197.128 122.765 197.076 122.791 197.024 122.802C196.972 122.813 196.922 122.815 196.873 122.807C196.829 122.8 196.788 122.785 196.751 122.763C196.717 122.737 196.69 122.711 196.667 122.685L196.327 122.211L198.724 120.143H199.61V127.334H201.154ZM202.719 127.512C202.719 127.412 202.737 127.317 202.775 127.228C202.812 127.138 202.862 127.06 202.925 126.994C202.992 126.927 203.07 126.875 203.159 126.837C203.248 126.797 203.345 126.776 203.449 126.776C203.549 126.776 203.644 126.797 203.733 126.837C203.823 126.875 203.901 126.927 203.967 126.994C204.034 127.06 204.086 127.138 204.124 127.228C204.164 127.317 204.185 127.412 204.185 127.512C204.185 127.616 204.164 127.713 204.124 127.802C204.086 127.891 204.034 127.969 203.967 128.036C203.901 128.103 203.823 128.155 203.733 128.192C203.644 128.229 203.549 128.248 203.449 128.248C203.345 128.248 203.248 128.229 203.159 128.192C203.07 128.155 202.992 128.103 202.925 128.036C202.862 127.969 202.812 127.891 202.775 127.802C202.737 127.713 202.719 127.616 202.719 127.512ZM208.21 127.389C208.463 127.389 208.688 127.354 208.885 127.283C209.082 127.213 209.249 127.114 209.386 126.988C209.524 126.858 209.628 126.704 209.699 126.525C209.769 126.347 209.805 126.152 209.805 125.94C209.805 125.68 209.762 125.457 209.676 125.271C209.591 125.082 209.476 124.927 209.331 124.808C209.186 124.686 209.017 124.597 208.823 124.541C208.63 124.481 208.426 124.452 208.21 124.452C207.991 124.452 207.785 124.481 207.592 124.541C207.398 124.597 207.229 124.686 207.084 124.808C206.939 124.927 206.824 125.082 206.739 125.271C206.657 125.457 206.616 125.68 206.616 125.94C206.616 126.152 206.651 126.347 206.722 126.525C206.793 126.704 206.897 126.858 207.034 126.988C207.172 127.114 207.339 127.213 207.536 127.283C207.733 127.354 207.958 127.389 208.21 127.389ZM208.21 120.907C207.98 120.907 207.777 120.942 207.603 121.012C207.432 121.079 207.289 121.172 207.174 121.291C207.058 121.41 206.971 121.548 206.912 121.704C206.856 121.86 206.828 122.027 206.828 122.205C206.828 122.38 206.852 122.551 206.9 122.718C206.952 122.882 207.032 123.028 207.14 123.159C207.252 123.285 207.395 123.387 207.569 123.465C207.744 123.543 207.958 123.582 208.21 123.582C208.459 123.582 208.671 123.543 208.846 123.465C209.024 123.387 209.167 123.285 209.275 123.159C209.386 123.028 209.466 122.882 209.515 122.718C209.567 122.551 209.593 122.38 209.593 122.205C209.593 122.027 209.563 121.86 209.504 121.704C209.448 121.548 209.362 121.41 209.247 121.291C209.132 121.172 208.987 121.079 208.812 121.012C208.641 120.942 208.441 120.907 208.21 120.907ZM209.409 123.989C209.907 124.138 210.284 124.377 210.54 124.708C210.8 125.039 210.93 125.457 210.93 125.962C210.93 126.312 210.864 126.628 210.73 126.91C210.6 127.192 210.414 127.434 210.172 127.635C209.935 127.832 209.648 127.984 209.314 128.092C208.98 128.199 208.612 128.253 208.21 128.253C207.809 128.253 207.441 128.199 207.107 128.092C206.772 127.984 206.484 127.832 206.243 127.635C206.005 127.434 205.819 127.192 205.685 126.91C205.555 126.628 205.49 126.312 205.49 125.962C205.49 125.457 205.618 125.039 205.875 124.708C206.135 124.377 206.514 124.138 207.012 123.989C206.599 123.833 206.289 123.601 206.081 123.292C205.873 122.98 205.769 122.61 205.769 122.183C205.769 121.886 205.826 121.609 205.942 121.353C206.061 121.092 206.226 120.868 206.438 120.678C206.653 120.489 206.912 120.34 207.213 120.232C207.514 120.124 207.846 120.07 208.21 120.07C208.574 120.07 208.907 120.124 209.208 120.232C209.509 120.34 209.765 120.489 209.977 120.678C210.193 120.868 210.358 121.092 210.473 121.353C210.592 121.609 210.652 121.886 210.652 122.183C210.652 122.61 210.548 122.98 210.34 123.292C210.132 123.601 209.821 123.833 209.409 123.989ZM213.298 122.523C213.298 123.017 213.431 123.398 213.699 123.666C213.966 123.933 214.338 124.067 214.814 124.067C215.07 124.067 215.297 124.026 215.494 123.944C215.691 123.859 215.856 123.748 215.99 123.61C216.127 123.469 216.231 123.307 216.302 123.125C216.373 122.939 216.408 122.746 216.408 122.545C216.408 122.304 216.369 122.086 216.291 121.893C216.217 121.696 216.111 121.531 215.973 121.397C215.836 121.26 215.672 121.156 215.483 121.085C215.297 121.011 215.091 120.973 214.864 120.973C214.63 120.973 214.416 121.012 214.223 121.091C214.03 121.165 213.864 121.271 213.727 121.408C213.589 121.546 213.483 121.709 213.409 121.899C213.335 122.088 213.298 122.296 213.298 122.523ZM215.494 124.998C215.639 124.808 215.774 124.623 215.901 124.441C215.7 124.593 215.475 124.708 215.226 124.786C214.981 124.864 214.719 124.903 214.44 124.903C214.147 124.903 213.864 124.853 213.593 124.753C213.325 124.652 213.088 124.506 212.88 124.312C212.675 124.115 212.512 123.874 212.389 123.588C212.266 123.302 212.205 122.973 212.205 122.601C212.205 122.252 212.27 121.923 212.4 121.614C212.53 121.306 212.712 121.038 212.946 120.812C213.184 120.581 213.467 120.401 213.794 120.271C214.124 120.137 214.487 120.07 214.881 120.07C215.271 120.07 215.624 120.134 215.94 120.26C216.259 120.386 216.531 120.565 216.754 120.795C216.977 121.022 217.149 121.295 217.272 121.614C217.395 121.934 217.456 122.285 217.456 122.668C217.456 122.902 217.434 123.125 217.389 123.337C217.348 123.549 217.287 123.755 217.205 123.956C217.127 124.156 217.03 124.355 216.915 124.552C216.804 124.745 216.676 124.944 216.531 125.149L214.608 127.908C214.556 127.982 214.479 128.043 214.379 128.092C214.282 128.14 214.171 128.164 214.045 128.164H213.047L215.494 124.998ZM224.472 124.162C224.472 124.861 224.396 125.466 224.243 125.979C224.095 126.492 223.888 126.917 223.625 127.256C223.364 127.59 223.056 127.839 222.699 128.002C222.346 128.166 221.965 128.248 221.557 128.248C221.148 128.248 220.765 128.166 220.408 128.002C220.055 127.839 219.749 127.59 219.489 127.256C219.228 126.917 219.024 126.492 218.875 125.979C218.727 125.466 218.652 124.861 218.652 124.162C218.652 123.463 218.727 122.858 218.875 122.345C219.024 121.828 219.228 121.403 219.489 121.068C219.749 120.73 220.055 120.479 220.408 120.316C220.765 120.152 221.148 120.07 221.557 120.07C221.965 120.07 222.346 120.152 222.699 120.316C223.056 120.479 223.364 120.73 223.625 121.068C223.888 121.403 224.095 121.828 224.243 122.345C224.396 122.858 224.472 123.463 224.472 124.162ZM223.346 124.162C223.346 123.56 223.296 123.056 223.195 122.651C223.099 122.246 222.967 121.921 222.8 121.676C222.636 121.427 222.447 121.25 222.231 121.146C222.016 121.042 221.791 120.99 221.557 120.99C221.322 120.99 221.098 121.042 220.882 121.146C220.667 121.25 220.475 121.427 220.308 121.676C220.144 121.921 220.014 122.246 219.918 122.651C219.821 123.056 219.773 123.56 219.773 124.162C219.773 124.764 219.821 125.267 219.918 125.672C220.014 126.078 220.144 126.403 220.308 126.648C220.475 126.893 220.667 127.068 220.882 127.172C221.098 127.276 221.322 127.328 221.557 127.328C221.791 127.328 222.016 127.276 222.231 127.172C222.447 127.068 222.636 126.893 222.8 126.648C222.967 126.403 223.099 126.078 223.195 125.672C223.296 125.267 223.346 124.764 223.346 124.162ZM231.211 122.412C231.627 122.412 232.003 122.48 232.337 122.618C232.675 122.752 232.961 122.947 233.196 123.203C233.433 123.456 233.615 123.762 233.742 124.123C233.868 124.48 233.931 124.881 233.931 125.327C233.931 125.773 233.868 126.176 233.742 126.536C233.615 126.897 233.433 127.204 233.196 127.456C232.961 127.709 232.675 127.904 232.337 128.042C232.003 128.175 231.627 128.242 231.211 128.242C230.791 128.242 230.412 128.175 230.074 128.042C229.74 127.904 229.453 127.709 229.216 127.456C228.978 127.204 228.794 126.897 228.664 126.536C228.537 126.176 228.474 125.773 228.474 125.327C228.474 124.881 228.537 124.48 228.664 124.123C228.794 123.762 228.978 123.456 229.216 123.203C229.453 122.947 229.74 122.752 230.074 122.618C230.412 122.48 230.791 122.412 231.211 122.412ZM231.211 127.395C231.746 127.395 232.146 127.215 232.41 126.854C232.673 126.494 232.805 125.987 232.805 125.332C232.805 124.678 232.673 124.171 232.41 123.811C232.146 123.447 231.746 123.264 231.211 123.264C230.669 123.264 230.264 123.447 229.996 123.811C229.732 124.171 229.6 124.678 229.6 125.332C229.6 125.987 229.732 126.494 229.996 126.854C230.264 127.215 230.669 127.395 231.211 127.395ZM236.379 123.588C236.561 123.216 236.781 122.924 237.037 122.713C237.294 122.501 237.602 122.395 237.962 122.395C238.085 122.395 238.2 122.41 238.308 122.439C238.42 122.465 238.516 122.506 238.598 122.562L238.525 123.382C238.499 123.482 238.438 123.532 238.341 123.532C238.289 123.532 238.211 123.523 238.107 123.504C238.003 123.482 237.892 123.471 237.773 123.471C237.598 123.471 237.444 123.497 237.31 123.549C237.176 123.597 237.056 123.671 236.948 123.772C236.844 123.868 236.751 123.989 236.669 124.134C236.587 124.275 236.511 124.437 236.441 124.619V128.164H235.354V122.501H235.978C236.097 122.501 236.177 122.523 236.218 122.568C236.262 122.609 236.294 122.683 236.312 122.791L236.379 123.588ZM243.101 123.872C242.922 123.638 242.729 123.474 242.521 123.382C242.316 123.289 242.086 123.242 241.83 123.242C241.332 123.242 240.945 123.422 240.67 123.783C240.399 124.14 240.263 124.662 240.263 125.349C240.263 125.71 240.293 126.018 240.352 126.274C240.416 126.527 240.505 126.735 240.62 126.899C240.739 127.059 240.884 127.178 241.055 127.256C241.226 127.33 241.419 127.367 241.635 127.367C241.95 127.367 242.224 127.296 242.454 127.155C242.684 127.014 242.9 126.815 243.101 126.559V123.872ZM244.193 119.937V128.164H243.535C243.383 128.164 243.288 128.092 243.251 127.947L243.156 127.295C242.915 127.581 242.64 127.811 242.331 127.986C242.027 128.157 241.674 128.242 241.272 128.242C240.949 128.242 240.655 128.179 240.391 128.053C240.131 127.926 239.908 127.742 239.723 127.501C239.537 127.256 239.394 126.953 239.293 126.592C239.193 126.232 239.143 125.817 239.143 125.349C239.143 124.929 239.199 124.539 239.31 124.179C239.422 123.818 239.583 123.506 239.795 123.242C240.007 122.978 240.263 122.772 240.564 122.623C240.865 122.471 241.205 122.395 241.584 122.395C241.926 122.395 242.216 122.451 242.454 122.562C242.695 122.674 242.911 122.832 243.101 123.036V119.937H244.193ZM249.67 124.703C249.67 124.487 249.638 124.288 249.575 124.106C249.516 123.924 249.427 123.766 249.308 123.632C249.189 123.499 249.044 123.395 248.873 123.32C248.702 123.246 248.505 123.209 248.282 123.209C247.825 123.209 247.464 123.341 247.201 123.604C246.94 123.868 246.775 124.234 246.704 124.703H249.67ZM250.567 127.356C250.434 127.512 250.279 127.648 250.105 127.763C249.93 127.874 249.744 127.965 249.547 128.036C249.35 128.107 249.146 128.159 248.934 128.192C248.726 128.225 248.52 128.242 248.315 128.242C247.925 128.242 247.563 128.177 247.228 128.047C246.898 127.913 246.61 127.72 246.364 127.467C246.123 127.211 245.933 126.895 245.796 126.52C245.662 126.141 245.595 125.706 245.595 125.215C245.595 124.821 245.657 124.455 245.779 124.117C245.902 123.775 246.076 123.478 246.303 123.225C246.534 122.973 246.814 122.774 247.145 122.629C247.476 122.484 247.847 122.412 248.26 122.412C248.605 122.412 248.923 122.469 249.213 122.584C249.506 122.696 249.759 122.859 249.971 123.075C250.183 123.29 250.348 123.556 250.467 123.872C250.59 124.188 250.651 124.548 250.651 124.953C250.651 125.121 250.632 125.234 250.595 125.293C250.558 125.349 250.489 125.377 250.389 125.377H246.677C246.688 125.715 246.736 126.011 246.822 126.263C246.907 126.512 247.024 126.72 247.173 126.888C247.325 127.055 247.505 127.179 247.713 127.261C247.921 127.343 248.154 127.384 248.41 127.384C248.652 127.384 248.86 127.356 249.034 127.3C249.213 127.244 249.365 127.185 249.492 127.122C249.622 127.055 249.729 126.994 249.815 126.938C249.904 126.882 249.982 126.854 250.049 126.854C250.138 126.854 250.207 126.888 250.255 126.955L250.567 127.356ZM253.054 123.588C253.236 123.216 253.455 122.924 253.712 122.713C253.968 122.501 254.277 122.395 254.637 122.395C254.76 122.395 254.875 122.41 254.983 122.439C255.094 122.465 255.191 122.506 255.272 122.562L255.2 123.382C255.174 123.482 255.113 123.532 255.016 123.532C254.964 123.532 254.886 123.523 254.782 123.504C254.678 123.482 254.566 123.471 254.448 123.471C254.273 123.471 254.119 123.497 253.985 123.549C253.851 123.597 253.73 123.671 253.623 123.772C253.518 123.868 253.426 123.989 253.344 124.134C253.262 124.275 253.186 124.437 253.115 124.619V128.164H252.028V122.501H252.653C252.772 122.501 252.851 122.523 252.892 122.568C252.937 122.609 252.968 122.683 252.987 122.791L253.054 123.588ZM259.626 123.476C259.597 123.525 259.565 123.56 259.532 123.582C259.498 123.601 259.455 123.61 259.403 123.61C259.344 123.61 259.277 123.59 259.203 123.549C259.132 123.508 259.045 123.463 258.941 123.415C258.84 123.367 258.721 123.322 258.584 123.281C258.446 123.24 258.283 123.22 258.093 123.22C257.937 123.22 257.794 123.24 257.664 123.281C257.538 123.318 257.43 123.372 257.341 123.443C257.252 123.51 257.183 123.591 257.135 123.688C257.086 123.781 257.062 123.881 257.062 123.989C257.062 124.13 257.103 124.247 257.185 124.34C257.27 124.433 257.38 124.513 257.514 124.58C257.651 124.647 257.805 124.708 257.976 124.764C258.151 124.816 258.327 124.872 258.506 124.931C258.688 124.991 258.864 125.059 259.035 125.137C259.21 125.212 259.364 125.306 259.498 125.422C259.636 125.533 259.745 125.669 259.827 125.829C259.912 125.988 259.955 126.183 259.955 126.414C259.955 126.678 259.907 126.923 259.81 127.15C259.717 127.373 259.578 127.566 259.392 127.729C259.21 127.893 258.983 128.021 258.712 128.114C258.441 128.207 258.131 128.253 257.781 128.253C257.391 128.253 257.031 128.188 256.7 128.058C256.369 127.928 256.092 127.763 255.869 127.562L256.126 127.144C256.155 127.092 256.193 127.053 256.237 127.027C256.282 126.997 256.341 126.982 256.416 126.982C256.486 126.982 256.559 127.008 256.633 127.06C256.707 127.112 256.796 127.17 256.9 127.233C257.005 127.293 257.131 127.348 257.28 127.4C257.428 127.449 257.614 127.473 257.837 127.473C258.023 127.473 258.184 127.451 258.322 127.406C258.459 127.358 258.573 127.295 258.662 127.217C258.755 127.135 258.824 127.042 258.868 126.938C258.913 126.834 258.935 126.724 258.935 126.609C258.935 126.46 258.892 126.338 258.807 126.241C258.725 126.141 258.615 126.055 258.478 125.985C258.344 125.914 258.19 125.853 258.015 125.801C257.841 125.749 257.662 125.693 257.48 125.633C257.298 125.574 257.12 125.505 256.945 125.427C256.77 125.349 256.614 125.251 256.477 125.132C256.343 125.013 256.233 124.868 256.148 124.697C256.066 124.526 256.025 124.318 256.025 124.073C256.025 123.853 256.07 123.643 256.159 123.443C256.252 123.242 256.384 123.066 256.555 122.913C256.73 122.761 256.943 122.64 257.196 122.551C257.452 122.458 257.744 122.412 258.071 122.412C258.446 122.412 258.785 122.471 259.086 122.59C259.39 122.709 259.65 122.872 259.866 123.08L259.626 123.476Z" fill="white"/>
</g>
<defs>
<filter id="filter0_d_0_11164" x="0" y="0" width="321" height="341" filterUnits="userSpaceOnUse" color-interpolation-filters="sRGB">
<feFlood flood-opacity="0" result="BackgroundImageFix"/>
<feColorMatrix in="SourceAlpha" type="matrix" values="0 0 0 0 0 0 0 0 0 0 0 0 0 0 0 0 0 0 127 0" result="hardAlpha"/>
<feOffset/>
<feGaussianBlur stdDeviation="8"/>
<feComposite in2="hardAlpha" operator="out"/>
<feColorMatrix type="matrix" values="0 0 0 0 0.2 0 0 0 0 0.2 0 0 0 0 0.2 0 0 0 0.1 0"/>
<feBlend mode="normal" in2="BackgroundImageFix" result="effect1_dropShadow_0_11164"/>
<feBlend mode="normal" in="SourceGraphic" in2="effect1_dropShadow_0_11164" result="shape"/>
</filter>
</defs>
</svg>
