<svg width="667" height="342" viewBox="0 0 667 342" fill="none" xmlns="http://www.w3.org/2000/svg">
<g filter="url(#filter0_d_0_11037)">
<rect x="16" y="16" width="634.941" height="309.483" rx="16" fill="white" shape-rendering="crispEdges"/>
<rect x="32" y="32" width="21" height="20" rx="10" fill="#E5EAF1"/>
<path d="M39.6044 38.7273V46H38.2869V40.0092H38.2443L36.5433 41.0959V39.8885L38.3509 38.7273H39.6044ZM43.9865 46H41.522V38.7273H44.0362C44.7583 38.7273 45.3786 38.8729 45.897 39.1641C46.4179 39.4529 46.8179 39.8684 47.0973 40.4105C47.3767 40.9527 47.5163 41.6013 47.5163 42.3565C47.5163 43.1141 47.3755 43.7652 47.0938 44.3097C46.8144 44.8542 46.4107 45.272 45.8828 45.5632C45.3572 45.8544 44.7251 46 43.9865 46ZM42.8395 44.8601H43.9226C44.4292 44.8601 44.8518 44.7678 45.1903 44.5831C45.5289 44.3961 45.7834 44.1179 45.9538 43.7486C46.1243 43.3769 46.2095 42.9129 46.2095 42.3565C46.2095 41.8002 46.1243 41.3385 45.9538 40.9716C45.7834 40.6023 45.5313 40.3265 45.1974 40.1442C44.866 39.9595 44.4541 39.8672 43.9616 39.8672H42.8395V44.8601Z" fill="#7D7D7D"/>
<rect x="108" y="32" width="23" height="20" rx="10" fill="#E7BFFF"/>
<path d="M115.604 38.7273V46H114.287V40.0092H114.244L112.543 41.0959V39.8885L114.351 38.7273H115.604ZM119.053 46L117 38.7273H118.417L119.727 44.0717H119.795L121.194 38.7273H122.483L123.886 44.0753H123.95L125.26 38.7273H126.677L124.624 46H123.325L121.869 40.897H121.812L120.352 46H119.053Z" fill="#CB77FF"/>
<rect x="186" y="32" width="22" height="20" rx="10" fill="#E5EAF1"/>
<path d="M193.604 38.7273V46H192.287V40.0092H192.244L190.543 41.0959V39.8885L192.351 38.7273H193.604ZM195.522 38.7273H197.134L199.293 43.9972H199.379L201.538 38.7273H203.15V46H201.886V41.0036H201.818L199.808 45.9787H198.864L196.854 40.9929H196.786V46H195.522V38.7273Z" fill="#7D7D7D"/>
<rect x="263" y="32" width="20" height="20" rx="10" fill="#E5EAF1"/>
<path d="M270.604 38.7273V46H269.287V40.0092H269.244L267.543 41.0959V39.8885L269.351 38.7273H270.604ZM272.025 38.7273H273.513L275.292 41.9446H275.363L277.142 38.7273H278.63L275.984 43.2869V46H274.67V43.2869L272.025 38.7273Z" fill="#7D7D7D"/>
<rect x="545.822" y="32" width="87.8229" height="25.933" rx="5.18659" fill="#333333" fill-opacity="0.1"/>
<path d="M554.886 47.4665H553.792L555.784 41.8084H557.05L559.044 47.4665H557.95L556.439 42.9687H556.395L554.886 47.4665ZM554.922 45.248H557.906V46.0713H554.922V45.248ZM560.745 41.8084V47.4665H559.745V41.8084H560.745ZM562.774 41.8084V47.4665H561.774V41.8084H562.774ZM565.776 47.4665V41.8084H567.898C568.333 41.8084 568.698 41.8839 568.992 42.0349C569.289 42.186 569.513 42.3978 569.664 42.6704C569.816 42.9411 569.893 43.257 569.893 43.618C569.893 43.9808 569.816 44.2958 569.661 44.5628C569.508 44.8281 569.282 45.0334 568.984 45.1789C568.686 45.3226 568.319 45.3944 567.884 45.3944H566.373V44.5435H567.746C568 44.5435 568.209 44.5085 568.371 44.4385C568.533 44.3667 568.652 44.2626 568.73 44.1263C568.809 43.9882 568.849 43.8187 568.849 43.618C568.849 43.4172 568.809 43.2459 568.73 43.1041C568.651 42.9604 568.53 42.8518 568.368 42.7781C568.206 42.7026 567.997 42.6648 567.741 42.6648H566.801V47.4665H565.776ZM568.699 44.9026L570.1 47.4665H568.956L567.58 44.9026H568.699ZM572.61 47.5494C572.185 47.5494 571.817 47.461 571.508 47.2841C571.2 47.1055 570.963 46.8531 570.798 46.5271C570.632 46.1993 570.549 45.8134 570.549 45.3696C570.549 44.933 570.632 44.5499 570.798 44.2203C570.965 43.8887 571.199 43.6309 571.499 43.4467C571.8 43.2607 572.152 43.1676 572.558 43.1676C572.819 43.1676 573.066 43.21 573.298 43.2947C573.532 43.3776 573.738 43.5065 573.917 43.6815C574.097 43.8565 574.239 44.0794 574.342 44.3501C574.445 44.619 574.497 44.9395 574.497 45.3115V45.6182H571.019V44.9441H573.538C573.536 44.7525 573.495 44.5822 573.414 44.433C573.333 44.282 573.22 44.1632 573.074 44.0766C572.931 43.99 572.763 43.9467 572.571 43.9467C572.367 43.9467 572.187 43.9965 572.033 44.0959C571.878 44.1935 571.757 44.3225 571.671 44.4827C571.586 44.6411 571.543 44.8152 571.541 45.0049V45.5933C571.541 45.8401 571.586 46.052 571.676 46.2288C571.766 46.4037 571.893 46.5382 572.055 46.6321C572.217 46.7242 572.407 46.7703 572.624 46.7703C572.769 46.7703 572.901 46.75 573.019 46.7095C573.137 46.6671 573.239 46.6054 573.326 46.5244C573.412 46.4433 573.478 46.343 573.522 46.2232L574.456 46.3282C574.397 46.575 574.284 46.7905 574.119 46.9747C573.955 47.157 573.745 47.2989 573.489 47.4002C573.233 47.4996 572.94 47.5494 572.61 47.5494ZM578.697 44.3446L577.785 44.444C577.76 44.3519 577.714 44.2654 577.65 44.1843C577.587 44.1033 577.503 44.0379 577.396 43.9882C577.289 43.9385 577.158 43.9136 577.003 43.9136C576.795 43.9136 576.62 43.9587 576.479 44.049C576.339 44.1392 576.27 44.2562 576.271 44.3998C576.27 44.5232 576.315 44.6236 576.407 44.701C576.501 44.7783 576.655 44.8419 576.871 44.8916L577.595 45.0463C577.996 45.1329 578.295 45.2701 578.49 45.458C578.687 45.6458 578.786 45.8917 578.788 46.1956C578.786 46.4627 578.708 46.6984 578.553 46.9029C578.401 47.1055 578.188 47.2639 577.915 47.3781C577.643 47.4923 577.329 47.5494 576.976 47.5494C576.456 47.5494 576.038 47.4407 575.722 47.2234C575.405 47.0042 575.216 46.6994 575.155 46.3089L576.13 46.215C576.175 46.4065 576.269 46.5511 576.412 46.6487C576.556 46.7463 576.743 46.7951 576.973 46.7951C577.211 46.7951 577.401 46.7463 577.545 46.6487C577.69 46.5511 577.763 46.4304 577.763 46.2868C577.763 46.1652 577.716 46.0648 577.622 45.9856C577.53 45.9064 577.387 45.8457 577.191 45.8033L576.468 45.6514C576.06 45.5666 575.759 45.4239 575.564 45.2231C575.369 45.0205 575.272 44.7645 575.274 44.4551C575.272 44.1935 575.343 43.967 575.487 43.7754C575.632 43.5821 575.834 43.4329 576.092 43.3279C576.351 43.2211 576.651 43.1676 576.99 43.1676C577.487 43.1676 577.878 43.2736 578.164 43.4854C578.451 43.6972 578.629 43.9836 578.697 44.3446ZM581.732 43.2229V43.9965H579.292V43.2229H581.732ZM579.895 42.2062H580.895V46.1901C580.895 46.3245 580.915 46.4277 580.956 46.4995C580.998 46.5695 581.053 46.6174 581.121 46.6432C581.19 46.669 581.265 46.6819 581.348 46.6819C581.411 46.6819 581.468 46.6773 581.519 46.668C581.573 46.6588 581.613 46.6505 581.641 46.6432L581.809 47.425C581.756 47.4435 581.679 47.4637 581.58 47.4858C581.482 47.5079 581.363 47.5208 581.221 47.5245C580.97 47.5319 580.745 47.4941 580.544 47.4112C580.343 47.3265 580.184 47.1957 580.066 47.0189C579.95 46.8421 579.893 46.6211 579.895 46.3559V42.2062ZM583.789 47.5521C583.521 47.5521 583.278 47.5042 583.063 47.4085C582.849 47.3108 582.68 47.1672 582.555 46.9775C582.431 46.7878 582.369 46.5538 582.369 46.2757C582.369 46.0363 582.414 45.8383 582.502 45.6817C582.59 45.5252 582.711 45.3999 582.864 45.306C583.017 45.2121 583.189 45.1412 583.381 45.0933C583.574 45.0435 583.774 45.0076 583.98 44.9855C584.229 44.9597 584.43 44.9367 584.585 44.9165C584.74 44.8944 584.852 44.8612 584.922 44.817C584.994 44.771 585.03 44.7 585.03 44.6043V44.5877C585.03 44.3796 584.968 44.2184 584.845 44.1042C584.721 43.99 584.544 43.9329 584.312 43.9329C584.067 43.9329 583.872 43.9863 583.729 44.0932C583.587 44.2 583.491 44.3262 583.441 44.4717L582.508 44.339C582.581 44.0812 582.703 43.8657 582.872 43.6926C583.042 43.5176 583.249 43.3868 583.494 43.3003C583.739 43.2118 584.01 43.1676 584.306 43.1676C584.511 43.1676 584.714 43.1916 584.917 43.2395C585.119 43.2874 585.304 43.3666 585.472 43.4771C585.64 43.5857 585.774 43.734 585.875 43.9219C585.979 44.1097 586.03 44.3446 586.03 44.6264V47.4665H585.069V46.8835H585.035C584.975 47.0014 584.889 47.1119 584.779 47.2151C584.67 47.3164 584.533 47.3983 584.367 47.461C584.203 47.5217 584.011 47.5521 583.789 47.5521ZM584.049 46.8172C584.25 46.8172 584.424 46.7776 584.571 46.6984C584.719 46.6174 584.832 46.5106 584.911 46.378C584.992 46.2453 585.033 46.1008 585.033 45.9442V45.4441C585.001 45.4699 584.948 45.4939 584.872 45.516C584.799 45.5381 584.716 45.5574 584.624 45.574C584.532 45.5906 584.441 45.6053 584.35 45.6182C584.26 45.6311 584.182 45.6421 584.115 45.6514C583.966 45.6716 583.833 45.7048 583.715 45.7508C583.597 45.7969 583.504 45.8613 583.436 45.9442C583.368 46.0252 583.334 46.1302 583.334 46.2592C583.334 46.4433 583.401 46.5824 583.535 46.6763C583.67 46.7703 583.841 46.8172 584.049 46.8172ZM589.74 45.6817V43.2229H590.741V47.4665H589.771V46.7122H589.727C589.631 46.9498 589.473 47.1442 589.254 47.2952C589.037 47.4462 588.769 47.5217 588.45 47.5217C588.172 47.5217 587.926 47.46 587.713 47.3366C587.501 47.2114 587.335 47.03 587.215 46.7924C587.096 46.5529 587.036 46.2638 587.036 45.9249V43.2229H588.036V45.7702C588.036 46.0391 588.11 46.2527 588.257 46.4111C588.404 46.5695 588.598 46.6487 588.837 46.6487C588.984 46.6487 589.127 46.6128 589.265 46.541C589.403 46.4691 589.517 46.3623 589.605 46.2205C589.695 46.0768 589.74 45.8972 589.74 45.6817ZM591.769 47.4665V43.2229H592.739V43.9302H592.783C592.86 43.6852 592.993 43.4964 593.181 43.3638C593.37 43.2293 593.587 43.1621 593.83 43.1621C593.885 43.1621 593.947 43.1649 594.015 43.1704C594.085 43.1741 594.143 43.1805 594.189 43.1897V44.1097C594.147 44.095 594.08 44.0821 593.987 44.0711C593.897 44.0582 593.81 44.0517 593.725 44.0517C593.543 44.0517 593.379 44.0913 593.233 44.1705C593.09 44.2479 592.976 44.3556 592.893 44.4938C592.811 44.6319 592.769 44.7912 592.769 44.9717V47.4665H591.769ZM595.999 47.5521C595.73 47.5521 595.488 47.5042 595.272 47.4085C595.058 47.3108 594.889 47.1672 594.764 46.9775C594.64 46.7878 594.579 46.5538 594.579 46.2757C594.579 46.0363 594.623 45.8383 594.711 45.6817C594.8 45.5252 594.92 45.3999 595.073 45.306C595.226 45.2121 595.398 45.1412 595.59 45.0933C595.783 45.0435 595.983 45.0076 596.189 44.9855C596.438 44.9597 596.64 44.9367 596.794 44.9165C596.949 44.8944 597.061 44.8612 597.131 44.817C597.203 44.771 597.239 44.7 597.239 44.6043V44.5877C597.239 44.3796 597.178 44.2184 597.054 44.1042C596.931 43.99 596.753 43.9329 596.521 43.9329C596.276 43.9329 596.082 43.9863 595.938 44.0932C595.796 44.2 595.7 44.3262 595.651 44.4717L594.717 44.339C594.791 44.0812 594.912 43.8657 595.082 43.6926C595.251 43.5176 595.458 43.3868 595.703 43.3003C595.948 43.2118 596.219 43.1676 596.515 43.1676C596.72 43.1676 596.923 43.1916 597.126 43.2395C597.329 43.2874 597.514 43.3666 597.681 43.4771C597.849 43.5857 597.983 43.734 598.085 43.9219C598.188 44.1097 598.239 44.3446 598.239 44.6264V47.4665H597.278V46.8835H597.245C597.184 47.0014 597.098 47.1119 596.988 47.2151C596.879 47.3164 596.742 47.3983 596.576 47.461C596.412 47.5217 596.22 47.5521 595.999 47.5521ZM596.258 46.8172C596.459 46.8172 596.633 46.7776 596.781 46.6984C596.928 46.6174 597.041 46.5106 597.12 46.378C597.201 46.2453 597.242 46.1008 597.242 45.9442V45.4441C597.211 45.4699 597.157 45.4939 597.082 45.516C597.008 45.5381 596.925 45.5574 596.833 45.574C596.741 45.5906 596.65 45.6053 596.56 45.6182C596.469 45.6311 596.391 45.6421 596.325 45.6514C596.176 45.6716 596.042 45.7048 595.924 45.7508C595.806 45.7969 595.713 45.8613 595.645 45.9442C595.577 46.0252 595.543 46.1302 595.543 46.2592C595.543 46.4433 595.61 46.5824 595.745 46.6763C595.879 46.7703 596.05 46.8172 596.258 46.8172ZM600.245 44.98V47.4665H599.245V43.2229H600.201V43.944H600.251C600.348 43.7064 600.504 43.5176 600.718 43.3776C600.933 43.2376 601.199 43.1676 601.516 43.1676C601.809 43.1676 602.064 43.2303 602.281 43.3555C602.5 43.4808 602.67 43.6622 602.79 43.8998C602.911 44.1374 602.971 44.4256 602.969 44.7645V47.4665H601.969V44.9192C601.969 44.6356 601.895 44.4136 601.748 44.2534C601.603 44.0932 601.401 44.013 601.143 44.013C600.968 44.013 600.812 44.0517 600.676 44.1291C600.542 44.2046 600.436 44.3142 600.358 44.4578C600.283 44.6015 600.245 44.7756 600.245 44.98ZM606.105 43.2229V43.9965H603.665V43.2229H606.105ZM604.268 42.2062H605.268V46.1901C605.268 46.3245 605.288 46.4277 605.329 46.4995C605.371 46.5695 605.426 46.6174 605.494 46.6432C605.562 46.669 605.638 46.6819 605.721 46.6819C605.783 46.6819 605.841 46.6773 605.892 46.668C605.946 46.6588 605.986 46.6505 606.014 46.6432L606.182 47.425C606.129 47.4435 606.052 47.4637 605.953 47.4858C605.855 47.5079 605.736 47.5208 605.594 47.5245C605.343 47.5319 605.118 47.4941 604.917 47.4112C604.716 47.3265 604.557 47.1957 604.439 47.0189C604.323 46.8421 604.266 46.6211 604.268 46.3559V42.2062ZM610.234 44.3446L609.323 44.444C609.297 44.3519 609.252 44.2654 609.187 44.1843C609.125 44.1033 609.04 44.0379 608.933 43.9882C608.826 43.9385 608.696 43.9136 608.541 43.9136C608.333 43.9136 608.158 43.9587 608.016 44.049C607.876 44.1392 607.807 44.2562 607.809 44.3998C607.807 44.5232 607.852 44.6236 607.944 44.701C608.038 44.7783 608.193 44.8419 608.408 44.8916L609.132 45.0463C609.534 45.1329 609.832 45.2701 610.027 45.458C610.224 45.6458 610.324 45.8917 610.326 46.1956C610.324 46.4627 610.246 46.6984 610.091 46.9029C609.938 47.1055 609.725 47.2639 609.453 47.3781C609.18 47.4923 608.867 47.5494 608.513 47.5494C607.994 47.5494 607.576 47.4407 607.259 47.2234C606.942 47.0042 606.753 46.6994 606.693 46.3089L607.668 46.215C607.712 46.4065 607.806 46.5511 607.95 46.6487C608.093 46.7463 608.28 46.7951 608.511 46.7951C608.748 46.7951 608.939 46.7463 609.082 46.6487C609.228 46.5511 609.301 46.4304 609.301 46.2868C609.301 46.1652 609.254 46.0648 609.16 45.9856C609.068 45.9064 608.924 45.8457 608.729 45.8033L608.005 45.6514C607.598 45.5666 607.297 45.4239 607.102 45.2231C606.906 45.0205 606.81 44.7645 606.811 44.4551C606.81 44.1935 606.881 43.967 607.024 43.7754C607.17 43.5821 607.371 43.4329 607.629 43.3279C607.889 43.2211 608.188 43.1676 608.527 43.1676C609.024 43.1676 609.416 43.2736 609.701 43.4854C609.989 43.6972 610.166 43.9836 610.234 44.3446Z" fill="#707070"/>
<path d="M618.085 43.4065L620.479 46.2794C620.583 46.4038 620.774 46.4038 620.877 46.2794L623.272 43.4065" stroke="#707070" stroke-width="0.777989" stroke-linecap="round"/>
<path d="M35.004 81.0782V87.6793H34.2047V81.9163H34.166L32.5544 82.9864V82.1741L34.2047 81.0782H35.004ZM39.1464 87.7696C38.6607 87.7696 38.2471 87.6374 37.9054 87.3731C37.5638 87.1067 37.3027 86.721 37.1222 86.216C36.9417 85.7089 36.8514 85.0965 36.8514 84.3788C36.8514 83.6654 36.9417 83.0562 37.1222 82.5512C37.3048 82.0441 37.567 81.6573 37.9086 81.3909C38.2525 81.1223 38.665 80.988 39.1464 80.988C39.6277 80.988 40.0392 81.1223 40.3808 81.3909C40.7246 81.6573 40.9868 82.0441 41.1673 82.5512C41.35 83.0562 41.4413 83.6654 41.4413 84.3788C41.4413 85.0965 41.351 85.7089 41.1705 86.216C40.99 86.721 40.7289 87.1067 40.3873 87.3731C40.0456 87.6374 39.632 87.7696 39.1464 87.7696ZM39.1464 87.0605C39.6277 87.0605 40.0016 86.8284 40.268 86.3643C40.5345 85.9001 40.6677 85.2383 40.6677 84.3788C40.6677 83.8072 40.6065 83.3205 40.484 82.9187C40.3637 82.5168 40.1896 82.2106 39.9618 82.0001C39.7362 81.7895 39.4644 81.6842 39.1464 81.6842C38.6693 81.6842 38.2965 81.9195 38.0279 82.3901C37.7593 82.8585 37.625 83.5214 37.625 84.3788C37.625 84.9504 37.6852 85.436 37.8055 85.8357C37.9258 86.2353 38.0988 86.5394 38.3244 86.7478C38.5522 86.9563 38.8262 87.0605 39.1464 87.0605ZM44.91 87.7696C44.4243 87.7696 44.0107 87.6374 43.669 87.3731C43.3274 87.1067 43.0663 86.721 42.8858 86.216C42.7053 85.7089 42.615 85.0965 42.615 84.3788C42.615 83.6654 42.7053 83.0562 42.8858 82.5512C43.0684 82.0441 43.3306 81.6573 43.6722 81.3909C44.0161 81.1223 44.4286 80.988 44.91 80.988C45.3913 80.988 45.8028 81.1223 46.1444 81.3909C46.4883 81.6573 46.7504 82.0441 46.9309 82.5512C47.1136 83.0562 47.2049 83.6654 47.2049 84.3788C47.2049 85.0965 47.1146 85.7089 46.9341 86.216C46.7536 86.721 46.4925 87.1067 46.1509 87.3731C45.8092 87.6374 45.3956 87.7696 44.91 87.7696ZM44.91 87.0605C45.3913 87.0605 45.7652 86.8284 46.0316 86.3643C46.2981 85.9001 46.4313 85.2383 46.4313 84.3788C46.4313 83.8072 46.3701 83.3205 46.2476 82.9187C46.1273 82.5168 45.9532 82.2106 45.7254 82.0001C45.4998 81.7895 45.228 81.6842 44.91 81.6842C44.4329 81.6842 44.0601 81.9195 43.7915 82.3901C43.5229 82.8585 43.3886 83.5214 43.3886 84.3788C43.3886 84.9504 43.4488 85.436 43.5691 85.8357C43.6894 86.2353 43.8624 86.5394 44.088 86.7478C44.3158 86.9563 44.5898 87.0605 44.91 87.0605ZM49.2425 85.8743L49.2296 84.9332H49.3843L51.5503 82.7285H52.4914L50.1836 85.0621H50.1192L49.2425 85.8743ZM48.5334 87.6793V81.0782H49.294V87.6793H48.5334ZM51.6792 87.6793L49.7453 85.2297L50.2868 84.7011L52.6462 87.6793H51.6792Z" fill="#999999"/>
<path d="M34.7977 133.644C34.3551 133.644 33.964 133.565 33.6245 133.409C33.2871 133.25 33.0239 133.031 32.8348 132.754C32.6457 132.475 32.5522 132.157 32.5544 131.8C32.5522 131.521 32.607 131.263 32.7188 131.027C32.8305 130.788 32.9831 130.589 33.1765 130.43C33.372 130.269 33.5901 130.167 33.8308 130.124V130.085C33.5149 130.004 33.2635 129.827 33.0765 129.554C32.8896 129.279 32.7972 128.966 32.7994 128.616C32.7972 128.28 32.8821 127.981 33.054 127.716C33.2259 127.452 33.4623 127.244 33.7631 127.091C34.0661 126.939 34.411 126.862 34.7977 126.862C35.1802 126.862 35.5219 126.939 35.8227 127.091C36.1235 127.244 36.3599 127.452 36.5318 127.716C36.7059 127.981 36.794 128.28 36.7961 128.616C36.794 128.966 36.6984 129.279 36.5093 129.554C36.3223 129.827 36.0741 130.004 35.7647 130.085V130.124C36.0032 130.167 36.2181 130.269 36.4093 130.43C36.6006 130.589 36.7531 130.788 36.867 131.027C36.9809 131.263 37.0389 131.521 37.0411 131.8C37.0389 132.157 36.9422 132.475 36.751 132.754C36.5619 133.031 36.2987 133.25 35.9613 133.409C35.6261 133.565 35.2382 133.644 34.7977 133.644ZM34.7977 132.935C35.0964 132.935 35.3543 132.886 35.5713 132.79C35.7883 132.693 35.9559 132.557 36.0741 132.38C36.1923 132.204 36.2525 131.998 36.2546 131.762C36.2525 131.512 36.188 131.292 36.0612 131.101C35.9345 130.91 35.7615 130.759 35.5423 130.65C35.3253 130.54 35.0771 130.485 34.7977 130.485C34.5162 130.485 34.2648 130.54 34.0435 130.65C33.8243 130.759 33.6514 130.91 33.5246 131.101C33.3999 131.292 33.3387 131.512 33.3409 131.762C33.3387 131.998 33.3956 132.204 33.5117 132.38C33.6299 132.557 33.7985 132.693 34.0177 132.79C34.2369 132.886 34.4969 132.935 34.7977 132.935ZM34.7977 129.802C35.0341 129.802 35.2436 129.755 35.4263 129.66C35.6111 129.565 35.7561 129.433 35.8614 129.264C35.9667 129.094 36.0204 128.895 36.0226 128.667C36.0204 128.444 35.9678 128.249 35.8646 128.084C35.7615 127.916 35.6186 127.787 35.4359 127.697C35.2533 127.605 35.0406 127.558 34.7977 127.558C34.5506 127.558 34.3347 127.605 34.1499 127.697C33.9651 127.787 33.8222 127.916 33.7212 128.084C33.6202 128.249 33.5708 128.444 33.5729 128.667C33.5708 128.895 33.6213 129.094 33.7244 129.264C33.8297 129.433 33.9747 129.565 34.1595 129.66C34.3443 129.755 34.5571 129.802 34.7977 129.802ZM40.5202 133.644C40.0346 133.644 39.621 133.512 39.2793 133.247C38.9377 132.981 38.6766 132.595 38.4961 132.09C38.3156 131.583 38.2253 130.971 38.2253 130.253C38.2253 129.54 38.3156 128.93 38.4961 128.426C38.6787 127.918 38.9409 127.532 39.2825 127.265C39.6263 126.997 40.0389 126.862 40.5202 126.862C41.0016 126.862 41.4131 126.997 41.7547 127.265C42.0985 127.532 42.3607 127.918 42.5412 128.426C42.7238 128.93 42.8152 129.54 42.8152 130.253C42.8152 130.971 42.7249 131.583 42.5444 132.09C42.3639 132.595 42.1028 132.981 41.7612 133.247C41.4195 133.512 41.0059 133.644 40.5202 133.644ZM40.5202 132.935C41.0016 132.935 41.3755 132.703 41.6419 132.239C41.9084 131.774 42.0416 131.113 42.0416 130.253C42.0416 129.682 41.9804 129.195 41.8579 128.793C41.7375 128.391 41.5635 128.085 41.3357 127.874C41.1101 127.664 40.8383 127.558 40.5202 127.558C40.0432 127.558 39.6704 127.794 39.4018 128.264C39.1332 128.733 38.9989 129.396 38.9989 130.253C38.9989 130.825 39.0591 131.31 39.1794 131.71C39.2997 132.11 39.4727 132.414 39.6983 132.622C39.9261 132.831 40.2001 132.935 40.5202 132.935ZM44.8527 131.749L44.8399 130.807H44.9946L47.1606 128.603H48.1017L45.7939 130.936H45.7295L44.8527 131.749ZM44.1436 133.554V126.953H44.9043V133.554H44.1436ZM47.2895 133.554L45.3556 131.104L45.8971 130.575L48.2564 133.554H47.2895Z" fill="#999999"/>
<path d="M34.8751 179.518C34.6043 179.514 34.3336 179.462 34.0628 179.363C33.7921 179.265 33.545 179.098 33.3215 178.864C33.098 178.628 32.9186 178.308 32.7832 177.907C32.6479 177.503 32.5802 176.996 32.5802 176.385C32.5802 175.801 32.635 175.283 32.7446 174.832C32.8541 174.378 33.0132 173.997 33.2216 173.687C33.43 173.376 33.6814 173.139 33.9758 172.978C34.2724 172.817 34.6065 172.737 34.9782 172.737C35.3478 172.737 35.6766 172.811 35.9645 172.959C36.2546 173.105 36.491 173.309 36.6736 173.571C36.8563 173.834 36.9745 174.135 37.0282 174.477H36.2417C36.1687 174.181 36.0269 173.935 35.8163 173.739C35.6057 173.543 35.3263 173.446 34.9782 173.446C34.4668 173.446 34.0639 173.668 33.7695 174.113C33.4773 174.558 33.3301 175.182 33.328 175.986H33.3795C33.4999 175.803 33.6428 175.647 33.8082 175.518C33.9758 175.387 34.1606 175.286 34.3626 175.215C34.5646 175.144 34.7784 175.109 35.004 175.109C35.3822 175.109 35.7282 175.203 36.0419 175.392C36.3556 175.579 36.607 175.838 36.7961 176.169C36.9852 176.498 37.0798 176.875 37.0798 177.301C37.0798 177.709 36.9884 178.083 36.8058 178.422C36.6231 178.76 36.3664 179.028 36.0354 179.228C35.7067 179.426 35.3199 179.522 34.8751 179.518ZM34.8751 178.809C35.1458 178.809 35.3887 178.741 35.6035 178.606C35.8206 178.471 35.9914 178.289 36.116 178.061C36.2428 177.834 36.3062 177.58 36.3062 177.301C36.3062 177.028 36.245 176.78 36.1225 176.556C36.0021 176.33 35.8356 176.151 35.6229 176.018C35.4123 175.885 35.1716 175.818 34.9009 175.818C34.6967 175.818 34.5066 175.859 34.3304 175.94C34.1542 176.02 33.9995 176.13 33.8662 176.269C33.7352 176.409 33.632 176.569 33.5568 176.749C33.4816 176.928 33.444 177.116 33.444 177.314C33.444 177.576 33.5052 177.821 33.6277 178.048C33.7523 178.276 33.9221 178.46 34.137 178.6C34.354 178.739 34.6 178.809 34.8751 178.809ZM40.5912 179.518C40.1055 179.518 39.6919 179.386 39.3502 179.122C39.0086 178.855 38.7475 178.47 38.567 177.965C38.3865 177.457 38.2962 176.845 38.2962 176.127C38.2962 175.414 38.3865 174.805 38.567 174.3C38.7496 173.793 39.0118 173.406 39.3534 173.139C39.6973 172.871 40.1098 172.737 40.5912 172.737C41.0725 172.737 41.484 172.871 41.8256 173.139C42.1695 173.406 42.4316 173.793 42.6121 174.3C42.7948 174.805 42.8861 175.414 42.8861 176.127C42.8861 176.845 42.7958 177.457 42.6153 177.965C42.4348 178.47 42.1737 178.855 41.8321 179.122C41.4904 179.386 41.0768 179.518 40.5912 179.518ZM40.5912 178.809C41.0725 178.809 41.4464 178.577 41.7128 178.113C41.9793 177.649 42.1125 176.987 42.1125 176.127C42.1125 175.556 42.0513 175.069 41.9288 174.667C41.8085 174.265 41.6344 173.959 41.4066 173.749C41.181 173.538 40.9092 173.433 40.5912 173.433C40.1141 173.433 39.7413 173.668 39.4727 174.139C39.2041 174.607 39.0698 175.27 39.0698 176.127C39.0698 176.699 39.13 177.185 39.2503 177.584C39.3706 177.984 39.5436 178.288 39.7692 178.496C39.997 178.705 40.271 178.809 40.5912 178.809ZM44.9237 177.623L44.9108 176.682H45.0655L47.2315 174.477H48.1726L45.8648 176.811H45.8004L44.9237 177.623ZM44.2145 179.428V172.827H44.9752V179.428H44.2145ZM47.3604 179.428L45.4265 176.978L45.968 176.45L48.3274 179.428H47.3604Z" fill="#999999"/>
<path d="M32.5286 223.949V223.291L35.4295 218.701H35.9065V219.72H35.5842L33.3924 223.188V223.239H37.2989V223.949H32.5286ZM35.6358 225.302V223.749V223.442V218.701H36.3964V225.302H35.6358ZM40.7507 225.393C40.2651 225.393 39.8514 225.26 39.5098 224.996C39.1681 224.73 38.907 224.344 38.7265 223.839C38.546 223.332 38.4558 222.719 38.4558 222.002C38.4558 221.288 38.546 220.679 38.7265 220.174C38.9092 219.667 39.1713 219.28 39.513 219.014C39.8568 218.745 40.2694 218.611 40.7507 218.611C41.232 218.611 41.6435 218.745 41.9852 219.014C42.329 219.28 42.5912 219.667 42.7717 220.174C42.9543 220.679 43.0456 221.288 43.0456 222.002C43.0456 222.719 42.9554 223.332 42.7749 223.839C42.5944 224.344 42.3333 224.73 41.9916 224.996C41.65 225.26 41.2363 225.393 40.7507 225.393ZM40.7507 224.683C41.232 224.683 41.6059 224.451 41.8724 223.987C42.1388 223.523 42.2721 222.861 42.2721 222.002C42.2721 221.43 42.2108 220.943 42.0883 220.542C41.968 220.14 41.7939 219.834 41.5662 219.623C41.3405 219.412 41.0687 219.307 40.7507 219.307C40.2737 219.307 39.9009 219.542 39.6323 220.013C39.3637 220.481 39.2294 221.144 39.2294 222.002C39.2294 222.573 39.2895 223.059 39.4099 223.459C39.5302 223.858 39.7032 224.162 39.9288 224.371C40.1566 224.579 40.4305 224.683 40.7507 224.683ZM45.0832 223.497L45.0703 222.556H45.225L47.391 220.351H48.3322L46.0244 222.685H45.9599L45.0832 223.497ZM44.3741 225.302V218.701H45.1348V225.302H44.3741ZM47.5199 225.302L45.586 222.853L46.1275 222.324L48.4869 225.302H47.5199Z" fill="#999999"/>
<path d="M32.6833 271.177V270.596L34.8622 268.211C35.1179 267.932 35.3285 267.689 35.494 267.483C35.6594 267.274 35.7819 267.079 35.8614 266.896C35.9431 266.711 35.9839 266.518 35.9839 266.316C35.9839 266.084 35.928 265.883 35.8163 265.713C35.7067 265.543 35.5563 265.412 35.365 265.32C35.1738 265.228 34.9589 265.181 34.7204 265.181C34.4668 265.181 34.2455 265.234 34.0564 265.339C33.8695 265.442 33.7244 265.588 33.6213 265.774C33.5203 265.961 33.4698 266.181 33.4698 266.432H32.7091C32.7091 266.045 32.7983 265.706 32.9766 265.413C33.155 265.121 33.3978 264.893 33.7051 264.73C34.0145 264.567 34.3615 264.485 34.7462 264.485C35.133 264.485 35.4757 264.567 35.7744 264.73C36.0731 264.893 36.3073 265.114 36.477 265.391C36.6468 265.668 36.7317 265.976 36.7317 266.316C36.7317 266.559 36.6876 266.796 36.5995 267.028C36.5136 267.258 36.3631 267.515 36.1483 267.799C35.9355 268.08 35.6401 268.424 35.2619 268.83L33.7792 270.416V270.467H36.8477V271.177H32.6833ZM40.4227 271.267C39.9371 271.267 39.5235 271.135 39.1818 270.87C38.8402 270.604 38.5791 270.218 38.3986 269.713C38.2181 269.206 38.1278 268.594 38.1278 267.876C38.1278 267.163 38.2181 266.553 38.3986 266.048C38.5812 265.541 38.8434 265.155 39.185 264.888C39.5288 264.619 39.9414 264.485 40.4227 264.485C40.9041 264.485 41.3156 264.619 41.6572 264.888C42.001 265.155 42.2632 265.541 42.4437 266.048C42.6263 266.553 42.7177 267.163 42.7177 267.876C42.7177 268.594 42.6274 269.206 42.4469 269.713C42.2664 270.218 42.0053 270.604 41.6637 270.87C41.322 271.135 40.9084 271.267 40.4227 271.267ZM40.4227 270.558C40.9041 270.558 41.278 270.326 41.5444 269.861C41.8109 269.397 41.9441 268.736 41.9441 267.876C41.9441 267.304 41.8829 266.818 41.7604 266.416C41.64 266.014 41.466 265.708 41.2382 265.497C41.0126 265.287 40.7408 265.181 40.4227 265.181C39.9457 265.181 39.5729 265.417 39.3043 265.887C39.0357 266.356 38.9014 267.019 38.9014 267.876C38.9014 268.448 38.9616 268.933 39.0819 269.333C39.2022 269.733 39.3752 270.037 39.6008 270.245C39.8286 270.453 40.1026 270.558 40.4227 270.558ZM44.7552 269.372L44.7423 268.43H44.8971L47.0631 266.226H48.0042L45.6964 268.559H45.632L44.7552 269.372ZM44.0461 271.177V264.575H44.8068V271.177H44.0461ZM47.192 271.177L45.2581 268.727L45.7996 268.198L48.1589 271.177H47.192Z" fill="#999999"/>
<line x1="68.8839" y1="78.3552" x2="632.926" y2="78.3552" stroke="#D6D6D6" stroke-width="0.648324" stroke-linecap="round" stroke-dasharray="2.59 5.19"/>
<line x1="68.8841" y1="126.979" x2="632.926" y2="126.98" stroke="#D6D6D6" stroke-width="0.648324" stroke-linecap="round" stroke-dasharray="2.59 5.19"/>
<line x1="68.8841" y1="175.604" x2="632.926" y2="175.604" stroke="#D6D6D6" stroke-width="0.648324" stroke-linecap="round" stroke-dasharray="2.59 5.19"/>
<line x1="68.8841" y1="224.228" x2="632.926" y2="224.228" stroke="#D6D6D6" stroke-width="0.648324" stroke-linecap="round" stroke-dasharray="2.59 5.19"/>
<line x1="68.8841" y1="272.852" x2="632.926" y2="272.852" stroke="#D6D6D6" stroke-width="0.648324" stroke-linecap="round" stroke-dasharray="2.59 5.19"/>
<path d="M134.141 147.021C109.86 124.522 80.5659 148.457 68.9542 163.237V270.583H634.941V136.126C577.687 181.986 581.481 65.4356 533.539 134.099C478.37 213.115 468.353 114.842 443.52 147.021C414.428 184.718 411.788 73.5441 393.509 78.8649C375.229 84.1857 404.89 138.913 360.053 136.126C315.215 133.339 317.975 172.358 292.452 162.223C266.929 152.089 255.547 129.285 220.022 147.021L219.052 147.505C184.13 164.944 164.215 174.888 134.141 147.021Z" fill="url(#paint0_linear_0_11037)"/>
<path d="M68.9542 162.491C80.5393 147.728 109.766 123.82 133.992 146.294C164.274 174.385 184.232 164.009 219.676 146.294C255.12 128.578 266.475 151.355 291.94 161.478C317.404 171.601 314.651 132.627 359.386 135.411C404.121 138.195 374.527 83.531 392.765 78.2164C411.003 72.9017 413.637 183.946 442.661 146.293C467.438 114.152 477.432 212.311 532.475 133.387C580.307 64.8026 576.522 181.218 633.644 135.411" stroke="#A796E4" stroke-width="2.5933" stroke-linecap="round"/>
<g filter="url(#filter1_d_0_11037)">
<circle cx="351.623" cy="135.732" r="7.77989" fill="#A796E4"/>
<circle cx="351.623" cy="135.732" r="9.07654" stroke="white" stroke-width="2.5933"/>
</g>
<g filter="url(#filter2_d_0_11037)">
<rect x="323.745" y="96.8324" width="63.9665" height="20.7464" rx="2.5933" fill="#A796E4" shape-rendering="crispEdges"/>
<path d="M331.058 110.706V103.161H333.747C334.331 103.161 334.816 103.262 335.202 103.464C335.59 103.665 335.879 103.944 336.071 104.3C336.263 104.653 336.358 105.062 336.358 105.526C336.358 105.988 336.261 106.395 336.067 106.746C335.876 107.094 335.586 107.366 335.198 107.56C334.812 107.754 334.327 107.851 333.743 107.851H331.706V106.871H333.64C334.008 106.871 334.308 106.818 334.539 106.713C334.772 106.607 334.943 106.453 335.051 106.252C335.159 106.051 335.213 105.809 335.213 105.526C335.213 105.242 335.157 104.995 335.047 104.786C334.939 104.577 334.768 104.418 334.535 104.307C334.304 104.194 334.001 104.138 333.625 104.138H332.196V110.706H331.058ZM334.782 107.302L336.646 110.706H335.349L333.522 107.302H334.782ZM341.895 106.429L340.897 106.606C340.855 106.478 340.789 106.356 340.698 106.241C340.609 106.126 340.489 106.031 340.337 105.957C340.184 105.884 339.994 105.847 339.766 105.847C339.454 105.847 339.193 105.917 338.985 106.057C338.776 106.194 338.672 106.372 338.672 106.591C338.672 106.78 338.742 106.932 338.882 107.048C339.022 107.163 339.248 107.258 339.559 107.331L340.458 107.538C340.979 107.658 341.367 107.843 341.622 108.094C341.878 108.344 342.005 108.67 342.005 109.07C342.005 109.409 341.907 109.711 341.711 109.976C341.517 110.239 341.245 110.445 340.897 110.595C340.55 110.745 340.149 110.82 339.692 110.82C339.058 110.82 338.541 110.685 338.141 110.415C337.741 110.142 337.495 109.755 337.404 109.254L338.469 109.092C338.535 109.37 338.672 109.58 338.878 109.722C339.084 109.862 339.353 109.932 339.685 109.932C340.046 109.932 340.334 109.857 340.55 109.707C340.766 109.555 340.874 109.37 340.874 109.151C340.874 108.974 340.808 108.826 340.676 108.705C340.545 108.585 340.345 108.494 340.075 108.433L339.117 108.223C338.589 108.102 338.199 107.911 337.946 107.648C337.695 107.385 337.57 107.053 337.57 106.65C337.57 106.316 337.664 106.024 337.85 105.773C338.037 105.523 338.295 105.327 338.624 105.187C338.953 105.045 339.33 104.974 339.755 104.974C340.366 104.974 340.847 105.106 341.199 105.372C341.55 105.634 341.782 105.987 341.895 106.429ZM345.788 109.232V108.311L349.049 103.161H349.774V104.517H349.314L346.982 108.208V108.267H351.45V109.232H345.788ZM349.365 110.706V108.952L349.373 108.532V103.161H350.452V110.706H349.365ZM355.36 110.809C354.855 110.809 354.403 110.722 354.005 110.547C353.609 110.373 353.296 110.131 353.066 109.822C352.837 109.51 352.714 109.149 352.697 108.739H353.854C353.869 108.962 353.943 109.156 354.079 109.321C354.216 109.483 354.395 109.608 354.616 109.696C354.837 109.785 355.083 109.829 355.353 109.829C355.65 109.829 355.913 109.777 356.141 109.674C356.372 109.571 356.553 109.427 356.683 109.243C356.813 109.057 356.878 108.842 356.878 108.599C356.878 108.346 356.813 108.123 356.683 107.932C356.555 107.738 356.367 107.586 356.119 107.475C355.874 107.365 355.577 107.309 355.228 107.309H354.591V106.381H355.228C355.508 106.381 355.753 106.331 355.965 106.23C356.178 106.129 356.345 105.989 356.466 105.81C356.586 105.628 356.646 105.416 356.646 105.173C356.646 104.939 356.593 104.737 356.488 104.565C356.385 104.391 356.237 104.254 356.046 104.156C355.857 104.058 355.633 104.009 355.375 104.009C355.13 104.009 354.9 104.054 354.686 104.145C354.475 104.233 354.303 104.361 354.171 104.528C354.038 104.693 353.967 104.89 353.957 105.121H352.856C352.868 104.714 352.988 104.355 353.217 104.046C353.447 103.736 353.752 103.494 354.13 103.32C354.508 103.146 354.928 103.058 355.39 103.058C355.874 103.058 356.291 103.153 356.642 103.342C356.996 103.529 357.269 103.778 357.46 104.09C357.654 104.402 357.75 104.743 357.747 105.114C357.75 105.536 357.632 105.895 357.394 106.189C357.158 106.484 356.844 106.682 356.451 106.783V106.841C356.952 106.918 357.34 107.116 357.615 107.438C357.892 107.76 358.03 108.159 358.027 108.635C358.03 109.05 357.914 109.422 357.681 109.752C357.45 110.081 357.135 110.34 356.734 110.529C356.334 110.715 355.876 110.809 355.36 110.809ZM360.645 109.674L360.589 110.076C360.553 110.37 360.49 110.677 360.402 110.997C360.316 111.318 360.226 111.617 360.133 111.892C360.042 112.167 359.967 112.385 359.908 112.547H359.127C359.159 112.395 359.203 112.189 359.26 111.929C359.316 111.671 359.371 111.382 359.425 111.063C359.479 110.744 359.52 110.418 359.547 110.087L359.584 109.674H360.645ZM364.538 110.831C363.956 110.828 363.459 110.675 363.046 110.37C362.634 110.066 362.318 109.623 362.1 109.041C361.881 108.459 361.772 107.757 361.772 106.937C361.772 106.119 361.881 105.421 362.1 104.841C362.321 104.262 362.638 103.82 363.05 103.515C363.465 103.211 363.961 103.058 364.538 103.058C365.115 103.058 365.61 103.212 366.023 103.519C366.435 103.823 366.751 104.265 366.97 104.845C367.191 105.422 367.301 106.119 367.301 106.937C367.301 107.76 367.192 108.462 366.973 109.044C366.755 109.624 366.439 110.067 366.026 110.374C365.614 110.679 365.118 110.831 364.538 110.831ZM364.538 109.847C365.049 109.847 365.448 109.598 365.735 109.1C366.025 108.601 366.17 107.88 366.17 106.937C366.17 106.311 366.104 105.782 365.971 105.35C365.841 104.915 365.653 104.586 365.408 104.362C365.165 104.136 364.875 104.023 364.538 104.023C364.03 104.023 363.631 104.274 363.341 104.775C363.051 105.276 362.905 105.997 362.903 106.937C362.903 107.566 362.968 108.098 363.098 108.532C363.231 108.964 363.418 109.292 363.662 109.516C363.905 109.737 364.197 109.847 364.538 109.847ZM371.157 110.809C370.629 110.809 370.162 110.718 369.757 110.536C369.354 110.354 369.039 110.104 368.81 109.785C368.582 109.465 368.469 109.102 368.472 108.694C368.469 108.375 368.534 108.082 368.667 107.814C368.802 107.544 368.985 107.319 369.216 107.14C369.446 106.958 369.704 106.843 369.989 106.794V106.749C369.613 106.658 369.313 106.457 369.087 106.145C368.861 105.833 368.749 105.475 368.751 105.07C368.749 104.684 368.851 104.34 369.057 104.038C369.266 103.734 369.552 103.494 369.916 103.32C370.279 103.146 370.693 103.058 371.157 103.058C371.616 103.058 372.026 103.147 372.387 103.324C372.751 103.498 373.037 103.737 373.246 104.042C373.454 104.344 373.56 104.687 373.562 105.07C373.56 105.475 373.444 105.833 373.216 106.145C372.988 106.457 372.691 106.658 372.325 106.749V106.794C372.607 106.843 372.861 106.958 373.087 107.14C373.316 107.319 373.497 107.544 373.632 107.814C373.77 108.082 373.84 108.375 373.842 108.694C373.84 109.102 373.724 109.465 373.496 109.785C373.268 110.104 372.951 110.354 372.546 110.536C372.143 110.718 371.68 110.809 371.157 110.809ZM371.157 109.877C371.469 109.877 371.739 109.825 371.967 109.722C372.196 109.616 372.373 109.47 372.498 109.284C372.623 109.095 372.687 108.874 372.689 108.621C372.687 108.358 372.618 108.126 372.483 107.924C372.35 107.723 372.17 107.565 371.942 107.449C371.713 107.334 371.452 107.276 371.157 107.276C370.86 107.276 370.596 107.334 370.365 107.449C370.134 107.565 369.952 107.723 369.82 107.924C369.687 108.126 369.622 108.358 369.625 108.621C369.622 108.874 369.682 109.095 369.805 109.284C369.93 109.47 370.108 109.616 370.339 109.722C370.57 109.825 370.843 109.877 371.157 109.877ZM371.157 106.366C371.407 106.366 371.63 106.316 371.824 106.215C372.018 106.115 372.17 105.975 372.28 105.795C372.393 105.616 372.451 105.406 372.454 105.165C372.451 104.93 372.395 104.723 372.284 104.547C372.176 104.37 372.025 104.233 371.831 104.138C371.637 104.039 371.412 103.99 371.157 103.99C370.897 103.99 370.668 104.039 370.472 104.138C370.278 104.233 370.127 104.37 370.019 104.547C369.911 104.723 369.858 104.93 369.86 105.165C369.858 105.406 369.912 105.616 370.022 105.795C370.133 105.975 370.285 106.115 370.479 106.215C370.676 106.316 370.902 106.366 371.157 106.366ZM375.004 109.232V108.311L378.264 103.161H378.989V104.517H378.529L376.197 108.208V108.267H380.665V109.232H375.004ZM378.58 110.706V108.952L378.588 108.532V103.161H379.667V110.706H378.58Z" fill="white"/>
<path d="M355.729 122.782L359.097 116.947H352.36L355.729 122.782Z" fill="#A796E4"/>
</g>
<path d="M71.0504 298.322H72.0045L74.2478 303.801H74.3252L76.5685 298.322H77.5226V304.923H76.7748V299.908H76.7103L74.6475 304.923H73.9255L71.8626 299.908H71.7982V304.923H71.0504V298.322ZM81.0335 305.026C80.5865 305.026 80.1943 304.92 79.857 304.707C79.5218 304.494 79.2596 304.197 79.0705 303.814C78.8836 303.432 78.7901 302.985 78.7901 302.473C78.7901 301.958 78.8836 301.507 79.0705 301.123C79.2596 300.738 79.5218 300.439 79.857 300.227C80.1943 300.014 80.5865 299.908 81.0335 299.908C81.4804 299.908 81.8715 300.014 82.2067 300.227C82.5441 300.439 82.8062 300.738 82.9932 301.123C83.1823 301.507 83.2768 301.958 83.2768 302.473C83.2768 302.985 83.1823 303.432 82.9932 303.814C82.8062 304.197 82.5441 304.494 82.2067 304.707C81.8715 304.92 81.4804 305.026 81.0335 305.026ZM81.0335 304.343C81.373 304.343 81.6523 304.256 81.8715 304.082C82.0907 303.908 82.2529 303.679 82.3582 303.395C82.4635 303.111 82.5161 302.804 82.5161 302.473C82.5161 302.142 82.4635 301.834 82.3582 301.548C82.2529 301.262 82.0907 301.031 81.8715 300.855C81.6523 300.679 81.373 300.591 81.0335 300.591C80.6939 300.591 80.4146 300.679 80.1954 300.855C79.9762 301.031 79.814 301.262 79.7087 301.548C79.6034 301.834 79.5508 302.142 79.5508 302.473C79.5508 302.804 79.6034 303.111 79.7087 303.395C79.814 303.679 79.9762 303.908 80.1954 304.082C80.4146 304.256 80.6939 304.343 81.0335 304.343ZM85.1986 301.945V304.923H84.438V299.972H85.1729V300.746H85.2373C85.3534 300.494 85.5296 300.292 85.7659 300.14C86.0023 299.985 86.3074 299.908 86.6813 299.908C87.0165 299.908 87.3098 299.976 87.5612 300.114C87.8127 300.249 88.0082 300.456 88.1479 300.733C88.2875 301.008 88.3574 301.356 88.3574 301.777V304.923H87.5967V301.829C87.5967 301.44 87.4957 301.137 87.2937 300.92C87.0917 300.701 86.8145 300.591 86.4621 300.591C86.2193 300.591 86.0023 300.644 85.811 300.749C85.622 300.854 85.4726 301.008 85.363 301.21C85.2534 301.412 85.1986 301.657 85.1986 301.945Z" fill="#999999"/>
<path d="M163.4 299.031V298.322H168.351V299.031H166.275V304.923H165.476V299.031H163.4ZM171.928 302.899V299.972H172.688V304.923H171.928V304.085H171.876C171.76 304.336 171.58 304.55 171.335 304.726C171.09 304.9 170.78 304.987 170.406 304.987C170.097 304.987 169.822 304.92 169.581 304.784C169.341 304.647 169.152 304.441 169.014 304.165C168.876 303.888 168.808 303.539 168.808 303.118V299.972H169.568V303.066C169.568 303.427 169.669 303.715 169.871 303.93C170.075 304.145 170.335 304.253 170.651 304.253C170.84 304.253 171.033 304.204 171.228 304.107C171.426 304.011 171.591 303.862 171.725 303.663C171.86 303.463 171.928 303.208 171.928 302.899ZM176.157 305.026C175.68 305.026 175.269 304.921 174.923 304.71C174.579 304.497 174.314 304.201 174.127 303.821C173.942 303.438 173.85 302.993 173.85 302.486C173.85 301.979 173.942 301.532 174.127 301.145C174.314 300.756 174.574 300.453 174.907 300.236C175.242 300.017 175.633 299.908 176.08 299.908C176.338 299.908 176.593 299.951 176.844 300.037C177.095 300.123 177.324 300.262 177.53 300.456C177.737 300.647 177.901 300.9 178.024 301.216C178.146 301.532 178.207 301.921 178.207 302.383V302.705H174.391V302.048H177.434C177.434 301.768 177.378 301.519 177.266 301.3C177.157 301.081 177 300.908 176.796 300.781C176.594 300.654 176.355 300.591 176.08 300.591C175.777 300.591 175.515 300.666 175.294 300.817C175.074 300.965 174.906 301.158 174.788 301.397C174.669 301.635 174.61 301.891 174.61 302.164V302.602C174.61 302.976 174.675 303.293 174.804 303.553C174.935 303.811 175.116 304.008 175.348 304.143C175.58 304.276 175.85 304.343 176.157 304.343C176.357 304.343 176.538 304.315 176.699 304.259C176.862 304.201 177.003 304.115 177.121 304.001C177.239 303.885 177.331 303.741 177.395 303.569L178.13 303.775C178.053 304.025 177.923 304.244 177.74 304.433C177.557 304.62 177.332 304.766 177.063 304.871C176.795 304.974 176.493 305.026 176.157 305.026Z" fill="#999999"/>
<path d="M255.077 304.923L253.272 298.322H254.084L255.464 303.698H255.528L256.933 298.322H257.836L259.241 303.698H259.306L260.685 298.322H261.497L259.692 304.923H258.867L257.41 299.663H257.359L255.902 304.923H255.077ZM264.005 305.026C263.528 305.026 263.117 304.921 262.771 304.71C262.427 304.497 262.161 304.201 261.974 303.821C261.79 303.438 261.697 302.993 261.697 302.486C261.697 301.979 261.79 301.532 261.974 301.145C262.161 300.756 262.421 300.453 262.754 300.236C263.09 300.017 263.481 299.908 263.928 299.908C264.186 299.908 264.44 299.951 264.692 300.037C264.943 300.123 265.172 300.262 265.378 300.456C265.584 300.647 265.749 300.9 265.871 301.216C265.994 301.532 266.055 301.921 266.055 302.383V302.705H262.239V302.048H265.281C265.281 301.768 265.226 301.519 265.114 301.3C265.004 301.081 264.847 300.908 264.643 300.781C264.441 300.654 264.203 300.591 263.928 300.591C263.625 300.591 263.363 300.666 263.141 300.817C262.922 300.965 262.753 301.158 262.635 301.397C262.517 301.635 262.458 301.891 262.458 302.164V302.602C262.458 302.976 262.522 303.293 262.651 303.553C262.782 303.811 262.964 304.008 263.196 304.143C263.428 304.276 263.698 304.343 264.005 304.343C264.205 304.343 264.385 304.315 264.547 304.259C264.71 304.201 264.851 304.115 264.969 304.001C265.087 303.885 265.178 303.741 265.243 303.569L265.978 303.775C265.9 304.025 265.77 304.244 265.588 304.433C265.405 304.62 265.179 304.766 264.911 304.871C264.642 304.974 264.34 305.026 264.005 305.026ZM269.082 305.026C268.669 305.026 268.305 304.922 267.989 304.713C267.673 304.503 267.426 304.206 267.248 303.824C267.069 303.439 266.98 302.985 266.98 302.46C266.98 301.94 267.069 301.489 267.248 301.107C267.426 300.724 267.674 300.429 267.992 300.22C268.31 300.012 268.678 299.908 269.094 299.908C269.417 299.908 269.671 299.961 269.858 300.069C270.047 300.174 270.191 300.294 270.29 300.43C270.391 300.563 270.47 300.673 270.526 300.759H270.59V298.322H271.351V304.923H270.616V304.162H270.526C270.47 304.253 270.39 304.366 270.287 304.504C270.184 304.639 270.037 304.761 269.845 304.868C269.654 304.973 269.4 305.026 269.082 305.026ZM269.185 304.343C269.49 304.343 269.748 304.263 269.958 304.104C270.169 303.943 270.329 303.721 270.439 303.437C270.548 303.151 270.603 302.821 270.603 302.448C270.603 302.078 270.549 301.755 270.442 301.477C270.334 301.198 270.175 300.981 269.965 300.826C269.754 300.669 269.494 300.591 269.185 300.591C268.862 300.591 268.594 300.674 268.379 300.839C268.166 301.002 268.006 301.225 267.899 301.506C267.793 301.786 267.741 302.099 267.741 302.448C267.741 302.8 267.794 303.12 267.902 303.408C268.011 303.694 268.173 303.922 268.385 304.091C268.6 304.259 268.867 304.343 269.185 304.343Z" fill="#999999"/>
<path d="M346.876 299.031V298.322H351.826V299.031H349.751V304.923H348.951V299.031H346.876ZM353.718 301.945V304.923H352.957V298.322H353.718V300.746H353.782C353.898 300.49 354.072 300.287 354.304 300.136C354.538 299.984 354.85 299.908 355.239 299.908C355.576 299.908 355.872 299.975 356.125 300.111C356.379 300.244 356.576 300.449 356.715 300.726C356.857 301.001 356.928 301.352 356.928 301.777V304.923H356.167V301.829C356.167 301.435 356.065 301.131 355.861 300.916C355.659 300.699 355.379 300.591 355.02 300.591C354.771 300.591 354.547 300.644 354.349 300.749C354.154 300.854 353.999 301.008 353.885 301.21C353.774 301.412 353.718 301.657 353.718 301.945ZM361.44 302.899V299.972H362.2V304.923H361.44V304.085H361.388C361.272 304.336 361.092 304.55 360.847 304.726C360.602 304.9 360.292 304.987 359.918 304.987C359.609 304.987 359.334 304.92 359.093 304.784C358.852 304.647 358.663 304.441 358.526 304.165C358.388 303.888 358.32 303.539 358.32 303.118V299.972H359.08V303.066C359.08 303.427 359.181 303.715 359.383 303.93C359.587 304.145 359.847 304.253 360.163 304.253C360.352 304.253 360.545 304.204 360.74 304.107C360.938 304.011 361.103 303.862 361.237 303.663C361.372 303.463 361.44 303.208 361.44 302.899ZM363.594 304.923V299.972H364.328V300.72H364.38C364.47 300.475 364.634 300.276 364.87 300.124C365.106 299.971 365.373 299.895 365.669 299.895C365.725 299.895 365.795 299.896 365.879 299.898C365.963 299.9 366.026 299.903 366.069 299.908V300.681C366.043 300.675 365.984 300.665 365.892 300.652C365.801 300.637 365.706 300.63 365.605 300.63C365.364 300.63 365.149 300.68 364.96 300.781C364.773 300.88 364.625 301.017 364.515 301.194C364.408 301.368 364.354 301.566 364.354 301.79V304.923H363.594ZM370.477 301.081L369.794 301.274C369.751 301.16 369.688 301.05 369.604 300.942C369.522 300.833 369.411 300.742 369.269 300.672C369.127 300.601 368.945 300.565 368.724 300.565C368.421 300.565 368.169 300.635 367.967 300.775C367.767 300.912 367.667 301.087 367.667 301.3C367.667 301.489 367.736 301.638 367.873 301.748C368.011 301.858 368.226 301.949 368.518 302.022L369.253 302.203C369.695 302.31 370.025 302.474 370.242 302.696C370.459 302.915 370.568 303.197 370.568 303.543C370.568 303.827 370.486 304.081 370.323 304.304C370.162 304.528 369.936 304.704 369.646 304.833C369.356 304.962 369.018 305.026 368.634 305.026C368.129 305.026 367.711 304.916 367.38 304.697C367.049 304.478 366.84 304.158 366.751 303.737L367.473 303.556C367.542 303.823 367.672 304.023 367.863 304.156C368.057 304.289 368.309 304.356 368.621 304.356C368.975 304.356 369.257 304.28 369.465 304.13C369.676 303.977 369.781 303.795 369.781 303.582C369.781 303.41 369.721 303.266 369.601 303.15C369.48 303.032 369.296 302.944 369.046 302.886L368.221 302.692C367.768 302.585 367.435 302.418 367.222 302.193C367.011 301.965 366.906 301.68 366.906 301.339C366.906 301.059 366.985 300.812 367.141 300.597C367.3 300.383 367.516 300.214 367.789 300.091C368.064 299.969 368.376 299.908 368.724 299.908C369.214 299.908 369.599 300.015 369.878 300.23C370.159 300.445 370.359 300.728 370.477 301.081Z" fill="#999999"/>
<path d="M445.782 304.923V298.322H449.74V299.031H446.581V301.261H449.443V301.97H446.581V304.923H445.782ZM450.953 304.923V299.972H451.687V300.72H451.739C451.829 300.475 451.993 300.276 452.229 300.124C452.465 299.971 452.732 299.895 453.028 299.895C453.084 299.895 453.154 299.896 453.238 299.898C453.322 299.9 453.385 299.903 453.428 299.908V300.681C453.402 300.675 453.343 300.665 453.251 300.652C453.16 300.637 453.065 300.63 452.964 300.63C452.723 300.63 452.508 300.68 452.319 300.781C452.132 300.88 451.984 301.017 451.874 301.194C451.767 301.368 451.713 301.566 451.713 301.79V304.923H450.953ZM454.33 304.923V299.972H455.09V304.923H454.33ZM454.716 299.147C454.568 299.147 454.44 299.096 454.333 298.995C454.228 298.894 454.175 298.773 454.175 298.631C454.175 298.489 454.228 298.368 454.333 298.267C454.44 298.166 454.568 298.116 454.716 298.116C454.865 298.116 454.991 298.166 455.097 298.267C455.204 298.368 455.258 298.489 455.258 298.631C455.258 298.773 455.204 298.894 455.097 298.995C454.991 299.096 454.865 299.147 454.716 299.147Z" fill="#999999"/>
<path d="M534.322 299.972C534.284 299.645 534.127 299.392 533.852 299.211C533.577 299.031 533.239 298.941 532.84 298.941C532.547 298.941 532.292 298.988 532.072 299.082C531.855 299.177 531.686 299.307 531.563 299.472C531.443 299.638 531.383 299.826 531.383 300.037C531.383 300.213 531.425 300.364 531.508 300.491C531.594 300.616 531.704 300.72 531.837 300.804C531.97 300.885 532.11 300.953 532.256 301.007C532.402 301.058 532.537 301.1 532.659 301.132L533.329 301.313C533.501 301.358 533.693 301.42 533.903 301.5C534.116 301.579 534.319 301.688 534.512 301.825C534.708 301.961 534.869 302.135 534.996 302.348C535.123 302.56 535.186 302.821 535.186 303.131C535.186 303.488 535.093 303.81 534.906 304.098C534.721 304.386 534.45 304.615 534.093 304.784C533.739 304.954 533.308 305.039 532.801 305.039C532.328 305.039 531.919 304.963 531.573 304.81C531.229 304.658 530.958 304.445 530.761 304.172C530.565 303.899 530.454 303.582 530.429 303.221H531.254C531.275 303.47 531.359 303.677 531.505 303.84C531.653 304.001 531.84 304.121 532.066 304.201C532.294 304.278 532.539 304.317 532.801 304.317C533.106 304.317 533.38 304.268 533.623 304.169C533.866 304.068 534.058 303.928 534.2 303.75C534.342 303.569 534.412 303.359 534.412 303.118C534.412 302.899 534.351 302.72 534.229 302.583C534.106 302.445 533.945 302.334 533.745 302.248C533.545 302.162 533.329 302.087 533.097 302.022L532.285 301.79C531.769 301.642 531.361 301.43 531.06 301.155C530.759 300.88 530.609 300.52 530.609 300.075C530.609 299.706 530.709 299.383 530.909 299.108C531.111 298.831 531.382 298.616 531.721 298.464C532.063 298.309 532.444 298.232 532.865 298.232C533.291 298.232 533.669 298.308 534 298.46C534.331 298.611 534.593 298.817 534.786 299.079C534.982 299.341 535.085 299.639 535.096 299.972H534.322ZM537.854 305.039C537.54 305.039 537.256 304.98 537 304.862C536.744 304.741 536.541 304.568 536.391 304.343C536.24 304.115 536.165 303.84 536.165 303.518C536.165 303.234 536.221 303.004 536.333 302.828C536.444 302.649 536.594 302.51 536.781 302.409C536.968 302.308 537.174 302.233 537.4 302.183C537.627 302.132 537.856 302.091 538.086 302.061C538.387 302.022 538.631 301.993 538.818 301.974C539.007 301.952 539.144 301.917 539.23 301.867C539.318 301.818 539.362 301.732 539.362 301.609V301.584C539.362 301.266 539.275 301.019 539.101 300.842C538.929 300.666 538.668 300.578 538.318 300.578C537.955 300.578 537.67 300.658 537.464 300.817C537.258 300.976 537.113 301.145 537.029 301.326L536.307 301.068C536.436 300.767 536.608 300.533 536.823 300.365C537.04 300.196 537.276 300.077 537.532 300.011C537.79 299.942 538.043 299.908 538.292 299.908C538.451 299.908 538.634 299.927 538.84 299.966C539.049 300.002 539.25 300.078 539.443 300.194C539.639 300.311 539.801 300.486 539.93 300.72C540.059 300.954 540.123 301.268 540.123 301.661V304.923H539.362V304.253H539.324C539.272 304.36 539.186 304.475 539.066 304.597C538.946 304.72 538.786 304.824 538.586 304.91C538.386 304.996 538.142 305.039 537.854 305.039ZM537.97 304.356C538.271 304.356 538.524 304.297 538.731 304.178C538.939 304.06 539.096 303.908 539.201 303.721C539.309 303.534 539.362 303.337 539.362 303.131V302.435C539.33 302.473 539.259 302.509 539.15 302.541C539.042 302.571 538.918 302.598 538.776 302.622C538.636 302.643 538.5 302.662 538.366 302.68C538.235 302.695 538.129 302.708 538.047 302.718C537.85 302.744 537.665 302.786 537.493 302.844C537.323 302.9 537.186 302.985 537.08 303.099C536.977 303.21 536.926 303.363 536.926 303.556C536.926 303.821 537.023 304.02 537.219 304.156C537.417 304.289 537.667 304.356 537.97 304.356ZM543.665 299.972V300.617H541.099V299.972H543.665ZM541.847 298.786H542.607V303.505C542.607 303.72 542.639 303.881 542.701 303.988C542.765 304.093 542.847 304.164 542.946 304.201C543.047 304.235 543.153 304.253 543.265 304.253C543.349 304.253 543.418 304.248 543.471 304.24C543.525 304.229 543.568 304.22 543.6 304.214L543.755 304.897C543.703 304.916 543.631 304.936 543.539 304.955C543.447 304.977 543.329 304.987 543.188 304.987C542.973 304.987 542.762 304.941 542.556 304.849C542.352 304.756 542.182 304.616 542.047 304.427C541.913 304.237 541.847 303.999 541.847 303.711V298.786Z" fill="#999999"/>
<path d="M622.494 299.972C622.456 299.645 622.299 299.392 622.024 299.211C621.749 299.031 621.411 298.941 621.012 298.941C620.72 298.941 620.464 298.988 620.245 299.082C620.028 299.177 619.858 299.307 619.735 299.472C619.615 299.638 619.555 299.826 619.555 300.037C619.555 300.213 619.597 300.364 619.681 300.491C619.767 300.616 619.876 300.72 620.009 300.804C620.143 300.885 620.282 300.953 620.428 301.007C620.574 301.058 620.709 301.1 620.831 301.132L621.502 301.313C621.674 301.358 621.865 301.42 622.075 301.5C622.288 301.579 622.491 301.688 622.685 301.825C622.88 301.961 623.041 302.135 623.168 302.348C623.295 302.56 623.358 302.821 623.358 303.131C623.358 303.488 623.265 303.81 623.078 304.098C622.893 304.386 622.622 304.615 622.266 304.784C621.911 304.954 621.48 305.039 620.973 305.039C620.5 305.039 620.091 304.963 619.745 304.81C619.401 304.658 619.13 304.445 618.933 304.172C618.737 303.899 618.627 303.582 618.601 303.221H619.426C619.447 303.47 619.531 303.677 619.677 303.84C619.826 304.001 620.013 304.121 620.238 304.201C620.466 304.278 620.711 304.317 620.973 304.317C621.278 304.317 621.552 304.268 621.795 304.169C622.038 304.068 622.23 303.928 622.372 303.75C622.514 303.569 622.585 303.359 622.585 303.118C622.585 302.899 622.523 302.72 622.401 302.583C622.278 302.445 622.117 302.334 621.917 302.248C621.718 302.162 621.502 302.087 621.27 302.022L620.457 301.79C619.942 301.642 619.533 301.43 619.233 301.155C618.932 300.88 618.781 300.52 618.781 300.075C618.781 299.706 618.881 299.383 619.081 299.108C619.283 298.831 619.554 298.616 619.893 298.464C620.235 298.309 620.616 298.232 621.038 298.232C621.463 298.232 621.841 298.308 622.172 298.46C622.503 298.611 622.765 298.817 622.959 299.079C623.154 299.341 623.257 299.639 623.268 299.972H622.494ZM627.689 302.899V299.972H628.45V304.923H627.689V304.085H627.638C627.522 304.336 627.341 304.55 627.096 304.726C626.851 304.9 626.542 304.987 626.168 304.987C625.859 304.987 625.584 304.92 625.343 304.784C625.102 304.647 624.913 304.441 624.776 304.165C624.638 303.888 624.569 303.539 624.569 303.118V299.972H625.33V303.066C625.33 303.427 625.431 303.715 625.633 303.93C625.837 304.145 626.097 304.253 626.413 304.253C626.602 304.253 626.794 304.204 626.99 304.107C627.188 304.011 627.353 303.862 627.486 303.663C627.622 303.463 627.689 303.208 627.689 302.899ZM630.604 301.945V304.923H629.843V299.972H630.578V300.746H630.643C630.759 300.494 630.935 300.292 631.171 300.14C631.408 299.985 631.713 299.908 632.087 299.908C632.422 299.908 632.715 299.976 632.967 300.114C633.218 300.249 633.414 300.456 633.553 300.733C633.693 301.008 633.763 301.356 633.763 301.777V304.923H633.002V301.829C633.002 301.44 632.901 301.137 632.699 300.92C632.497 300.701 632.22 300.591 631.867 300.591C631.625 300.591 631.408 300.644 631.216 300.749C631.027 300.854 630.878 301.008 630.768 301.21C630.659 301.412 630.604 301.657 630.604 301.945Z" fill="#999999"/>
</g>
<defs>
<filter id="filter0_d_0_11037" x="0" y="0" width="666.941" height="341.483" filterUnits="userSpaceOnUse" color-interpolation-filters="sRGB">
<feFlood flood-opacity="0" result="BackgroundImageFix"/>
<feColorMatrix in="SourceAlpha" type="matrix" values="0 0 0 0 0 0 0 0 0 0 0 0 0 0 0 0 0 0 127 0" result="hardAlpha"/>
<feOffset/>
<feGaussianBlur stdDeviation="8"/>
<feComposite in2="hardAlpha" operator="out"/>
<feColorMatrix type="matrix" values="0 0 0 0 0.2 0 0 0 0 0.2 0 0 0 0 0.2 0 0 0 0.1 0"/>
<feBlend mode="normal" in2="BackgroundImageFix" result="effect1_dropShadow_0_11037"/>
<feBlend mode="normal" in="SourceGraphic" in2="effect1_dropShadow_0_11037" result="shape"/>
</filter>
<filter id="filter1_d_0_11037" x="328.284" y="112.392" width="46.6793" height="46.6793" filterUnits="userSpaceOnUse" color-interpolation-filters="sRGB">
<feFlood flood-opacity="0" result="BackgroundImageFix"/>
<feColorMatrix in="SourceAlpha" type="matrix" values="0 0 0 0 0 0 0 0 0 0 0 0 0 0 0 0 0 0 127 0" result="hardAlpha"/>
<feOffset/>
<feGaussianBlur stdDeviation="6.48324"/>
<feComposite in2="hardAlpha" operator="out"/>
<feColorMatrix type="matrix" values="0 0 0 0 0.203922 0 0 0 0 0.705882 0 0 0 0 0.290196 0 0 0 0.4 0"/>
<feBlend mode="normal" in2="BackgroundImageFix" result="effect1_dropShadow_0_11037"/>
<feBlend mode="normal" in="SourceGraphic" in2="effect1_dropShadow_0_11037" result="shape"/>
</filter>
<filter id="filter2_d_0_11037" x="313.372" y="89.0525" width="84.7129" height="46.6961" filterUnits="userSpaceOnUse" color-interpolation-filters="sRGB">
<feFlood flood-opacity="0" result="BackgroundImageFix"/>
<feColorMatrix in="SourceAlpha" type="matrix" values="0 0 0 0 0 0 0 0 0 0 0 0 0 0 0 0 0 0 127 0" result="hardAlpha"/>
<feOffset dy="2.5933"/>
<feGaussianBlur stdDeviation="5.18659"/>
<feComposite in2="hardAlpha" operator="out"/>
<feColorMatrix type="matrix" values="0 0 0 0 0.2 0 0 0 0 0.2 0 0 0 0 0.2 0 0 0 0.2 0"/>
<feBlend mode="normal" in2="BackgroundImageFix" result="effect1_dropShadow_0_11037"/>
<feBlend mode="normal" in="SourceGraphic" in2="effect1_dropShadow_0_11037" result="shape"/>
</filter>
<linearGradient id="paint0_linear_0_11037" x1="351.948" y1="78.6793" x2="351.948" y2="225.201" gradientUnits="userSpaceOnUse">
<stop offset="0.331906" stop-color="#A85ACD" stop-opacity="0.2"/>
<stop offset="0.928346" stop-color="#E99BF0" stop-opacity="0"/>
</linearGradient>
</defs>
</svg>
