<svg width="78" height="71" viewBox="0 0 78 71" fill="none" xmlns="http://www.w3.org/2000/svg">
<path d="M12.5662 57.128C12.0653 57.128 11.6467 57.0206 11.3104 56.806C10.9812 56.5913 10.7307 56.2943 10.559 55.9151C10.3873 55.5358 10.2871 55.0957 10.2585 54.5948L11.3318 54.305C11.3533 54.6127 11.3998 54.9097 11.4714 55.1959C11.5501 55.4821 11.6753 55.7183 11.8471 55.9043C12.0188 56.0832 12.2585 56.1727 12.5662 56.1727C12.8811 56.1727 13.1172 56.0868 13.2746 55.9151C13.4392 55.7362 13.5215 55.4821 13.5215 55.153C13.5215 54.7594 13.4321 54.4445 13.2532 54.2084C13.0743 53.9651 12.8489 53.7218 12.5769 53.4785L11.1172 52.1905C10.8309 51.94 10.6198 51.6681 10.4839 51.3747C10.3479 51.0741 10.2799 50.7056 10.2799 50.2691C10.2799 49.6322 10.4624 49.1385 10.8273 48.7879C11.1923 48.4372 11.6896 48.2619 12.3193 48.2619C12.6628 48.2619 12.9634 48.3084 13.221 48.4014C13.4857 48.4873 13.704 48.6233 13.8757 48.8093C14.0546 48.9954 14.1942 49.2315 14.2943 49.5178C14.4017 49.7968 14.4732 50.126 14.509 50.5053L13.4786 50.7843C13.4571 50.4981 13.4142 50.2369 13.3498 50.0008C13.2854 49.7575 13.1709 49.5643 13.0063 49.4211C12.8489 49.2709 12.6199 49.1957 12.3193 49.1957C12.0188 49.1957 11.7827 49.278 11.6109 49.4426C11.4463 49.6 11.364 49.8362 11.364 50.151C11.364 50.4158 11.407 50.6341 11.4928 50.8058C11.5859 50.9775 11.7326 51.1529 11.9329 51.3318L13.4034 52.6198C13.7326 52.906 14.0224 53.2495 14.2729 53.6502C14.5233 54.0438 14.6486 54.5125 14.6486 55.0564C14.6486 55.4857 14.5591 55.8578 14.3802 56.1727C14.2013 56.4804 13.9544 56.7165 13.6396 56.8811C13.3319 57.0457 12.9741 57.128 12.5662 57.128ZM17.7362 57.0314V48.337H18.5627L21.0314 54.1118V48.337H22.0404V57.0314H21.2676L18.7666 51.0956V57.0314H17.7362ZM25.0815 57.0314L26.9277 48.337H28.0977L29.9546 57.0314H28.8061L28.409 54.8417H26.6379L26.2193 57.0314H25.0815ZM26.7989 53.9723H28.248L27.5181 50.0544L26.7989 53.9723ZM35.1206 57.128C34.5052 57.128 34.0257 56.9992 33.6823 56.7416C33.3459 56.484 33.1098 56.1369 32.9738 55.7004C32.845 55.2639 32.7806 54.7773 32.7806 54.2406V51.1707C32.7806 50.584 32.845 50.0723 32.9738 49.6358C33.1098 49.1993 33.3459 48.863 33.6823 48.6269C34.0257 48.3836 34.5052 48.2619 35.1206 48.2619C35.6644 48.2619 36.0938 48.3621 36.4086 48.5624C36.7306 48.7628 36.9596 49.049 37.0956 49.4211C37.2387 49.7933 37.3103 50.2405 37.3103 50.7629V51.4498H36.1617V50.838C36.1617 50.516 36.1439 50.2333 36.1081 49.99C36.0795 49.7396 35.9936 49.5464 35.8505 49.4104C35.7074 49.2745 35.4676 49.2065 35.1313 49.2065C34.7878 49.2065 34.5374 49.2816 34.3799 49.4319C34.2225 49.575 34.1188 49.7825 34.0687 50.0544C34.0257 50.3192 34.0043 50.6305 34.0043 50.9883V54.4338C34.0043 54.8703 34.04 55.2174 34.1116 55.475C34.1832 55.7254 34.3012 55.9043 34.4658 56.0117C34.6304 56.119 34.8522 56.1727 35.1313 56.1727C35.4605 56.1727 35.6966 56.1011 35.8397 55.958C35.9829 55.8077 36.0723 55.6038 36.1081 55.3462C36.1439 55.0886 36.1617 54.788 36.1617 54.4445V53.8005H37.3103V54.4445C37.3103 54.9741 37.2459 55.4428 37.1171 55.8507C36.9882 56.2514 36.7664 56.5662 36.4516 56.7952C36.1367 57.0171 35.693 57.128 35.1206 57.128ZM40.6125 57.0314V48.337H41.8254V52.4373L43.8219 48.337H44.9489L43.2315 52.169L45.228 57.0314H44.0473L42.3835 52.9525L41.8254 53.9615V57.0314H40.6125ZM50.2536 57.128C49.6669 57.128 49.1982 57.0135 48.8475 56.7845C48.4969 56.5555 48.2464 56.2299 48.0962 55.8077C47.9459 55.3784 47.8708 54.8775 47.8708 54.305V51.0097C47.8708 50.4373 47.9459 49.9471 48.0962 49.5392C48.2536 49.1242 48.504 48.8093 48.8475 48.5947C49.1982 48.3728 49.6669 48.2619 50.2536 48.2619C50.8404 48.2619 51.3056 48.3728 51.649 48.5947C51.9925 48.8165 52.2394 49.1313 52.3897 49.5392C52.5471 49.9471 52.6258 50.4373 52.6258 51.0097V54.3157C52.6258 54.881 52.5471 55.3748 52.3897 55.797C52.2394 56.2192 51.9925 56.5484 51.649 56.7845C51.3056 57.0135 50.8404 57.128 50.2536 57.128ZM50.2536 56.1727C50.5757 56.1727 50.819 56.1083 50.9835 55.9795C51.1481 55.8435 51.259 55.6575 51.3163 55.4213C51.3735 55.178 51.4022 54.8954 51.4022 54.5733V50.7629C51.4022 50.4409 51.3735 50.1654 51.3163 49.9364C51.259 49.7002 51.1481 49.5213 50.9835 49.3997C50.819 49.2709 50.5757 49.2065 50.2536 49.2065C49.9316 49.2065 49.6848 49.2709 49.513 49.3997C49.3484 49.5213 49.2375 49.7002 49.1803 49.9364C49.123 50.1654 49.0944 50.4409 49.0944 50.7629V54.5733C49.0944 54.8954 49.123 55.178 49.1803 55.4213C49.2375 55.6575 49.3484 55.8435 49.513 55.9795C49.6848 56.1083 49.9316 56.1727 50.2536 56.1727ZM58.208 57.128C57.5783 57.128 57.0953 57.0027 56.759 56.7523C56.4226 56.5018 56.1937 56.1512 56.072 55.7004C55.9504 55.2424 55.8895 54.7093 55.8895 54.1011V48.337H57.0488V54.1547C57.0488 54.5268 57.0738 54.8667 57.1239 55.1744C57.174 55.4821 57.2813 55.7254 57.4459 55.9043C57.6177 56.0832 57.8717 56.1727 58.208 56.1727C58.5515 56.1727 58.8055 56.0832 58.9701 55.9043C59.1347 55.7254 59.242 55.4821 59.2921 55.1744C59.3422 54.8667 59.3673 54.5268 59.3673 54.1547V48.337H60.5158V54.1011C60.5158 54.7093 60.4549 55.2424 60.3333 55.7004C60.2117 56.1512 59.9827 56.5018 59.6463 56.7523C59.3172 57.0027 58.8377 57.128 58.208 57.128ZM64.8948 57.0314V49.2387H63.4243V48.337H67.5353V49.2387H66.1077V57.0314H64.8948Z" fill="#A796E4"/>
<g clip-path="url(#clip0_0_11020)">
<g filter="url(#filter0_d_0_11020)">
<path d="M38.9466 0.821442C37.0512 0.821442 35.5127 2.45603 35.5127 4.46978C35.5127 6.48353 37.0512 8.11812 38.9466 8.11812C40.842 8.11812 42.3805 6.48353 42.3805 4.46978C42.3805 2.45603 40.842 0.821442 38.9466 0.821442ZM38.9466 6.71945C37.7768 6.71945 36.8252 5.71257 36.8252 4.46557C36.8252 3.21856 37.7729 2.21169 38.9466 2.21169C40.1203 2.21169 41.068 3.21856 41.068 4.46557C41.068 5.71257 40.1203 6.71945 38.9466 6.71945Z" fill="#A796E4"/>
</g>
<path d="M4.52399 44.2267H73.3881C73.3881 44.2267 74.772 11.8719 42.8202 6.96812C41.6504 6.71114 28.5854 6.04041 18.7026 13.7322C18.8176 13.61 3.71508 24.8601 4.52399 44.2267Z" fill="#A796E4"/>
<path d="M48.2726 11.7159C51.6827 12.9923 55.7867 15.2252 59.2325 19.2527C59.6687 19.7624 60.0692 20.2722 60.4419 20.7861" stroke="#A796E4" stroke-width="0.736785" stroke-miterlimit="10" stroke-linecap="round"/>
</g>
<path d="M73.0519 62.211H5.82736C3.58412 62.211 1.76562 64.0942 1.76562 66.4172C1.76562 68.7403 3.58412 70.6235 5.82736 70.6235H73.0519C75.2952 70.6235 77.1137 68.7403 77.1137 66.4172C77.1137 64.0942 75.2952 62.211 73.0519 62.211Z" fill="#A796E4"/>
<defs>
<filter id="filter0_d_0_11020" x="33.2585" y="0.821442" width="11.3761" height="11.805" filterUnits="userSpaceOnUse" color-interpolation-filters="sRGB">
<feFlood flood-opacity="0" result="BackgroundImageFix"/>
<feColorMatrix in="SourceAlpha" type="matrix" values="0 0 0 0 0 0 0 0 0 0 0 0 0 0 0 0 0 0 127 0" result="hardAlpha"/>
<feOffset dy="2.25416"/>
<feGaussianBlur stdDeviation="1.12708"/>
<feComposite in2="hardAlpha" operator="out"/>
<feColorMatrix type="matrix" values="0 0 0 0 0 0 0 0 0 0 0 0 0 0 0 0 0 0 0.25 0"/>
<feBlend mode="normal" in2="BackgroundImageFix" result="effect1_dropShadow_0_11020"/>
<feBlend mode="normal" in="SourceGraphic" in2="effect1_dropShadow_0_11020" result="shape"/>
</filter>
<clipPath id="clip0_0_11020">
<rect width="78" height="52.7113" fill="white" transform="translate(0 0.610901)"/>
</clipPath>
</defs>
</svg>
